SplineFontDB: 3.0
FontName: Jost-Hairline
FullName: Jost* 100 Hairline
FamilyName: Jost* Hairline
Weight: Hairline
Copyright: Copyright 2019 indestructible type* (https://github.com/indestructible-type)
UComments: "2016-6-10: Created with FontForge (http://fontforge.org)"
Version: 003.400
ItalicAngle: 0
UnderlinePosition: -100
UnderlineWidth: 50
Ascent: 800
Descent: 200
InvalidEm: 0
LayerCount: 2
Layer: 0 0 "Back" 1
Layer: 1 0 "Fore" 0
PreferredKerning: 4
XUID: [1021 31 -699969567 16188444]
FSType: 0
OS2Version: 0
OS2_WeightWidthSlopeOnly: 0
OS2_UseTypoMetrics: 0
CreationTime: 1465610489
ModificationTime: 1563380702
PfmFamily: 33
TTFWeight: 100
TTFWidth: 5
LineGap: 100
VLineGap: 0
OS2TypoAscent: 825
OS2TypoAOffset: 0
OS2TypoDescent: -225
OS2TypoDOffset: 0
OS2TypoLinegap: 100
OS2WinAscent: 900
OS2WinAOffset: 0
OS2WinDescent: 300
OS2WinDOffset: 0
HheadAscent: 1030
HheadAOffset: 0
HheadDescent: -350
HheadDOffset: 0
OS2CapHeight: 700
OS2XHeight: 460
OS2Vendor: 'PfEd'
Lookup: 1 0 0 "alt a" { "alt a"  } ['ss01' ('DFLT' <'dflt' > 'latn' <'dflt' > ) ]
Lookup: 1 0 0 "Tabular Numbers lookup" { "Tabular Numbers lookup"  } ['tnum' ('DFLT' <'dflt' > 'grek' <'dflt' > 'latn' <'dflt' > ) ]
Lookup: 258 0 0 "Lets get our kern on" { "kernin like nobodys business" [150,0,4] } ['kern' ('DFLT' <'dflt' > 'latn' <'dflt' > ) ]
MarkAttachClasses: 1
DEI: 91125
KernClass2: 16 14 "kernin like nobodys business"
 43 slash seven V W Wcircumflex uni040E uni0423
 175 quotedbl quotesingle asterisk grave dieresis ordfeminine macron degree acute ordmasculine circumflex breve dotaccent ring tilde quoteleft quoteright quotedblleft quotedblright
 25 nine question F P uni0420
 131 A L backslash Agrave Aacute Acircumflex Atilde Adieresis Aring Amacron Abreve Aogonek Lacute uni013B Lslash uni0410 uni0414 uni041C
 58 three eight B C germandbls uni0411 uni0412 uni0417 uni0421
 29 K X Z uni0416 uni041A uni0425

StartChar: H
Encoding: 72 72 0
GlifName: H_
Width: 647
VWidth: 0
Flags: HMW
LayerCount: 2
Fore
SplineSet
93 377 m 257
 93 387 l 257
 553 387 l 257
 553 377 l 257
 93 377 l 257
546 700 m 257
 557 700 l 257
 557 0 l 257
 546 0 l 257
 546 700 l 257
90 700 m 257
 101 700 l 257
 101 0 l 257
 90 0 l 257
 90 700 l 257
EndSplineSet
EndChar

StartChar: O
Encoding: 79 79 1
GlifName: O_
Width: 774
VWidth: 0
Flags: HMW
LayerCount: 2
Fore
SplineSet
61 350 m 256
 61 149 196 3 387 3 c 260
 578 3 713 149 713 350 c 256
 713 551 578 697 387 697 c 256
 196 697 61 551 61 350 c 256
50 350 m 256
 50 559 193 708 387 708 c 256
 581 708 724 559 724 350 c 256
 724 141 581 -8 387 -8 c 256
 193 -8 50 141 50 350 c 256
EndSplineSet
EndChar

StartChar: I
Encoding: 73 73 2
GlifName: I_
Width: 180
VWidth: 0
Flags: HMW
LayerCount: 2
Fore
SplineSet
85 700 m 257
 95 700 l 257
 95 0 l 257
 85 0 l 257
 85 700 l 257
EndSplineSet
EndChar

StartChar: C
Encoding: 67 67 3
GlifName: C_
Width: 685
VWidth: 0
Flags: HMW
LayerCount: 2
Fore
SplineSet
62 350 m 260
 62 150 193 4 380 4 c 260
 479 4 547 31 605 88 c 261
 605 72 l 261
 546 20 482 -8 380 -8 c 260
 186 -8 50 141 50 350 c 260
 50 559 186 708 380 708 c 260
 482 708 546 680 605 628 c 261
 605 613 l 261
 549 669 474 696 380 696 c 260
 194 696 62 553 62 350 c 260
EndSplineSet
EndChar

StartChar: E
Encoding: 69 69 4
GlifName: E_
Width: 510
VWidth: 0
Flags: HMW
LayerCount: 2
Fore
SplineSet
92 0 m 257
 92 10 l 257
 430 10 l 257
 430 0 l 257
 92 0 l 257
92 690 m 257
 92 700 l 257
 430 700 l 257
 430 690 l 257
 92 690 l 257
92 384 m 257
 92 394 l 257
 410 394 l 257
 410 384 l 257
 92 384 l 257
90 700 m 257
 101 700 l 257
 101 0 l 257
 90 0 l 257
 90 700 l 257
EndSplineSet
EndChar

StartChar: F
Encoding: 70 70 6
GlifName: F_
Width: 450
VWidth: 0
Flags: HMW
LayerCount: 2
Fore
SplineSet
93 689 m 257
 93 700 l 257
 390 700 l 257
 390 689 l 257
 93 689 l 257
93 373 m 257
 93 383 l 257
 380 383 l 257
 380 373 l 257
 93 373 l 257
90 700 m 257
 101 700 l 257
 101 0 l 257
 90 0 l 257
 90 700 l 257
EndSplineSet
EndChar

StartChar: G
Encoding: 71 71 7
GlifName: G_
Width: 765
VWidth: 0
Flags: HMW
LayerCount: 2
Fore
SplineSet
420 330 m 257
 420 340 l 257
 710 340 l 257
 710 156 584 -8 390 -8 c 256
 196 -8 50 141 50 350 c 256
 50 559 196 708 390 708 c 256
 519 708 608 643 668 556 c 257
 658 550 l 257
 608 633 512 697 390 697 c 256
 199 697 61 553 61 350 c 256
 61 150 198 3 390 3 c 256
 574 3 695 155 699 330 c 257
 420 330 l 257
EndSplineSet
EndChar

StartChar: T
Encoding: 84 84 8
GlifName: T_
Width: 431
VWidth: 0
Flags: HMW
LayerCount: 2
Fore
SplineSet
20 689 m 257
 20 700 l 257
 411 700 l 257
 411 689 l 257
 221 689 l 257
 221 0 l 257
 210 0 l 257
 210 689 l 257
 20 689 l 257
EndSplineSet
EndChar

StartChar: L
Encoding: 76 76 9
GlifName: L_
Width: 430
VWidth: 0
Flags: HMW
LayerCount: 2
Fore
SplineSet
90 700 m 257
 100 700 l 257
 100 10 l 257
 410 10 l 257
 410 0 l 257
 90 0 l 257
 90 700 l 257
EndSplineSet
EndChar

StartChar: D
Encoding: 68 68 10
GlifName: D_
Width: 635
VWidth: 0
Flags: HMW
LayerCount: 2
Fore
SplineSet
90 700 m 257
 101 700 l 257
 101 0 l 257
 90 0 l 257
 90 700 l 257
250 0 m 258
 95 0 l 257
 95 11 l 257
 250 11 l 258
 450 11 574 146 574 350 c 256
 574 553 450 689 250 689 c 258
 95 689 l 257
 95 700 l 257
 250 700 l 258
 454 700 585 559 585 350 c 256
 585 141 454 0 250 0 c 258
EndSplineSet
EndChar

StartChar: Q
Encoding: 81 81 11
GlifName: Q_
Width: 771
VWidth: 0
Flags: HMW
LayerCount: 2
Fore
SplineSet
61 350 m 256
 61 149 196 3 387 3 c 256
 578 3 713 149 713 350 c 256
 713 551 578 697 387 697 c 256
 196 697 61 551 61 350 c 256
50 350 m 256
 50 559 193 708 387 708 c 256
 581 708 724 559 724 350 c 256
 724 141 581 -8 387 -8 c 256
 193 -8 50 141 50 350 c 256
400 300 m 257
 416 300 l 257
 736 0 l 257
 720 0 l 257
 400 300 l 257
EndSplineSet
EndChar

StartChar: A
Encoding: 65 65 12
GlifName: A_
Width: 600
VWidth: 0
Flags: HMW
LayerCount: 2
Fore
SplineSet
129 272 m 257
 129 282 l 257
 472 282 l 257
 472 272 l 257
 129 272 l 257
300 688 m 257
 136 277 l 257
 135 273 l 257
 27 0 l 257
 15 0 l 257
 300 715 l 257
 585 0 l 257
 573 0 l 257
 466 273 l 257
 465 276 l 257
 300 688 l 257
EndSplineSet
EndChar

StartChar: R
Encoding: 82 82 13
GlifName: R_
Width: 468
VWidth: 0
Flags: HMW
LayerCount: 2
Fore
SplineSet
199 317 m 261
 211 317 l 261
 433 0 l 261
 419 0 l 261
 199 317 l 261
90 700 m 261
 101 700 l 261
 101 0 l 261
 90 0 l 261
 90 700 l 261
92 689 m 261
 92 700 l 261
 205 700 l 262
 340 700 441 636 441 507 c 260
 441 378 340 314 205 314 c 262
 92 314 l 261
 92 324 l 261
 205 324 l 262
 337 324 430 384 430 507 c 260
 430 630 336 689 205 689 c 262
 92 689 l 261
EndSplineSet
EndChar

StartChar: V
Encoding: 86 86 14
GlifName: V_
Width: 600
VWidth: 0
Flags: HMW
LayerCount: 2
Fore
SplineSet
300 15 m 257
 572 700 l 257
 585 700 l 257
 300 -15 l 257
 15 700 l 257
 28 700 l 257
 300 15 l 257
EndSplineSet
EndChar

StartChar: M
Encoding: 77 77 15
GlifName: M_
Width: 830
VWidth: 0
Flags: HMW
LayerCount: 2
Fore
SplineSet
142 675 m 257
 71 0 l 257
 60 0 l 257
 135 715 l 257
 415 131 l 257
 695 715 l 257
 770 0 l 257
 759 0 l 257
 688 675 l 257
 415 105 l 257
 142 675 l 257
EndSplineSet
EndChar

StartChar: W
Encoding: 87 87 16
GlifName: W_
Width: 950
VWidth: 0
Flags: HMW
LayerCount: 2
Fore
SplineSet
695 26 m 257
 919 700 l 257
 930 700 l 257
 695 -15 l 257
 475 677 l 257
 255 -15 l 257
 20 700 l 257
 31 700 l 257
 255 26 l 257
 475 715 l 257
 695 26 l 257
EndSplineSet
EndChar

StartChar: N
Encoding: 78 78 17
GlifName: N_
Width: 725
VWidth: 0
Flags: HMW
LayerCount: 2
Fore
SplineSet
624 700 m 261
 635 700 l 261
 635 -15 l 261
 101 678 l 261
 101 0 l 261
 90 0 l 261
 90 715 l 261
 624 17 l 261
 624 700 l 261
EndSplineSet
EndChar

StartChar: a
Encoding: 97 97 18
GlifName: a
Width: 435
VWidth: 0
Flags: HMW
LayerCount: 2
Fore
SplineSet
50 135 m 256
 50 37 123 0 193 0 c 256
 283 0 355 74 355 160 c 257
 360 160 l 257
 360 71 295 -10 193 -10 c 256
 118 -10 40 31 40 135 c 256
 40 232 130 281 221 281 c 256
 299 281 337 253 358 235 c 257
 358 225 l 257
 334 247 289 271 221 271 c 256
 138 271 50 227 50 135 c 256
84 395 m 257
 77 403 l 257
 110 434 160 470 233 470 c 256
 323 470 365 409 365 320 c 258
 365 0 l 257
 355 0 l 257
 355 320 l 258
 355 406 316 460 233 460 c 256
 167 460 121 430 84 395 c 257
EndSplineSet
Substitution2: "alt a" a.alt
EndChar

StartChar: X
Encoding: 88 88 19
GlifName: X_
Width: 500
VWidth: 0
Flags: HMW
LayerCount: 2
Fore
SplineSet
451 700 m 257
 465 700 l 257
 259 367 l 257
 480 0 l 257
 466 0 l 257
 252 356 l 257
 34 0 l 257
 20 0 l 257
 246 367 l 257
 45 700 l 257
 59 700 l 257
 253 377 l 257
 451 700 l 257
EndSplineSet
EndChar

StartChar: K
Encoding: 75 75 20
GlifName: K_
Width: 454
VWidth: 0
Flags: HMW
LayerCount: 2
Fore
SplineSet
85 700 m 257
 96 700 l 257
 96 0 l 257
 85 0 l 257
 85 700 l 257
408 700 m 257
 424 700 l 257
 109 372 l 257
 439 0 l 257
 422 0 l 257
 94 372 l 257
 408 700 l 257
EndSplineSet
EndChar

StartChar: Y
Encoding: 89 89 21
GlifName: Y_
Width: 507
VWidth: 0
Flags: HMW
LayerCount: 2
Fore
SplineSet
479 700 m 257
 492 700 l 257
 254 267 l 257
 254 0 l 257
 243 0 l 257
 243 266 l 257
 15 700 l 257
 28 700 l 257
 248 281 l 257
 479 700 l 257
EndSplineSet
EndChar

StartChar: B
Encoding: 66 66 22
GlifName: B_
Width: 495
VWidth: 0
Flags: HMW
LayerCount: 2
Fore
SplineSet
97 386 m 257
 97 394 l 257
 200 394 l 258
 300 394 387 434 387 540 c 256
 387 634 320 689 200 689 c 258
 100 689 l 257
 100 11 l 257
 210 11 l 258
 340 11 424 69 424 200 c 256
 424 316 310 384 210 384 c 258
 97 384 l 257
 97 392 l 257
 220 392 l 258
 305 392 435 329 435 200 c 256
 435 61 345 0 210 0 c 258
 90 0 l 257
 90 700 l 257
 200 700 l 258
 325 700 398 639 398 540 c 256
 398 431 315 386 210 386 c 258
 97 386 l 257
EndSplineSet
EndChar

StartChar: Z
Encoding: 90 90 23
GlifName: Z_
Width: 535
VWidth: 0
Flags: HMW
LayerCount: 2
Fore
SplineSet
40 689 m 257
 40 700 l 257
 520 700 l 257
 42 11 l 257
 510 11 l 257
 510 0 l 257
 20 0 l 257
 498 689 l 257
 40 689 l 257
EndSplineSet
EndChar

StartChar: o
Encoding: 111 111 24
GlifName: o
Width: 556
VWidth: 0
Flags: HMW
LayerCount: 2
Fore
SplineSet
45 230 m 260
 45 369 146 470 278 470 c 260
 410 470 511 369 511 230 c 260
 511 91 410 -10 278 -10 c 260
 146 -10 45 91 45 230 c 260
55 230 m 260
 55 96 153 0 278 0 c 260
 403 0 501 96 501 230 c 260
 501 364 403 460 278 460 c 260
 153 460 55 364 55 230 c 260
EndSplineSet
EndChar

StartChar: J
Encoding: 74 74 25
GlifName: J_
Width: 197
VWidth: 0
Flags: HMW
LayerCount: 2
Fore
SplineSet
-127 -158 m 257
 -103 -182 -63 -209 -17 -209 c 256
 72 -209 96 -166 96 -50 c 258
 96 700 l 257
 107 700 l 257
 107 -60 l 258
 107 -169 78 -220 -16 -220 c 256
 -69 -220 -119 -185 -134 -165 c 257
 -127 -158 l 257
EndSplineSet
EndChar

StartChar: t
Encoding: 116 116 26
GlifName: t
Width: 190
VWidth: 0
Flags: HMW
LayerCount: 2
Fore
SplineSet
15 460 m 257
 175 460 l 257
 175 450 l 257
 15 450 l 257
 15 460 l 257
90 620 m 257
 100 620 l 257
 100 0 l 257
 90 0 l 257
 90 620 l 257
EndSplineSet
EndChar

StartChar: d
Encoding: 100 100 27
GlifName: d
Width: 541
VWidth: 0
Flags: HMW
LayerCount: 2
Fore
SplineSet
451 780 m 257
 461 780 l 257
 461 0 l 257
 451 0 l 257
 451 780 l 257
45 230 m 256
 45 377 138 470 258 470 c 256
 381 470 456 349 456 230 c 256
 456 111 381 -10 258 -10 c 256
 138 -10 45 83 45 230 c 256
55 230 m 256
 55 89 145 0 261 0 c 256
 370 0 451 114 451 230 c 256
 451 346 370 460 261 460 c 256
 145 460 55 371 55 230 c 256
EndSplineSet
EndChar

StartChar: l
Encoding: 108 108 28
GlifName: l
Width: 180
VWidth: 0
Flags: HMW
LayerCount: 2
Fore
SplineSet
85 780 m 257
 95 780 l 257
 95 0 l 257
 85 0 l 257
 85 780 l 257
EndSplineSet
EndChar

StartChar: i
Encoding: 105 105 29
GlifName: i
Width: 190
VWidth: 0
Flags: HMW
LayerCount: 2
Fore
SplineSet
85 695 m 256
 85 701 88 705 95 705 c 256
 102 705 105 701 105 695 c 256
 105 689 102 685 95 685 c 256
 88 685 85 689 85 695 c 256
90 460 m 257
 100 460 l 257
 100 0 l 257
 90 0 l 257
 90 460 l 257
EndSplineSet
EndChar

StartChar: r
Encoding: 114 114 30
GlifName: r
Width: 290
VWidth: 0
Flags: HMW
LayerCount: 2
Fore
SplineSet
95 460 m 257
 95 0 l 257
 85 0 l 257
 85 460 l 257
 95 460 l 257
269 440 m 257
 252 452 232 460 212 460 c 256
 132 460 95 376 95 280 c 257
 90 280 l 257
 90 389 127 470 212 470 c 256
 235 470 258 460 275 448 c 257
 269 440 l 257
EndSplineSet
EndChar

StartChar: c
Encoding: 99 99 31
GlifName: c
Width: 488
VWidth: 0
Flags: HMW
LayerCount: 2
Fore
SplineSet
50 230 m 260
 50 96 148 0 273 0 c 260
 347 0 407 37 428 61 c 261
 428 48 l 261
 406 23 346 -10 273 -10 c 260
 141 -10 40 91 40 230 c 260
 40 369 141 470 273 470 c 260
 346 470 406 436 428 412 c 261
 428 399 l 261
 407 423 347 460 273 460 c 260
 148 460 50 364 50 230 c 260
EndSplineSet
EndChar

StartChar: b
Encoding: 98 98 32
GlifName: b
Width: 541
VWidth: 0
Flags: HMW
LayerCount: 2
Fore
SplineSet
90 780 m 257
 90 0 l 257
 80 0 l 257
 80 780 l 257
 90 780 l 257
496 230 m 256
 496 83 403 -10 283 -10 c 256
 160 -10 85 111 85 230 c 256
 85 349 160 470 283 470 c 256
 403 470 496 377 496 230 c 256
486 230 m 256
 486 371 396 460 280 460 c 256
 171 460 90 346 90 230 c 256
 90 114 171 0 280 0 c 256
 396 0 486 89 486 230 c 256
EndSplineSet
EndChar

StartChar: p
Encoding: 112 112 33
GlifName: p
Width: 541
VWidth: 0
Flags: HMW
LayerCount: 2
Fore
SplineSet
90 -220 m 257
 80 -220 l 257
 80 460 l 257
 90 460 l 257
 90 -220 l 257
496 230 m 256
 496 83 403 -10 283 -10 c 256
 160 -10 85 111 85 230 c 256
 85 349 160 470 283 470 c 256
 403 470 496 377 496 230 c 256
486 230 m 256
 486 371 396 460 280 460 c 256
 171 460 90 346 90 230 c 256
 90 114 171 0 280 0 c 256
 396 0 486 89 486 230 c 256
EndSplineSet
EndChar

StartChar: q
Encoding: 113 113 34
GlifName: q
Width: 541
VWidth: 0
Flags: HMW
LayerCount: 2
Fore
SplineSet
451 -220 m 257
 451 460 l 257
 461 460 l 257
 461 -220 l 257
 451 -220 l 257
45 230 m 256
 45 377 138 470 258 470 c 256
 381 470 456 349 456 230 c 256
 456 111 381 -10 258 -10 c 256
 138 -10 45 83 45 230 c 256
55 230 m 256
 55 89 145 0 261 0 c 256
 370 0 451 114 451 230 c 256
 451 346 370 460 261 460 c 256
 145 460 55 371 55 230 c 256
EndSplineSet
EndChar

StartChar: h
Encoding: 104 104 35
GlifName: h
Width: 475
VWidth: 0
Flags: HMW
LayerCount: 2
Fore
SplineSet
95 780 m 257
 95 0 l 257
 85 0 l 257
 85 780 l 257
 95 780 l 257
380 320 m 258
 380 401 347 460 257 460 c 256
 166 460 95 375 95 280 c 257
 90 280 l 257
 90 389 162 470 257 470 c 256
 352 470 390 409 390 320 c 258
 390 0 l 257
 380 0 l 257
 380 320 l 258
EndSplineSet
EndChar

StartChar: n
Encoding: 110 110 36
GlifName: n
Width: 475
VWidth: 0
Flags: HMW
LayerCount: 2
Fore
SplineSet
95 460 m 257
 95 0 l 257
 85 0 l 257
 85 460 l 257
 95 460 l 257
380 320 m 258
 380 401 347 460 257 460 c 256
 166 460 95 375 95 280 c 257
 90 280 l 257
 90 389 162 470 257 470 c 256
 352 470 390 409 390 320 c 258
 390 0 l 257
 380 0 l 257
 380 320 l 258
EndSplineSet
EndChar

StartChar: m
Encoding: 109 109 37
GlifName: m
Width: 690
VWidth: 0
Flags: HMW
LayerCount: 2
Fore
SplineSet
340 320 m 258
 340 401 307 460 237 460 c 256
 167 460 95 376 95 280 c 257
 90 280 l 257
 90 389 162 470 237 470 c 256
 312 470 350 409 350 320 c 258
 350 0 l 257
 340 0 l 257
 340 320 l 258
95 460 m 257
 95 0 l 257
 85 0 l 257
 85 460 l 257
 95 460 l 257
605 320 m 258
 605 0 l 257
 595 0 l 257
 595 320 l 258
 595 401 562 460 492 460 c 256
 421 460 350 375 350 280 c 257
 343 280 l 257
 343 389 417 470 492 470 c 256
 567 470 605 409 605 320 c 258
EndSplineSet
EndChar

StartChar: k
Encoding: 107 107 38
GlifName: k
Width: 372
VWidth: 0
Flags: HMW
LayerCount: 2
Fore
SplineSet
80 780 m 257
 90 780 l 257
 90 0 l 257
 80 0 l 257
 80 780 l 257
328 460 m 257
 344 460 l 257
 102 270 l 257
 362 0 l 257
 348 0 l 257
 88 270 l 257
 328 460 l 257
EndSplineSet
EndChar

StartChar: u
Encoding: 117 117 39
GlifName: u
Width: 475
VWidth: 0
Flags: HMW
LayerCount: 2
Fore
SplineSet
380 0 m 257
 380 460 l 257
 390 460 l 257
 390 0 l 257
 380 0 l 257
95 150 m 258
 95 59 128 0 218 0 c 256
 309 0 380 85 380 180 c 257
 385 180 l 257
 385 71 313 -10 218 -10 c 256
 123 -10 85 51 85 150 c 258
 85 460 l 257
 95 460 l 257
 95 150 l 258
EndSplineSet
EndChar

StartChar: e
Encoding: 101 101 40
GlifName: e
Width: 502
VWidth: 0
Flags: HMW
LayerCount: 2
Fore
SplineSet
52 228 m 257
 52 238 l 257
 446 238 l 257
 455 366 359 460 255 460 c 256
 153 460 55 376 55 232 c 257
 55 232 l 257
 55 100 141 0 250 0 c 256
 368 0 411 64 441 113 c 257
 449 107 l 257
 419 59 375 -10 250 -10 c 256
 135 -10 45 93 45 232 c 256
 45 259 48 284 55 308 c 256
 82 403 157 470 255 470 c 256
 360 470 457 379 457 254 c 256
 457 246 456 236 455 228 c 257
 52 228 l 257
EndSplineSet
EndChar

StartChar: g
Encoding: 103 103 41
GlifName: g
Width: 541
VWidth: 0
Flags: HMW
LayerCount: 2
Fore
SplineSet
60 -30 m 257
 70 -30 l 257
 70 -146 145 -220 252 -220 c 256
 359 -220 451 -145 451 10 c 258
 451 460 l 257
 461 460 l 257
 461 10 l 258
 461 -149 367 -230 252 -230 c 256
 137 -230 60 -149 60 -30 c 257
45 230 m 256
 45 377 138 470 258 470 c 256
 381 470 456 349 456 230 c 256
 456 111 381 -10 258 -10 c 256
 138 -10 45 83 45 230 c 256
55 230 m 256
 55 89 145 0 261 0 c 256
 371 0 451 114 451 235 c 256
 451 341 371 460 261 460 c 256
 145 460 55 371 55 230 c 256
EndSplineSet
EndChar

StartChar: f
Encoding: 102 102 42
GlifName: f
Width: 278
VWidth: 0
Flags: HMW
LayerCount: 2
Fore
SplineSet
50 460 m 257
 245 460 l 257
 245 450 l 257
 50 450 l 257
 50 460 l 257
281 733 m 257
 265 753 240 778 203 778 c 256
 123 778 105 706 105 650 c 258
 105 0 l 257
 95 0 l 257
 95 650 l 258
 95 719 119 788 203 788 c 256
 246 788 273 760 288 740 c 257
 281 733 l 257
EndSplineSet
EndChar

StartChar: s
Encoding: 115 115 43
GlifName: s
Width: 403
VWidth: 0
Flags: HMW
LayerCount: 2
Fore
SplineSet
50 147 m 257
 64 76 101 0 198 0 c 256
 270 0 322 45 322 117 c 256
 322 183 265 211 197 231 c 256
 124 252 67 272 67 359 c 256
 67 430 125 468 197 468 c 256
 277 468 313 419 331 368 c 257
 321 365 l 257
 304 413 269 458 197 458 c 256
 132 458 77 424 77 359 c 256
 77 278 133 260 203 240 c 256
 269 221 332 189 332 117 c 256
 332 38 277 -10 198 -10 c 256
 93 -10 54 69 40 144 c 257
 50 147 l 257
EndSplineSet
EndChar

StartChar: y
Encoding: 121 121 44
GlifName: y
Width: 425
VWidth: 0
Flags: HMW
LayerCount: 2
Fore
SplineSet
415 460 m 261
 115 -220 l 261
 104 -220 l 261
 210 20 l 261
 10 460 l 261
 22 460 l 261
 221 20 l 261
 210 20 l 261
 404 460 l 261
 415 460 l 261
EndSplineSet
EndChar

StartChar: w
Encoding: 119 119 45
GlifName: w
Width: 620
VWidth: 0
Flags: HMW
LayerCount: 2
Fore
SplineSet
15 460 m 257
 25 460 l 257
 162 18 l 257
 305 475 l 257
 458 18 l 257
 595 460 l 257
 605 460 l 257
 458 -15 l 257
 305 441 l 257
 162 -15 l 257
 15 460 l 257
EndSplineSet
EndChar

StartChar: v
Encoding: 118 118 46
GlifName: v
Width: 420
VWidth: 0
Flags: HMW
LayerCount: 2
Fore
SplineSet
10 460 m 257
 22 460 l 257
 210 10 l 257
 398 460 l 257
 410 460 l 257
 210 -15 l 257
 10 460 l 257
EndSplineSet
EndChar

StartChar: x
Encoding: 120 120 47
GlifName: x
Width: 380
VWidth: 0
Flags: HMW
LayerCount: 2
Fore
SplineSet
345 460 m 257
 359 460 l 257
 197 237 l 257
 370 0 l 257
 355 0 l 257
 190 229 l 257
 25 0 l 257
 10 0 l 257
 183 237 l 257
 20 460 l 257
 35 460 l 257
 190 245 l 257
 345 460 l 257
EndSplineSet
EndChar

StartChar: z
Encoding: 122 122 48
GlifName: z
Width: 430
VWidth: 0
Flags: HMW
LayerCount: 2
Fore
SplineSet
379 450 m 257
 40 450 l 257
 40 460 l 257
 400 460 l 257
 41 10 l 257
 410 10 l 257
 410 0 l 257
 20 0 l 257
 379 450 l 257
EndSplineSet
EndChar

StartChar: j
Encoding: 106 106 49
GlifName: j
Width: 180
VWidth: 0
Flags: HMW
LayerCount: 2
Fore
SplineSet
75 695 m 256
 75 701 78 705 85 705 c 256
 92 705 95 701 95 695 c 256
 95 689 92 685 85 685 c 256
 78 685 75 689 75 695 c 256
-96 -165 m 257
 -80 -185 -55 -210 -18 -210 c 256
 62 -210 80 -138 80 -82 c 258
 80 460 l 257
 90 460 l 257
 90 -82 l 258
 90 -151 66 -220 -18 -220 c 256
 -61 -220 -88 -192 -103 -172 c 257
 -96 -165 l 257
EndSplineSet
EndChar

StartChar: P
Encoding: 80 80 50
GlifName: P_
Width: 480
VWidth: 0
Flags: HMW
LayerCount: 2
Fore
SplineSet
90 700 m 257
 101 700 l 257
 101 0 l 257
 90 0 l 257
 90 700 l 257
97 690 m 257
 97 700 l 257
 215 700 l 258
 340 700 430 626 430 497 c 256
 430 368 340 294 215 294 c 258
 97 294 l 257
 97 304 l 257
 215 304 l 258
 335 304 419 374 419 497 c 256
 419 620 335 690 215 690 c 258
 97 690 l 257
EndSplineSet
EndChar

StartChar: U
Encoding: 85 85 51
GlifName: U_
Width: 576
VWidth: 0
Flags: HMW
LayerCount: 2
Fore
SplineSet
85 700 m 257
 96 700 l 257
 96 220 l 258
 96 84 168 1 288 1 c 256
 408 1 480 84 480 220 c 258
 480 700 l 257
 491 700 l 257
 491 220 l 258
 491 81 423 -10 288 -10 c 256
 153 -10 85 81 85 220 c 258
 85 700 l 257
EndSplineSet
EndChar

StartChar: S
Encoding: 83 83 52
GlifName: S_
Width: 488
VWidth: 0
Flags: HMW
LayerCount: 2
Fore
SplineSet
50 197 m 257
 77 109 134 3 255 3 c 256
 385 3 432 77 432 175 c 256
 432 278 343 331 267 359 c 256
 187 388 80 442 80 550 c 256
 80 646 159 708 253 708 c 256
 366 708 421 621 439 550 c 257
 429 548 l 257
 410 615 359 697 253 697 c 256
 163 697 91 636 91 550 c 256
 91 450 188 399 273 368 c 256
 356 338 443 283 443 175 c 256
 443 76 394 -8 255 -8 c 256
 130 -8 69 96 40 193 c 257
 50 197 l 257
EndSplineSet
EndChar

StartChar: at
Encoding: 64 64 53
GlifName: at
Width: 770
VWidth: 0
Flags: HMW
LayerCount: 2
Fore
SplineSet
216 320 m 256
 216 234 268 174 338 174 c 256
 423 174 490 264 490 370 c 256
 490 446 448 517 378 517 c 256
 298 517 216 451 216 320 c 256
205 320 m 256
 205 459 293 528 378 528 c 256
 453 528 500 456 500 367 c 256
 500 258 425 163 340 163 c 256
 265 163 205 221 205 320 c 256
35 320 m 256
 35 539 191 708 415 708 c 256
 619 708 735 549 735 390 c 256
 735 229 631 152 556 152 c 256
 495 152 468 204 482 290 c 257
 480 290 l 257
 520 520 l 257
 532 520 l 257
 491 289 l 258
 490 282 489 262 489 254 c 256
 489 220 497 163 556 163 c 256
 629 163 724 244 724 390 c 256
 724 543 613 697 415 697 c 256
 196 697 46 536 46 320 c 256
 46 127 159 3 355 3 c 256
 464 3 542 32 597 61 c 257
 603 51 l 257
 543 22 469 -8 355 -8 c 256
 151 -8 35 121 35 320 c 256
EndSplineSet
EndChar

StartChar: period
Encoding: 46 46 54
GlifName: period
Width: 260
VWidth: 0
Flags: HMW
LayerCount: 2
Fore
SplineSet
119 1 m 256
 119 8 124 12 130 12 c 256
 136 12 141 8 141 1 c 256
 141 -6 136 -10 130 -10 c 256
 124 -10 119 -6 119 1 c 256
EndSplineSet
EndChar

StartChar: comma
Encoding: 44 44 55
GlifName: comma
Width: 276
VWidth: 0
Flags: HMW
LayerCount: 2
Fore
SplineSet
175 94 m 257
 186 89 l 257
 76 -161 l 257
 70 -159 l 257
 175 94 l 257
EndSplineSet
EndChar

StartChar: colon
Encoding: 58 58 56
GlifName: colon
Width: 300
VWidth: 0
Flags: HMW
LayerCount: 2
Fore
SplineSet
119 1 m 256
 119 8 124 12 130 12 c 256
 136 12 141 8 141 1 c 256
 141 -6 136 -10 130 -10 c 256
 124 -10 119 -6 119 1 c 256
119 349 m 256
 119 356 124 360 130 360 c 256
 136 360 141 356 141 349 c 256
 141 342 136 338 130 338 c 256
 124 338 119 342 119 349 c 256
EndSplineSet
EndChar

StartChar: semicolon
Encoding: 59 59 57
GlifName: semicolon
Width: 276
VWidth: 0
Flags: HMW
LayerCount: 2
Fore
SplineSet
149 349 m 256
 149 356 154 360 160 360 c 256
 166 360 171 356 171 349 c 256
 171 342 166 338 160 338 c 256
 154 338 149 342 149 349 c 256
175 94 m 257
 186 89 l 257
 76 -161 l 257
 70 -159 l 257
 175 94 l 257
EndSplineSet
EndChar

StartChar: quotedbl
Encoding: 34 34 58
GlifName: quotedbl
Width: 403
VWidth: 0
Flags: HMW
LayerCount: 2
Fore
SplineSet
140 700 m 257
 153 700 l 257
 97 420 l 257
 90 420 l 257
 140 700 l 257
320 700 m 257
 333 700 l 257
 277 420 l 257
 270 420 l 257
 320 700 l 257
EndSplineSet
EndChar

StartChar: exclam
Encoding: 33 33 59
GlifName: exclam
Width: 262
VWidth: 0
Flags: HMW
LayerCount: 2
Fore
SplineSet
124 700 m 257
 138 700 l 257
 134 200 l 257
 128 200 l 257
 124 700 l 257
120 1 m 256
 120 8 125 12 131 12 c 256
 137 12 142 8 142 1 c 256
 142 -6 137 -10 131 -10 c 256
 125 -10 120 -6 120 1 c 256
EndSplineSet
EndChar

StartChar: quotesingle
Encoding: 39 39 60
GlifName: quotesingle
Width: 223
VWidth: 0
Flags: HMW
LayerCount: 2
Fore
SplineSet
140 700 m 257
 153 700 l 257
 97 420 l 257
 90 420 l 257
 140 700 l 257
EndSplineSet
EndChar

StartChar: numbersign
Encoding: 35 35 61
GlifName: numbersign
Width: 571
VWidth: 0
Flags: HMW
LayerCount: 2
Fore
SplineSet
75 454 m 257
 75 465 l 257
 536 465 l 257
 536 454 l 257
 420 454 l 256
 416 454 l 256
 208 454 l 256
 205 454 l 256
 75 454 l 257
35 240 m 257
 35 251 l 257
 155 251 l 256
 160 251 l 256
 363 251 l 256
 369 251 l 256
 496 251 l 257
 496 240 l 257
 35 240 l 257
470 700 m 257
 481 700 l 257
 311 0 l 257
 300 0 l 257
 359 244 l 256
 360 246 l 256
 411 458 l 256
 412 462 l 256
 470 700 l 257
260 700 m 257
 271 700 l 257
 213 462 l 256
 212 458 l 256
 160 244 l 256
 160 243 l 256
 101 0 l 257
 90 0 l 257
 260 700 l 257
EndSplineSet
EndChar

StartChar: hyphen
Encoding: 45 45 62
GlifName: hyphen
Width: 210
VWidth: 0
Flags: HMW
LayerCount: 2
Fore
SplineSet
5 265 m 257
 5 275 l 257
 205 275 l 257
 205 265 l 257
 5 265 l 257
EndSplineSet
EndChar

StartChar: dollar
Encoding: 36 36 63
GlifName: dollar
Width: 580
VWidth: 0
Flags: HMW
LayerCount: 2
Fore
SplineSet
248 818 m 257
 258 818 l 257
 258 700 l 257
 248 700 l 257
 248 818 l 257
250 -2 m 257
 260 -2 l 257
 260 -112 l 257
 250 -112 l 257
 250 -2 l 257
429 548 m 257
 410 615 359 697 253 697 c 256
 163 697 91 636 91 550 c 256
 91 450 188 399 273 368 c 256
 357 338 443 283 443 175 c 256
 443 76 394 -8 255 -8 c 256
 130 -8 69 96 40 193 c 257
 50 197 l 257
 78 103 134 3 255 3 c 256
 385 3 432 77 432 175 c 256
 432 278 343 331 267 359 c 256
 187 388 80 442 80 550 c 256
 80 646 159 708 253 708 c 256
 366 708 421 621 439 550 c 257
 429 548 l 257
EndSplineSet
EndChar

StartChar: bar
Encoding: 124 124 64
GlifName: bar
Width: 210
VWidth: 0
Flags: HMW
LayerCount: 2
Fore
SplineSet
100 785 m 257
 110 785 l 257
 110 -215 l 257
 100 -215 l 257
 100 785 l 257
EndSplineSet
EndChar

StartChar: zero
Encoding: 48 48 65
GlifName: zero
Width: 550
VWidth: 0
Flags: HMW
LayerCount: 2
Fore
SplineSet
66 350 m 256
 66 163 143 0 275 0 c 256
 407 0 484 163 484 350 c 256
 484 537 407 700 275 700 c 256
 143 700 66 537 66 350 c 256
55 350 m 256
 55 549 136 710 275 710 c 256
 414 710 495 549 495 350 c 256
 495 151 414 -10 275 -10 c 256
 136 -10 55 151 55 350 c 256
EndSplineSet
Substitution2: "Tabular Numbers lookup" uniFF10
EndChar

StartChar: one
Encoding: 49 49 66
GlifName: one
Width: 410
VWidth: 0
Flags: HMW
LayerCount: 2
Fore
SplineSet
95 654 m 257
 95 665 l 257
 275 705 l 257
 275 0 l 257
 265 0 l 257
 265 691 l 257
 95 654 l 257
EndSplineSet
Substitution2: "Tabular Numbers lookup" uniFF11
EndChar

StartChar: two
Encoding: 50 50 67
GlifName: two
Width: 514
VWidth: 0
Flags: HMW
LayerCount: 2
Fore
SplineSet
25 0 m 257
 345 334 l 258
 394 385 440 435 440 519 c 256
 440 598 392 701 262 701 c 256
 142 701 65 601 65 460 c 257
 55 460 l 257
 55 609 137 711 262 711 c 256
 396 711 451 603 451 519 c 256
 451 437 404 380 354 328 c 258
 50 10 l 257
 479 10 l 257
 479 0 l 257
 25 0 l 257
EndSplineSet
Substitution2: "Tabular Numbers lookup" uniFF12
EndChar

StartChar: four
Encoding: 52 52 68
GlifName: four
Width: 553
VWidth: 0
Flags: HMW
LayerCount: 2
Fore
SplineSet
25 140 m 257
 408 700 l 257
 409 700 l 257
 409 0 l 257
 398 0 l 257
 398 142 l 257
 398 147 l 257
 398 666 l 257
 44 150 l 257
 402 150 l 257
 405 150 l 257
 518 150 l 257
 518 140 l 257
 25 140 l 257
EndSplineSet
Substitution2: "Tabular Numbers lookup" uniFF14
EndChar

StartChar: slash
Encoding: 47 47 69
GlifName: slash
Width: 475
VWidth: 0
Flags: HMW
LayerCount: 2
Fore
SplineSet
448 700 m 261
 460 700 l 261
 27 -150 l 261
 15 -150 l 261
 448 700 l 261
EndSplineSet
EndChar

StartChar: backslash
Encoding: 92 92 70
GlifName: backslash
Width: 435
VWidth: 0
Flags: HMW
LayerCount: 2
Fore
SplineSet
15 700 m 257
 28 700 l 257
 420 0 l 257
 407 0 l 257
 15 700 l 257
EndSplineSet
EndChar

StartChar: eight
Encoding: 56 56 71
GlifName: eight
Width: 516
VWidth: 0
Flags: HMW
LayerCount: 2
Fore
SplineSet
85 541 m 256
 85 630 158 710 258 710 c 256
 358 710 431 630 431 541 c 256
 431 442 343 368 258 368 c 256
 173 368 85 442 85 541 c 256
95 541 m 256
 95 445 188 375 258 375 c 256
 328 375 421 445 421 541 c 256
 421 627 353 700 258 700 c 256
 163 700 95 627 95 541 c 256
65 185 m 256
 65 294 158 372 258 372 c 256
 358 372 451 294 451 185 c 256
 451 76 383 -10 258 -10 c 256
 133 -10 65 76 65 185 c 256
75 185 m 256
 75 79 143 0 258 0 c 256
 373 0 441 79 441 185 c 256
 441 291 348 365 258 365 c 256
 168 365 75 291 75 185 c 256
EndSplineSet
Substitution2: "Tabular Numbers lookup" uniFF18
EndChar

StartChar: nine
Encoding: 57 57 72
GlifName: nine
Width: 536
VWidth: 0
Flags: HMW
LayerCount: 2
Fore
SplineSet
476 480 m 256
 476 606 393 700 268 700 c 256
 143 700 60 606 60 480 c 256
 60 364 152 273 257 273 c 256
 397 273 476 374 476 480 c 256
206 0 m 257
 194 0 l 257
 436 345 l 257
 436 345 l 257
 394 293 332 263 257 263 c 256
 143 263 50 361 50 480 c 256
 50 614 133 710 268 710 c 256
 403 710 486 614 486 480 c 256
 486 423 457 358 430 321 c 258
 206 0 l 257
EndSplineSet
Substitution2: "Tabular Numbers lookup" uniFF19
EndChar

StartChar: three
Encoding: 51 51 73
GlifName: three
Width: 551
VWidth: 0
Flags: HMW
LayerCount: 2
Fore
SplineSet
248 362 m 257
 248 370 l 257
 338 370 456 429 456 533 c 256
 456 616 394 700 282 700 c 256
 173 700 105 627 105 526 c 257
 95 526 l 257
 95 635 167 710 282 710 c 256
 402 710 466 623 466 534 c 256
 466 425 353 362 248 362 c 257
278 -10 m 256
 143 -10 65 76 65 185 c 257
 75 185 l 257
 75 79 148 0 278 0 c 256
 398 0 476 74 476 175 c 256
 476 300 338 360 248 360 c 257
 248 368 l 257
 353 368 486 304 486 175 c 256
 486 66 403 -10 278 -10 c 256
EndSplineSet
Substitution2: "Tabular Numbers lookup" uniFF13
EndChar

StartChar: five
Encoding: 53 53 74
GlifName: five
Width: 557
VWidth: 0
Flags: HMW
LayerCount: 2
Fore
SplineSet
489 230 m 256
 489 71 389 -10 264 -10 c 256
 155 -10 91 47 55 137 c 257
 64 142 l 257
 100 54 159 0 264 0 c 256
 384 0 479 79 479 230 c 256
 479 351 395 436 290 436 c 256
 203 436 136 397 85 327 c 257
 177 700 l 257
 507 700 l 257
 507 690 l 257
 184 690 l 257
 103 359 l 257
 133 404 201 446 290 446 c 256
 400 446 489 359 489 230 c 256
EndSplineSet
Substitution2: "Tabular Numbers lookup" uniFF15
EndChar

StartChar: six
Encoding: 54 54 75
GlifName: six
Width: 536
VWidth: 0
Flags: HMW
LayerCount: 2
Fore
SplineSet
60 220 m 256
 60 94 143 0 268 0 c 256
 393 0 476 94 476 220 c 256
 476 336 384 427 279 427 c 256
 139 427 60 326 60 220 c 256
330 700 m 257
 342 700 l 257
 100 355 l 257
 100 355 l 257
 142 407 204 437 279 437 c 256
 393 437 486 339 486 220 c 256
 486 86 403 -10 268 -10 c 256
 133 -10 50 86 50 220 c 256
 50 277 79 342 106 379 c 258
 330 700 l 257
EndSplineSet
Substitution2: "Tabular Numbers lookup" uniFF16
EndChar

StartChar: seven
Encoding: 55 55 76
GlifName: seven
Width: 515
VWidth: 0
Flags: HMW
LayerCount: 2
Fore
SplineSet
35 690 m 257
 35 700 l 257
 505 700 l 257
 135 0 l 257
 124 0 l 257
 489 690 l 257
 35 690 l 257
EndSplineSet
Substitution2: "Tabular Numbers lookup" uniFF17
EndChar

StartChar: plus
Encoding: 43 43 77
GlifName: plus
Width: 550
VWidth: 0
Flags: HMW
LayerCount: 2
Fore
SplineSet
65 250 m 257
 65 260 l 257
 475 260 l 257
 475 250 l 257
 65 250 l 257
265 480 m 257
 275 480 l 257
 275 30 l 257
 265 30 l 257
 265 480 l 257
EndSplineSet
EndChar

StartChar: equal
Encoding: 61 61 78
GlifName: equal
Width: 615
VWidth: 0
Flags: HMW
LayerCount: 2
Fore
SplineSet
65 185 m 257
 65 195 l 257
 550 195 l 257
 550 185 l 257
 65 185 l 257
65 310 m 257
 65 320 l 257
 550 320 l 257
 550 310 l 257
 65 310 l 257
EndSplineSet
EndChar

StartChar: percent
Encoding: 37 37 79
GlifName: percent
Width: 701
VWidth: 0
Flags: HMW
LayerCount: 2
Fore
SplineSet
35 560 m 256
 35 644 93 710 183 710 c 256
 273 710 331 644 331 560 c 256
 331 476 273 410 183 410 c 256
 93 410 35 476 35 560 c 256
45 560 m 256
 45 484 98 419 183 419 c 256
 268 419 321 484 321 560 c 256
 321 636 268 700 183 700 c 256
 98 700 45 636 45 560 c 256
370 140 m 256
 370 224 428 290 518 290 c 256
 608 290 666 224 666 140 c 256
 666 56 608 -10 518 -10 c 256
 428 -10 370 56 370 140 c 256
380 140 m 256
 380 64 433 -1 518 -1 c 256
 603 -1 656 64 656 140 c 256
 656 216 603 280 518 280 c 256
 433 280 380 216 380 140 c 256
573 700 m 257
 585 700 l 257
 128 0 l 257
 116 0 l 257
 573 700 l 257
EndSplineSet
EndChar

StartChar: ampersand
Encoding: 38 38 80
GlifName: ampersand
Width: 675
VWidth: 0
Flags: HMW
LayerCount: 2
Fore
SplineSet
183 427 m 258
 150 465 117 504 117 576 c 256
 117 650 168 711 268 711 c 256
 363 711 406 638 406 574 c 256
 406 507 354 457 261 400 c 256
 189 356 50 313 50 173 c 256
 50 60 135 0 245 0 c 256
 416 0 501 175 603 316 c 257
 611 311 l 257
 508 171 424 -10 245 -10 c 256
 130 -10 40 54 40 173 c 256
 40 320 187 367 254 407 c 256
 343 460 396 513 396 574 c 256
 396 630 358 701 268 701 c 256
 173 701 127 642 127 576 c 256
 127 506 160 469 190 435 c 258
 571 0 l 257
 558 0 l 257
 183 427 l 258
EndSplineSet
EndChar

StartChar: question
Encoding: 63 63 81
GlifName: question
Width: 542
VWidth: 0
Flags: HMW
LayerCount: 2
Fore
SplineSet
452 520 m 256
 452 621 384 700 264 700 c 256
 172 700 118 656 74 587 c 257
 65 593 l 257
 111 663 165 710 264 710 c 256
 389 710 462 629 462 520 c 256
 462 422 362 339 234 337 c 257
 235 170 l 257
 227 170 l 257
 222 345 l 257
 223 345 l 258
 353 345 452 424 452 520 c 256
214 1 m 256
 214 8 219 12 225 12 c 256
 231 12 236 8 236 1 c 256
 236 -6 231 -10 225 -10 c 256
 219 -10 214 -6 214 1 c 256
EndSplineSet
EndChar

StartChar: parenleft
Encoding: 40 40 82
GlifName: parenleft
Width: 240
VWidth: 0
Flags: HMW
LayerCount: 2
Fore
SplineSet
205 780 m 257
 210 780 l 257
 135 620 100 460 100 290 c 256
 100 120 135 -40 210 -200 c 257
 205 -200 l 257
 125 -50 90 120 90 290 c 256
 90 460 125 630 205 780 c 257
EndSplineSet
EndChar

StartChar: parenright
Encoding: 41 41 83
GlifName: parenright
Width: 240
VWidth: 0
Flags: HMW
LayerCount: 2
Fore
SplineSet
35 -200 m 257
 30 -200 l 257
 105 -40 140 120 140 290 c 256
 140 460 105 620 30 780 c 257
 35 780 l 257
 115 630 150 460 150 290 c 256
 150 120 115 -50 35 -200 c 257
EndSplineSet
EndChar

StartChar: asterisk
Encoding: 42 42 84
GlifName: asterisk
Width: 592
VWidth: 0
Flags: HMW
LayerCount: 2
Fore
SplineSet
461 585 m 257
 464 573 l 257
 297 522 l 257
 294 528 l 257
 461 585 l 257
404 387 m 257
 394 380 l 257
 294 522 l 257
 298 527 l 257
 404 387 l 257
198 380 m 257
 188 387 l 257
 294 527 l 257
 298 522 l 257
 198 380 l 257
128 573 m 257
 131 585 l 257
 298 528 l 257
 295 522 l 257
 128 573 l 257
290 700 m 257
 302 700 l 257
 299 525 l 257
 293 525 l 257
 290 700 l 257
EndSplineSet
EndChar

StartChar: less
Encoding: 60 60 85
GlifName: less
Width: 640
VWidth: 0
Flags: HMW
LayerCount: 2
Fore
SplineSet
82 257 m 257
 575 55 l 257
 575 45 l 257
 65 254 l 257
 65 260 l 257
 575 470 l 257
 575 460 l 257
 82 257 l 257
EndSplineSet
EndChar

StartChar: greater
Encoding: 62 62 86
GlifName: greater
Width: 640
VWidth: 0
Flags: HMW
LayerCount: 2
Fore
SplineSet
558 258 m 257
 65 460 l 257
 65 470 l 257
 575 261 l 257
 575 255 l 257
 65 45 l 257
 65 55 l 257
 558 258 l 257
EndSplineSet
EndChar

StartChar: bracketleft
Encoding: 91 91 87
GlifName: bracketleft
Width: 260
VWidth: 0
Flags: HMW
LayerCount: 2
Fore
SplineSet
111 769 m 257
 111 -209 l 257
 240 -209 l 257
 240 -220 l 257
 100 -220 l 257
 100 780 l 257
 240 780 l 257
 240 769 l 257
 111 769 l 257
EndSplineSet
EndChar

StartChar: bracketright
Encoding: 93 93 88
GlifName: bracketright
Width: 260
VWidth: 0
Flags: HMW
LayerCount: 2
Fore
SplineSet
149 -209 m 257
 149 769 l 257
 20 769 l 257
 20 780 l 257
 160 780 l 257
 160 -220 l 257
 20 -220 l 257
 20 -209 l 257
 149 -209 l 257
EndSplineSet
EndChar

StartChar: asciicircum
Encoding: 94 94 89
GlifName: asciicircum
Width: 510
VWidth: 0
Flags: HMW
LayerCount: 2
Fore
SplineSet
255 693 m 257
 80 460 l 257
 65 460 l 257
 255 710 l 257
 255 710 l 257
 445 460 l 257
 430 460 l 257
 255 693 l 257
EndSplineSet
EndChar

StartChar: underscore
Encoding: 95 95 90
GlifName: underscore
Width: 500
VWidth: 0
Flags: HMW
LayerCount: 2
Fore
SplineSet
0 -109 m 257
 0 -98 l 257
 500 -98 l 257
 500 -109 l 257
 0 -109 l 257
EndSplineSet
EndChar

StartChar: grave
Encoding: 96 96 91
GlifName: grave
Width: 353
VWidth: 0
Flags: HMW
LayerCount: 2
Fore
SplineSet
100 692 m 257
 108 700 l 257
 278 540 l 257
 273 535 l 257
 100 692 l 257
EndSplineSet
EndChar

StartChar: braceleft
Encoding: 123 123 92
GlifName: braceleft
Width: 281
VWidth: 0
Flags: HMW
LayerCount: 2
Fore
SplineSet
148 640 m 258
 148 430 l 258
 148 341 109 288 80 288 c 257
 80 292 l 257
 109 292 148 239 148 150 c 258
 148 -60 l 258
 148 -156 166 -190 231 -190 c 258
 251 -190 l 257
 251 -200 l 257
 231 -200 l 258
 157 -200 138 -159 138 -60 c 258
 138 150 l 258
 138 226 110 275 80 285 c 257
 80 295 l 257
 110 305 138 354 138 430 c 258
 138 640 l 258
 138 739 157 780 231 780 c 258
 251 780 l 257
 251 770 l 257
 231 770 l 258
 166 770 148 736 148 640 c 258
EndSplineSet
EndChar

StartChar: braceright
Encoding: 125 125 93
GlifName: braceright
Width: 281
VWidth: 0
Flags: HMW
LayerCount: 2
Fore
SplineSet
133 -60 m 258
 133 150 l 258
 133 239 172 292 201 292 c 257
 201 288 l 257
 172 288 133 341 133 430 c 258
 133 640 l 258
 133 736 115 770 50 770 c 258
 30 770 l 257
 30 780 l 257
 50 780 l 258
 124 780 143 739 143 640 c 258
 143 430 l 258
 143 354 171 305 201 295 c 257
 201 285 l 257
 171 275 143 226 143 150 c 258
 143 -60 l 258
 143 -159 124 -200 50 -200 c 258
 30 -200 l 257
 30 -190 l 257
 50 -190 l 258
 115 -190 133 -156 133 -60 c 258
EndSplineSet
EndChar

StartChar: asciitilde
Encoding: 126 126 94
GlifName: asciitilde
Width: 575
VWidth: 0
Flags: HMW
LayerCount: 2
Fore
SplineSet
88 178 m 257
 78 181 l 257
 76 188 75 196 75 205 c 256
 75 238 83 268 101 290 c 256
 120 313 148 327 184 327 c 256
 243 327 275 282 302 250 c 256
 326 221 356 182 404 182 c 256
 463 182 491 228 491 290 c 256
 491 298 490 311 486 321 c 257
 496 318 l 257
 498 310 500 300 500 290 c 256
 500 258 494 228 478 207 c 256
 462 185 437 172 404 172 c 256
 350 172 322 211 294 243 c 256
 269 271 239 317 184 317 c 256
 121 317 84 268 84 200 c 256
 84 193 85 186 88 178 c 257
EndSplineSet
EndChar

StartChar: exclamdown
Encoding: 161 161 95
GlifName: exclamdown
Width: 300
VWidth: 0
Flags: HMW
LayerCount: 2
Fore
SplineSet
176 -245 m 257
 162 -245 l 257
 166 255 l 257
 172 255 l 257
 176 -245 l 257
180 454 m 256
 180 447 175 443 169 443 c 256
 163 443 158 447 158 454 c 256
 158 461 163 465 169 465 c 256
 175 465 180 461 180 454 c 256
EndSplineSet
EndChar

StartChar: cent
Encoding: 162 162 96
GlifName: cent
Width: 580
VWidth: 0
Flags: HMW
LayerCount: 2
Fore
SplineSet
316 -4 m 257
 320 -4 l 257
 325 -112 l 257
 311 -112 l 257
 316 -4 l 257
96 230 m 256
 96 99 192 0 319 0 c 256
 393 0 453 36 474 61 c 257
 474 48 l 257
 452 23 392 -10 319 -10 c 256
 187 -10 86 91 86 230 c 256
 86 369 187 470 319 470 c 256
 392 470 453 436 474 412 c 257
 474 399 l 257
 453 424 393 460 319 460 c 256
 192 460 96 361 96 230 c 256
311 578 m 257
 325 578 l 257
 320 463 l 257
 316 463 l 257
 311 578 l 257
EndSplineSet
EndChar

StartChar: sterling
Encoding: 163 163 97
GlifName: sterling
Width: 580
VWidth: 0
Flags: HMW
LayerCount: 2
Fore
SplineSet
87 305 m 257
 397 305 l 257
 397 295 l 257
 87 295 l 257
 87 305 l 257
481 498 m 257
 478 577 432 700 311 700 c 256
 208 700 146 619 146 538 c 256
 146 415 268 371 268 264 c 256
 268 158 132 47 108 0 c 257
 104 10 l 257
 497 10 l 257
 497 0 l 257
 94 0 l 257
 172 102 258 176 258 264 c 256
 258 366 136 412 136 538 c 256
 136 627 202 710 311 710 c 256
 444 710 486 578 491 498 c 257
 481 498 l 257
EndSplineSet
EndChar

StartChar: currency
Encoding: 164 164 98
GlifName: currency
Width: 560
VWidth: 0
Flags: HMW
LayerCount: 2
Fore
SplineSet
57 523 m 257
 67 533 l 257
 130 469 l 257
 121 460 l 257
 57 523 l 257
67 67 m 257
 57 77 l 257
 121 140 l 257
 130 131 l 257
 67 67 l 257
449 460 m 257
 439 469 l 257
 503 533 l 257
 512 523 l 257
 449 460 l 257
439 131 m 257
 449 140 l 257
 512 77 l 257
 503 67 l 257
 439 131 l 257
52 300 m 256
 52 439 155 540 280 540 c 256
 405 540 508 439 508 300 c 256
 508 161 405 60 280 60 c 256
 155 60 52 161 52 300 c 256
62 300 m 256
 62 169 160 70 280 70 c 256
 400 70 498 169 498 300 c 256
 498 431 400 530 280 530 c 256
 160 530 62 431 62 300 c 256
EndSplineSet
EndChar

StartChar: yen
Encoding: 165 165 99
GlifName: yen
Width: 565
VWidth: 0
Flags: HMW
LayerCount: 2
Fore
SplineSet
30 270 m 257
 30 280 l 257
 507 280 l 257
 507 270 l 257
 30 270 l 257
30 145 m 257
 30 155 l 257
 507 155 l 257
 507 145 l 257
 30 145 l 257
494 700 m 257
 507 700 l 257
 269 265 l 257
 269 0 l 257
 258 0 l 257
 258 267 l 257
 30 700 l 257
 43 700 l 257
 264 281 l 257
 494 700 l 257
EndSplineSet
EndChar

StartChar: brokenbar
Encoding: 166 166 100
GlifName: brokenbar
Width: 210
VWidth: 0
Flags: HMW
LayerCount: 2
Fore
SplineSet
100 695 m 257
 110 695 l 257
 110 455 l 257
 100 455 l 257
 100 695 l 257
110 245 m 257
 110 5 l 257
 100 5 l 257
 100 245 l 257
 110 245 l 257
EndSplineSet
EndChar

StartChar: section
Encoding: 167 167 101
GlifName: section
Width: 398
VWidth: 0
Flags: HMW
LayerCount: 2
Fore
SplineSet
357 616 m 257
 337 665 267 700 203 700 c 256
 143 700 69 670 69 599 c 256
 69 530 172 504 223 483 c 256
 288 456 368 427 368 360 c 256
 368 281 304 240 205 240 c 257
 205 240 l 257
 295 255 358 290 358 360 c 256
 358 420 269 454 216 475 c 256
 153 500 59 522 59 599 c 256
 59 675 129 710 203 710 c 256
 276 710 346 671 364 620 c 257
 357 616 l 257
38 127 m 257
 51 61 128 0 215 0 c 256
 275 0 358 20 358 100 c 256
 358 180 272 206 209 233 c 256
 147 260 59 292 59 359 c 256
 59 415 109 480 223 480 c 257
 223 480 l 257
 123 470 69 410 69 359 c 256
 69 296 165 262 216 241 c 256
 281 214 368 187 368 100 c 256
 368 21 294 -10 215 -10 c 256
 130 -10 44 48 30 123 c 257
 38 127 l 257
EndSplineSet
EndChar

StartChar: dieresis
Encoding: 168 168 102
GlifName: dieresis
Width: 422
VWidth: 0
Flags: HMW
LayerCount: 2
Fore
SplineSet
300 689 m 256
 300 696 305 700 311 700 c 256
 317 700 322 696 322 689 c 256
 322 682 317 678 311 678 c 256
 305 678 300 682 300 689 c 256
100 689 m 256
 100 696 105 700 111 700 c 256
 117 700 122 696 122 689 c 256
 122 682 117 678 111 678 c 256
 105 678 100 682 100 689 c 256
EndSplineSet
EndChar

StartChar: copyright
Encoding: 169 169 103
GlifName: copyright
Width: 800
VWidth: 0
Flags: HMW
LayerCount: 2
Fore
SplineSet
198 350 m 256
 198 230 277 142 389 142 c 256
 448 142 489 159 524 193 c 257
 524 183 l 257
 489 152 450 135 389 135 c 256
 273 135 191 225 191 350 c 256
 191 475 273 565 389 565 c 256
 450 565 489 548 524 517 c 257
 524 508 l 257
 490 542 445 558 389 558 c 256
 277 558 198 472 198 350 c 256
50 350 m 256
 50 147 207 0 400 0 c 256
 593 0 750 147 750 350 c 256
 750 553 593 700 400 700 c 256
 207 700 50 553 50 350 c 256
40 350 m 256
 40 559 196 710 400 710 c 256
 604 710 760 559 760 350 c 256
 760 141 604 -10 400 -10 c 256
 196 -10 40 141 40 350 c 256
EndSplineSet
EndChar

StartChar: registered
Encoding: 174 174 104
GlifName: registered
Width: 800
VWidth: 0
Flags: HMW
LayerCount: 2
Fore
SplineSet
365 340 m 257
 373 340 l 257
 506 150 l 257
 497 150 l 257
 365 340 l 257
300 570 m 257
 307 570 l 257
 307 150 l 257
 300 150 l 257
 300 570 l 257
301 563 m 257
 301 570 l 257
 369 570 l 258
 450 570 511 531 511 454 c 256
 511 377 450 338 369 338 c 258
 301 338 l 257
 301 344 l 257
 369 344 l 258
 448 344 504 380 504 454 c 256
 504 528 448 563 369 563 c 258
 301 563 l 257
50 350 m 256
 50 147 207 0 400 0 c 256
 593 0 750 147 750 350 c 256
 750 553 593 700 400 700 c 256
 207 700 50 553 50 350 c 256
40 350 m 256
 40 559 196 710 400 710 c 256
 604 710 760 559 760 350 c 256
 760 141 604 -10 400 -10 c 256
 196 -10 40 141 40 350 c 256
EndSplineSet
EndChar

StartChar: ordfeminine
Encoding: 170 170 105
GlifName: ordfeminine
Width: 238
VWidth: 0
Flags: HMW
LayerCount: 2
Fore
SplineSet
30 528 m 256
 30 479 67 460 102 460 c 256
 147 460 183 497 183 540 c 257
 186 540 l 257
 186 496 153 455 102 455 c 256
 64 455 26 476 26 528 c 256
 26 576 70 600 116 600 c 256
 155 600 174 587 184 578 c 257
 184 572 l 257
 172 583 150 596 116 596 c 256
 74 596 30 574 30 528 c 256
48 662 m 257
 44 666 l 257
 60 682 86 700 122 700 c 256
 167 700 188 669 188 625 c 258
 188 460 l 257
 183 460 l 257
 183 625 l 258
 183 668 164 695 122 695 c 256
 89 695 66 680 48 662 c 257
EndSplineSet
EndChar

StartChar: ordmasculine
Encoding: 186 186 106
GlifName: ordmasculine
Width: 278
VWidth: 0
Flags: HMW
LayerCount: 2
Fore
SplineSet
20 580 m 256
 20 650 71 700 139 700 c 256
 207 700 258 650 258 580 c 256
 258 510 207 460 139 460 c 256
 71 460 20 510 20 580 c 256
30 580 m 256
 30 515 79 470 139 470 c 256
 199 470 248 515 248 580 c 256
 248 645 199 690 139 690 c 256
 79 690 30 645 30 580 c 256
EndSplineSet
EndChar

StartChar: guillemotleft
Encoding: 171 171 107
GlifName: guillemotleft
Width: 485
VWidth: 0
Flags: HMW
LayerCount: 2
Fore
SplineSet
210 255 m 257
 415 27 l 257
 408 20 l 257
 200 255 l 257
 408 490 l 257
 415 483 l 257
 210 255 l 257
50 255 m 257
 255 27 l 257
 248 20 l 257
 40 255 l 257
 248 490 l 257
 255 483 l 257
 50 255 l 257
EndSplineSet
EndChar

StartChar: guillemotright
Encoding: 187 187 108
GlifName: guillemotright
Width: 485
VWidth: 0
Flags: HMW
LayerCount: 2
Fore
SplineSet
275 255 m 257
 70 483 l 257
 77 490 l 257
 285 255 l 257
 77 20 l 257
 70 27 l 257
 275 255 l 257
435 255 m 257
 230 483 l 257
 237 490 l 257
 445 255 l 257
 237 20 l 257
 230 27 l 257
 435 255 l 257
EndSplineSet
EndChar

StartChar: uni00AD
Encoding: 173 173 109
GlifName: uni00A_D_
Width: 210
VWidth: 0
Flags: HMW
LayerCount: 2
Fore
SplineSet
5 265 m 257
 5 275 l 257
 205 275 l 257
 205 265 l 257
 5 265 l 257
EndSplineSet
EndChar

StartChar: logicalnot
Encoding: 172 172 110
GlifName: logicalnot
Width: 620
VWidth: 0
Flags: HMW
LayerCount: 2
Fore
SplineSet
65 365 m 257
 65 375 l 257
 555 375 l 257
 555 175 l 257
 545 175 l 257
 545 365 l 257
 65 365 l 257
EndSplineSet
EndChar

StartChar: macron
Encoding: 175 175 111
GlifName: macron
Width: 510
VWidth: 0
Flags: HMW
LayerCount: 2
Fore
SplineSet
80 665 m 257
 80 675 l 257
 430 675 l 257
 430 665 l 257
 80 665 l 257
EndSplineSet
EndChar

StartChar: degree
Encoding: 176 176 112
GlifName: degree
Width: 278
VWidth: 0
Flags: HMW
LayerCount: 2
Fore
SplineSet
20 600 m 256
 20 670 71 720 139 720 c 256
 207 720 258 670 258 600 c 256
 258 530 207 480 139 480 c 256
 71 480 20 530 20 600 c 256
30 600 m 256
 30 535 79 490 139 490 c 256
 199 490 248 535 248 600 c 256
 248 665 199 710 139 710 c 256
 79 710 30 665 30 600 c 256
EndSplineSet
EndChar

StartChar: plusminus
Encoding: 177 177 113
GlifName: plusminus
Width: 610
VWidth: 0
Flags: HMW
LayerCount: 2
Fore
SplineSet
65 0 m 257
 65 10 l 257
 545 10 l 257
 545 0 l 257
 65 0 l 257
65 380 m 257
 65 390 l 257
 545 390 l 257
 545 380 l 257
 65 380 l 257
300 620 m 257
 310 620 l 257
 310 150 l 257
 300 150 l 257
 300 620 l 257
EndSplineSet
EndChar

StartChar: uni00B2
Encoding: 178 178 114
GlifName: uni00B_2
Width: 332
VWidth: 0
Flags: HMW
LayerCount: 2
Fore
SplineSet
30 282 m 257
 222 483 l 258
 251 514 279 544 279 594 c 256
 279 641 250 703 172 703 c 256
 100 703 54 643 54 558 c 257
 48 558 l 257
 48 647 97 709 172 709 c 256
 252 709 285 644 285 594 c 256
 285 545 257 510 227 479 c 258
 45 288 l 257
 302 288 l 257
 302 282 l 257
 30 282 l 257
EndSplineSet
EndChar

StartChar: uni00B3
Encoding: 179 179 115
GlifName: uni00B_3
Width: 308
VWidth: 0
Flags: HMW
LayerCount: 2
Fore
SplineSet
140 497 m 257
 140 502 l 257
 194 502 265 538 265 600 c 256
 265 650 228 700 161 700 c 256
 96 700 54 657 54 596 c 257
 48 596 l 257
 48 661 92 706 161 706 c 256
 233 706 271 653 271 600 c 256
 271 535 203 497 140 497 c 257
158 274 m 256
 77 274 30 326 30 391 c 257
 36 391 l 257
 36 327 80 280 158 280 c 256
 230 280 277 324 277 385 c 256
 277 460 194 496 140 496 c 257
 140 501 l 257
 203 501 283 462 283 385 c 256
 283 320 233 274 158 274 c 256
EndSplineSet
EndChar

StartChar: acute
Encoding: 180 180 116
GlifName: acute
Width: 353
VWidth: 0
Flags: HMW
LayerCount: 2
Fore
SplineSet
253 692 m 257
 80 535 l 257
 75 540 l 257
 245 700 l 257
 253 692 l 257
EndSplineSet
EndChar

StartChar: mu
Encoding: 181 181 117
GlifName: mu
Width: 475
VWidth: 0
Flags: HMW
LayerCount: 2
Fore
SplineSet
380 0 m 257
 380 460 l 257
 390 460 l 257
 390 0 l 257
 380 0 l 257
95 150 m 258
 95 59 128 0 218 0 c 256
 309 0 380 85 380 180 c 257
 385 180 l 257
 385 71 313 -10 218 -10 c 256
 123 -10 85 51 85 150 c 258
 85 460 l 257
 95 460 l 257
 95 150 l 258
85 460 m 257
 95 460 l 257
 95 -320 l 257
 85 -320 l 257
 85 460 l 257
EndSplineSet
EndChar

StartChar: paragraph
Encoding: 182 182 118
GlifName: paragraph
Width: 448
VWidth: 0
Flags: HMW
LayerCount: 2
Fore
SplineSet
288 690 m 257
 288 700 l 257
 388 700 l 257
 388 690 l 257
 288 690 l 257
378 700 m 257
 388 700 l 257
 388 -220 l 257
 378 -220 l 257
 378 700 l 257
288 700 m 257
 298 700 l 257
 298 -220 l 257
 288 -220 l 257
 288 700 l 257
288 270 m 257
 163 270 60 346 60 485 c 256
 60 624 163 700 288 700 c 257
 288 270 l 257
EndSplineSet
EndChar

StartChar: periodcentered
Encoding: 183 183 119
GlifName: periodcentered
Width: 242
VWidth: 0
Flags: HMW
LayerCount: 2
Fore
SplineSet
110 221 m 256
 110 228 115 232 121 232 c 256
 127 232 132 228 132 221 c 256
 132 214 127 210 121 210 c 256
 115 210 110 214 110 221 c 256
EndSplineSet
EndChar

StartChar: uni00B9
Encoding: 185 185 120
GlifName: uni00B_9
Width: 470
VWidth: 0
Flags: HMW
LayerCount: 2
Fore
SplineSet
143 666 m 257
 143 673 l 257
 251 697 l 257
 251 274 l 257
 245 274 l 257
 245 689 l 257
 143 666 l 257
EndSplineSet
EndChar

StartChar: cedilla
Encoding: 184 184 121
GlifName: cedilla
Width: 350
VWidth: 0
Flags: HMW
LayerCount: 2
Fore
SplineSet
176 0 m 257
 188 0 l 257
 132 -76 l 257
 158 -60 169 -52 202 -52 c 256
 235 -52 275 -77 275 -126 c 256
 275 -187 223 -220 168 -220 c 256
 131 -220 107 -210 79 -182 c 257
 86 -176 l 257
 114 -200 135 -210 168 -210 c 256
 215 -210 265 -182 265 -126 c 256
 265 -82 231 -62 202 -62 c 256
 172 -62 144 -72 121 -88 c 257
 176 0 l 257
EndSplineSet
EndChar

StartChar: questiondown
Encoding: 191 191 122
GlifName: questiondown
Width: 542
VWidth: 0
Flags: HMW
LayerCount: 2
Fore
SplineSet
90 180 m 256
 90 79 158 0 278 0 c 256
 370 0 424 44 468 113 c 257
 477 107 l 257
 431 37 377 -10 278 -10 c 256
 153 -10 80 71 80 180 c 256
 80 278 180 361 308 363 c 257
 307 530 l 257
 315 530 l 257
 320 355 l 257
 320 355 l 256
 190 355 90 276 90 180 c 256
328 699 m 256
 328 692 323 688 317 688 c 256
 311 688 306 692 306 699 c 256
 306 706 311 710 317 710 c 256
 323 710 328 706 328 699 c 256
EndSplineSet
EndChar

StartChar: multiply
Encoding: 215 215 123
GlifName: multiply
Width: 578
VWidth: 0
Flags: HMW
LayerCount: 2
Fore
SplineSet
88 46 m 257
 81 53 l 257
 283 254 l 257
 80 456 l 257
 87 463 l 257
 289 260 l 257
 491 463 l 257
 498 456 l 257
 295 254 l 257
 497 53 l 257
 490 46 l 257
 289 248 l 257
 88 46 l 257
EndSplineSet
EndChar

StartChar: Oslash
Encoding: 216 216 124
GlifName: O_slash
Width: 790
VWidth: 0
Flags: HMW
LayerCount: 2
Fore
SplineSet
61 350 m 256
 61 149 196 3 387 3 c 256
 578 3 713 149 713 350 c 256
 713 551 578 697 387 697 c 256
 196 697 61 551 61 350 c 256
50 350 m 256
 50 559 193 708 387 708 c 256
 581 708 724 559 724 350 c 256
 724 141 581 -8 387 -8 c 256
 193 -8 50 141 50 350 c 256
712 733 m 257
 723 727 l 257
 74 -33 l 257
 64 -27 l 257
 712 733 l 257
EndSplineSet
EndChar

StartChar: Thorn
Encoding: 222 222 125
GlifName: T_horn
Width: 520
VWidth: 0
Flags: HMW
LayerCount: 2
Fore
SplineSet
80 700 m 257
 90 700 l 257
 90 0 l 257
 80 0 l 257
 80 700 l 257
84 550 m 257
 84 560 l 257
 240 560 l 258
 375 560 478 479 478 350 c 256
 478 221 375 140 240 140 c 258
 84 140 l 257
 84 150 l 257
 240 150 l 258
 365 150 467 234 467 350 c 256
 467 476 365 550 240 550 c 258
 84 550 l 257
EndSplineSet
EndChar

StartChar: divide
Encoding: 247 247 126
GlifName: divide
Width: 623
VWidth: 0
Flags: HMW
LayerCount: 2
Fore
SplineSet
299 451 m 256
 299 458 304 462 310 462 c 256
 316 462 321 458 321 451 c 256
 321 444 316 440 310 440 c 256
 304 440 299 444 299 451 c 256
299 31 m 256
 299 38 304 42 310 42 c 256
 316 42 321 38 321 31 c 256
 321 24 316 20 310 20 c 256
 304 20 299 24 299 31 c 256
60 235 m 257
 60 245 l 257
 560 245 l 257
 560 235 l 257
 60 235 l 257
EndSplineSet
EndChar

StartChar: oslash
Encoding: 248 248 127
GlifName: oslash
Width: 546
VWidth: 0
Flags: HMW
LayerCount: 2
Fore
SplineSet
45 230 m 256
 45 369 146 470 278 470 c 256
 410 470 511 369 511 230 c 256
 511 91 410 -10 278 -10 c 256
 146 -10 45 91 45 230 c 256
55 230 m 256
 55 96 153 0 278 0 c 256
 403 0 501 96 501 230 c 256
 501 364 403 460 278 460 c 256
 153 460 55 364 55 230 c 256
458 493 m 257
 467 487 l 257
 77 -37 l 257
 68 -31 l 257
 458 493 l 257
EndSplineSet
EndChar

StartChar: circumflex
Encoding: 710 710 128
GlifName: circumflex
Width: 480
VWidth: 0
Flags: HMW
LayerCount: 2
Fore
SplineSet
240 718 m 257
 87 583 l 257
 80 590 l 257
 240 730 l 257
 400 590 l 257
 393 583 l 257
 240 718 l 257
EndSplineSet
EndChar

StartChar: ogonek
Encoding: 731 731 129
GlifName: ogonek
Width: 250
VWidth: 0
Flags: HMW
LayerCount: 2
Fore
SplineSet
210 -173 m 257
 217 -180 l 257
 202 -200 162 -220 119 -220 c 256
 55 -220 16 -189 16 -140 c 256
 16 -71 99 -26 169 10 c 257
 176 0 l 257
 108 -32 26 -83 26 -140 c 256
 26 -186 69 -210 119 -210 c 256
 159 -210 195 -191 210 -173 c 257
EndSplineSet
EndChar

StartChar: tilde
Encoding: 732 732 130
GlifName: tilde
Width: 530
VWidth: 0
Flags: HMW
LayerCount: 2
Fore
SplineSet
142 649 m 257
 142 678 159 707 204 707 c 256
 259 707 274 660 328 660 c 256
 357 660 369 676 384 708 c 257
 393 705 l 257
 377 668 357 652 327 652 c 256
 272 652 251 699 206 699 c 256
 165 699 151 673 151 648 c 257
 142 649 l 257
EndSplineSet
EndChar

StartChar: ring
Encoding: 730 730 131
GlifName: ring
Width: 278
VWidth: 0
Flags: HMW
LayerCount: 2
Fore
SplineSet
37 785 m 256
 37 845 87 885 139 885 c 256
 191 885 241 845 241 785 c 256
 241 725 191 685 139 685 c 256
 87 685 37 725 37 785 c 256
47 785 m 256
 47 732 91 695 139 695 c 256
 187 695 231 732 231 785 c 256
 231 838 187 875 139 875 c 256
 91 875 47 838 47 785 c 256
EndSplineSet
EndChar

StartChar: dotaccent
Encoding: 729 729 132
GlifName: dotaccent
Width: 242
VWidth: 0
Flags: HMW
LayerCount: 2
Fore
SplineSet
110 751 m 256
 110 758 115 762 121 762 c 256
 127 762 132 758 132 751 c 256
 132 744 127 740 121 740 c 256
 115 740 110 744 110 751 c 256
EndSplineSet
EndChar

StartChar: uni2010
Encoding: 8208 8208 133
GlifName: uni2010
Width: 210
VWidth: 0
Flags: HMW
LayerCount: 2
Fore
SplineSet
5 265 m 257
 5 275 l 257
 205 275 l 257
 205 265 l 257
 5 265 l 257
EndSplineSet
EndChar

StartChar: endash
Encoding: 8211 8211 134
GlifName: endash
Width: 740
VWidth: 0
Flags: HMW
LayerCount: 2
Fore
SplineSet
70 265 m 257
 70 275 l 257
 670 275 l 257
 670 265 l 257
 70 265 l 257
EndSplineSet
EndChar

StartChar: figuredash
Encoding: 8210 8210 135
GlifName: figuredash
Width: 590
VWidth: 0
Flags: HMW
LayerCount: 2
Fore
SplineSet
70 265 m 257
 70 275 l 257
 520 275 l 257
 520 265 l 257
 70 265 l 257
EndSplineSet
EndChar

StartChar: emdash
Encoding: 8212 8212 136
GlifName: emdash
Width: 890
VWidth: 0
Flags: HMW
LayerCount: 2
Fore
SplineSet
70 265 m 257
 70 275 l 257
 820 275 l 257
 820 265 l 257
 70 265 l 257
EndSplineSet
EndChar

StartChar: minus
Encoding: 8722 8722 137
GlifName: minus
Width: 590
VWidth: 0
Flags: HMW
LayerCount: 2
Fore
SplineSet
70 265 m 257
 70 275 l 257
 520 275 l 257
 520 265 l 257
 70 265 l 257
EndSplineSet
EndChar

StartChar: quoteright
Encoding: 8217 8217 138
GlifName: quoteright
Width: 245
VWidth: 0
Flags: HMW
LayerCount: 2
Fore
SplineSet
173 700 m 257
 185 700 l 257
 90 470 l 257
 80 470 l 257
 173 700 l 257
EndSplineSet
EndChar

StartChar: quoteleft
Encoding: 8216 8216 139
GlifName: quoteleft
Width: 225
VWidth: 0
Flags: HMW
LayerCount: 2
Fore
SplineSet
72 470 m 257
 60 470 l 257
 155 700 l 257
 165 700 l 257
 72 470 l 257
EndSplineSet
EndChar

StartChar: quotesinglbase
Encoding: 8218 8218 140
GlifName: quotesinglbase
Width: 245
VWidth: 0
Flags: HMW
LayerCount: 2
Fore
SplineSet
153 80 m 261
 165 80 l 261
 70 -150 l 257
 60 -150 l 257
 153 80 l 261
EndSplineSet
EndChar

StartChar: quotedblleft
Encoding: 8220 8220 141
GlifName: quotedblleft
Width: 385
VWidth: 0
Flags: HMW
LayerCount: 2
Fore
SplineSet
92 470 m 257
 80 470 l 257
 175 700 l 257
 185 700 l 257
 92 470 l 257
232 470 m 257
 220 470 l 257
 315 700 l 257
 325 700 l 257
 232 470 l 257
EndSplineSet
EndChar

StartChar: quotedblright
Encoding: 8221 8221 142
GlifName: quotedblright
Width: 385
VWidth: 0
Flags: HMW
LayerCount: 2
Fore
SplineSet
153 700 m 257
 165 700 l 257
 70 470 l 257
 60 470 l 257
 153 700 l 257
293 700 m 257
 305 700 l 257
 210 470 l 257
 200 470 l 257
 293 700 l 257
EndSplineSet
EndChar

StartChar: perthousand
Encoding: 8240 8240 143
GlifName: perthousand
Width: 1071
VWidth: 0
Flags: HMW
LayerCount: 2
Fore
SplineSet
740 140 m 256
 740 224 798 290 888 290 c 256
 978 290 1036 224 1036 140 c 256
 1036 56 978 -10 888 -10 c 256
 798 -10 740 56 740 140 c 256
750 140 m 256
 750 64 803 -1 888 -1 c 256
 973 -1 1026 64 1026 140 c 256
 1026 216 973 280 888 280 c 256
 803 280 750 216 750 140 c 256
35 560 m 256
 35 644 93 710 183 710 c 256
 273 710 331 644 331 560 c 256
 331 476 273 410 183 410 c 256
 93 410 35 476 35 560 c 256
45 560 m 256
 45 484 98 419 183 419 c 256
 268 419 321 484 321 560 c 256
 321 636 268 700 183 700 c 256
 98 700 45 636 45 560 c 256
370 140 m 256
 370 224 428 290 518 290 c 256
 608 290 666 224 666 140 c 256
 666 56 608 -10 518 -10 c 256
 428 -10 370 56 370 140 c 256
380 140 m 256
 380 64 433 -1 518 -1 c 256
 603 -1 656 64 656 140 c 256
 656 216 603 280 518 280 c 256
 433 280 380 216 380 140 c 256
573 700 m 257
 585 700 l 257
 128 0 l 257
 116 0 l 257
 573 700 l 257
EndSplineSet
EndChar

StartChar: guilsinglleft
Encoding: 8249 8249 144
GlifName: guilsinglleft
Width: 325
VWidth: 0
Flags: HMW
LayerCount: 2
Fore
SplineSet
50 255 m 257
 255 27 l 257
 248 20 l 257
 40 255 l 257
 248 490 l 257
 255 483 l 257
 50 255 l 257
EndSplineSet
EndChar

StartChar: guilsinglright
Encoding: 8250 8250 145
GlifName: guilsinglright
Width: 350
VWidth: 0
Flags: HMW
LayerCount: 2
Fore
SplineSet
300 255 m 257
 95 483 l 257
 102 490 l 257
 310 255 l 257
 102 20 l 257
 95 27 l 257
 300 255 l 257
EndSplineSet
EndChar

StartChar: uni2031
Encoding: 8241 8241 146
GlifName: uni2031
Width: 1441
VWidth: 0
Flags: HMW
LayerCount: 2
Fore
SplineSet
1110 140 m 256
 1110 224 1168 290 1258 290 c 256
 1348 290 1406 224 1406 140 c 256
 1406 56 1348 -10 1258 -10 c 256
 1168 -10 1110 56 1110 140 c 256
1120 140 m 256
 1120 64 1173 -1 1258 -1 c 256
 1343 -1 1396 64 1396 140 c 256
 1396 216 1343 280 1258 280 c 256
 1173 280 1120 216 1120 140 c 256
740 140 m 256
 740 224 798 290 888 290 c 256
 978 290 1036 224 1036 140 c 256
 1036 56 978 -10 888 -10 c 256
 798 -10 740 56 740 140 c 256
750 140 m 256
 750 64 803 -1 888 -1 c 256
 973 -1 1026 64 1026 140 c 256
 1026 216 973 280 888 280 c 256
 803 280 750 216 750 140 c 256
35 560 m 256
 35 644 93 710 183 710 c 256
 273 710 331 644 331 560 c 256
 331 476 273 410 183 410 c 256
 93 410 35 476 35 560 c 256
45 560 m 256
 45 484 98 419 183 419 c 256
 268 419 321 484 321 560 c 256
 321 636 268 700 183 700 c 256
 98 700 45 636 45 560 c 256
370 140 m 256
 370 224 428 290 518 290 c 256
 608 290 666 224 666 140 c 256
 666 56 608 -10 518 -10 c 256
 428 -10 370 56 370 140 c 256
380 140 m 256
 380 64 433 -1 518 -1 c 256
 603 -1 656 64 656 140 c 256
 656 216 603 280 518 280 c 256
 433 280 380 216 380 140 c 256
573 700 m 257
 585 700 l 257
 128 0 l 257
 116 0 l 257
 573 700 l 257
EndSplineSet
EndChar

StartChar: uni203D
Encoding: 8253 8253 147
GlifName: uni203D_
Width: 557
VWidth: 0
Flags: HMW
LayerCount: 2
Fore
SplineSet
452 520 m 256
 452 621 384 700 264 700 c 256
 172 700 118 656 74 587 c 257
 65 593 l 257
 111 663 165 710 264 710 c 256
 389 710 462 629 462 520 c 256
 462 421 370 337 260 337 c 257
 252 345 l 257
 362 345 452 424 452 520 c 256
249 510 m 257
 261 510 l 257
 258 170 l 257
 252 170 l 257
 249 510 l 257
244 1 m 256
 244 8 249 12 255 12 c 256
 261 12 266 8 266 1 c 256
 266 -6 261 -10 255 -10 c 256
 249 -10 244 -6 244 1 c 256
EndSplineSet
EndChar

StartChar: Euro
Encoding: 8364 8364 148
GlifName: E_uro
Width: 700
VWidth: 0
Flags: HMW
LayerCount: 2
Fore
SplineSet
75 445 m 257
 75 455 l 257
 576 455 l 257
 576 445 l 257
 75 445 l 257
75 325 m 257
 75 335 l 257
 550 335 l 257
 550 325 l 257
 75 325 l 257
160 350 m 256
 160 145 270 0 430 0 c 256
 487 0 539 16 580 46 c 257
 580 31 l 257
 535 5 484 -10 430 -10 c 256
 256 -10 150 141 150 350 c 256
 150 559 256 710 430 710 c 256
 484 710 535 695 580 669 c 257
 580 654 l 257
 539 684 487 700 430 700 c 256
 260 700 160 555 160 350 c 256
EndSplineSet
EndChar

StartChar: fraction
Encoding: 8260 8260 149
GlifName: fraction
Width: 705
VWidth: 0
Flags: HMW
LayerCount: 2
Fore
SplineSet
633 700 m 257
 645 700 l 257
 72 0 l 257
 60 0 l 257
 633 700 l 257
EndSplineSet
EndChar

StartChar: onequarter
Encoding: 188 188 150
GlifName: onequarter
Width: 754
VWidth: 0
Flags: HMW
LayerCount: 2
Fore
SplineSet
671 700 m 257
 683 700 l 257
 110 0 l 257
 98 0 l 257
 671 700 l 257
21 666 m 257
 21 673 l 257
 129 697 l 257
 129 274 l 257
 123 274 l 257
 123 689 l 257
 21 666 l 257
401 84 m 257
 407 90 l 257
 627 90 l 256
 629 90 l 256
 697 90 l 257
 697 84 l 257
 401 84 l 257
408 84 m 257
 401 84 l 257
 631 420 l 257
 631 420 l 257
 631 0 l 257
 625 0 l 257
 625 85 l 256
 625 88 l 256
 625 400 l 257
 408 84 l 257
EndSplineSet
EndChar

StartChar: onehalf
Encoding: 189 189 151
GlifName: onehalf
Width: 819
VWidth: 0
Flags: HMW
LayerCount: 2
Fore
SplineSet
671 700 m 257
 683 700 l 257
 110 0 l 257
 98 0 l 257
 671 700 l 257
21 666 m 257
 21 673 l 257
 129 697 l 257
 129 274 l 257
 123 274 l 257
 123 689 l 257
 21 666 l 257
496 2 m 257
 688 202 l 258
 717 233 745 263 745 313 c 256
 745 360 716 423 638 423 c 256
 566 423 520 363 520 278 c 257
 514 278 l 257
 514 367 563 429 638 429 c 256
 718 429 752 363 752 313 c 256
 752 264 723 230 693 199 c 258
 511 8 l 257
 768 8 l 257
 768 2 l 257
 496 2 l 257
EndSplineSet
EndChar

StartChar: threequarters
Encoding: 190 190 152
GlifName: threequarters
Width: 820
VWidth: 0
Flags: HMW
LayerCount: 2
Fore
SplineSet
738 700 m 257
 750 700 l 257
 177 0 l 257
 165 0 l 257
 738 700 l 257
145 497 m 257
 145 502 l 257
 199 502 270 538 270 600 c 256
 270 650 233 700 166 700 c 256
 101 700 59 657 59 596 c 257
 53 596 l 257
 53 661 97 706 166 706 c 256
 238 706 276 653 276 600 c 256
 276 535 208 497 145 497 c 257
163 274 m 256
 82 274 35 326 35 391 c 257
 41 391 l 257
 41 327 85 280 163 280 c 256
 235 280 282 324 282 385 c 256
 282 460 199 496 145 496 c 257
 145 501 l 257
 208 501 288 462 288 385 c 256
 288 320 238 274 163 274 c 256
468 84 m 257
 474 90 l 257
 694 90 l 256
 696 90 l 256
 764 90 l 257
 764 84 l 257
 468 84 l 257
475 84 m 257
 468 84 l 257
 698 420 l 257
 698 420 l 257
 698 0 l 257
 692 0 l 257
 692 85 l 256
 692 88 l 256
 692 400 l 257
 475 84 l 257
EndSplineSet
EndChar

StartChar: uni2150
Encoding: 8528 8528 153
GlifName: uni2150
Width: 842
VWidth: 0
Flags: HMW
LayerCount: 2
Fore
SplineSet
621 700 m 257
 633 700 l 257
 60 0 l 257
 48 0 l 257
 621 700 l 257
21 666 m 257
 21 673 l 257
 129 697 l 257
 129 274 l 257
 123 274 l 257
 123 689 l 257
 21 666 l 257
523 414 m 257
 523 420 l 257
 805 420 l 257
 583 0 l 257
 576 0 l 257
 795 414 l 257
 523 414 l 257
EndSplineSet
EndChar

StartChar: uni2151
Encoding: 8529 8529 154
GlifName: uni2151
Width: 784
VWidth: 0
Flags: HMW
LayerCount: 2
Fore
SplineSet
621 700 m 257
 633 700 l 257
 60 0 l 257
 48 0 l 257
 621 700 l 257
21 666 m 257
 21 673 l 257
 129 697 l 257
 129 274 l 257
 123 274 l 257
 123 689 l 257
 21 666 l 257
724 290 m 256
 724 366 674 422 599 422 c 256
 524 422 474 366 474 290 c 256
 474 220 530 166 593 166 c 256
 677 166 724 226 724 290 c 256
562 2 m 257
 555 2 l 257
 700 209 l 257
 700 209 l 257
 675 178 638 160 593 160 c 256
 525 160 468 219 468 290 c 256
 468 370 518 428 599 428 c 256
 680 428 730 370 730 290 c 256
 730 256 712 217 696 195 c 258
 562 2 l 257
EndSplineSet
EndChar

StartChar: uni2152
Encoding: 8530 8530 155
GlifName: uni2152
Width: 1080
VWidth: 0
Flags: HMW
LayerCount: 2
Fore
SplineSet
621 700 m 257
 633 700 l 257
 60 0 l 257
 48 0 l 257
 621 700 l 257
21 666 m 257
 21 673 l 257
 129 697 l 257
 129 274 l 257
 123 274 l 257
 123 689 l 257
 21 666 l 257
433 393 m 257
 433 400 l 257
 541 424 l 257
 541 1 l 257
 535 1 l 257
 535 416 l 257
 433 393 l 257
750 210 m 256
 750 98 796 0 875 0 c 256
 954 0 1000 98 1000 210 c 256
 1000 322 954 420 875 420 c 256
 796 420 750 322 750 210 c 256
743 210 m 256
 743 329 792 426 875 426 c 256
 958 426 1007 329 1007 210 c 256
 1007 91 958 -6 875 -6 c 256
 792 -6 743 91 743 210 c 256
EndSplineSet
EndChar

StartChar: onethird
Encoding: 8531 8531 156
GlifName: onethird
Width: 755
VWidth: 0
Flags: HMW
LayerCount: 2
Fore
SplineSet
621 700 m 257
 633 700 l 257
 60 0 l 257
 48 0 l 257
 621 700 l 257
21 666 m 257
 21 673 l 257
 129 697 l 257
 129 274 l 257
 123 274 l 257
 123 689 l 257
 21 666 l 257
578 217 m 257
 578 222 l 257
 632 222 703 258 703 320 c 256
 703 370 666 420 599 420 c 256
 534 420 492 377 492 316 c 257
 486 316 l 257
 486 381 530 426 599 426 c 256
 671 426 709 373 709 320 c 256
 709 255 641 217 578 217 c 257
596 -6 m 256
 515 -6 468 46 468 111 c 257
 474 111 l 257
 474 47 518 0 596 0 c 256
 668 0 715 44 715 105 c 256
 715 180 632 216 578 216 c 257
 578 221 l 257
 641 221 721 182 721 105 c 256
 721 40 671 -6 596 -6 c 256
EndSplineSet
EndChar

StartChar: twothirds
Encoding: 8532 8532 157
GlifName: twothirds
Width: 882
VWidth: 0
Flags: HMW
LayerCount: 2
Fore
SplineSet
748 700 m 257
 760 700 l 257
 187 0 l 257
 175 0 l 257
 748 700 l 257
33 282 m 257
 225 483 l 258
 254 514 282 544 282 594 c 256
 282 641 253 703 175 703 c 256
 103 703 57 643 57 558 c 257
 51 558 l 257
 51 647 100 709 175 709 c 256
 255 709 288 644 288 594 c 256
 288 545 260 510 230 479 c 258
 48 288 l 257
 305 288 l 257
 305 282 l 257
 33 282 l 257
705 217 m 257
 705 222 l 257
 759 222 830 258 830 320 c 256
 830 370 793 420 726 420 c 256
 661 420 619 377 619 316 c 257
 613 316 l 257
 613 381 657 426 726 426 c 256
 798 426 836 373 836 320 c 256
 836 255 768 217 705 217 c 257
723 -6 m 256
 642 -6 595 46 595 111 c 257
 601 111 l 257
 601 47 645 0 723 0 c 256
 795 0 842 44 842 105 c 256
 842 180 759 216 705 216 c 257
 705 221 l 257
 768 221 848 182 848 105 c 256
 848 40 798 -6 723 -6 c 256
EndSplineSet
EndChar

StartChar: uni2155
Encoding: 8533 8533 158
GlifName: uni2155
Width: 744
VWidth: 0
Flags: HMW
LayerCount: 2
Fore
SplineSet
621 700 m 257
 633 700 l 257
 60 0 l 257
 48 0 l 257
 621 700 l 257
21 666 m 257
 21 673 l 257
 129 697 l 257
 129 274 l 257
 123 274 l 257
 123 689 l 257
 21 666 l 257
683 136 m 256
 683 41 623 -8 548 -8 c 256
 483 -8 445 26 423 80 c 257
 428 83 l 257
 450 30 485 -2 548 -2 c 256
 620 -2 677 45 677 136 c 256
 677 209 627 260 564 260 c 256
 512 260 472 236 441 194 c 257
 451 213 l 257
 469 240 511 266 564 266 c 256
 630 266 683 213 683 136 c 256
500 412 m 257
 451 213 l 257
 441 194 l 257
 496 418 l 257
 694 418 l 257
 694 412 l 257
 500 412 l 257
EndSplineSet
EndChar

StartChar: uni2156
Encoding: 8534 8534 159
GlifName: uni2156
Width: 871
VWidth: 0
Flags: HMW
LayerCount: 2
Fore
SplineSet
748 700 m 257
 760 700 l 257
 187 0 l 257
 175 0 l 257
 748 700 l 257
33 282 m 257
 225 483 l 258
 254 514 282 544 282 594 c 256
 282 641 253 703 175 703 c 256
 103 703 57 643 57 558 c 257
 51 558 l 257
 51 647 100 709 175 709 c 256
 255 709 288 644 288 594 c 256
 288 545 260 510 230 479 c 258
 48 288 l 257
 305 288 l 257
 305 282 l 257
 33 282 l 257
810 136 m 256
 810 41 750 -8 675 -8 c 256
 610 -8 572 26 550 80 c 257
 555 83 l 257
 577 30 612 -2 675 -2 c 256
 747 -2 804 45 804 136 c 256
 804 209 754 260 691 260 c 256
 639 260 599 236 568 194 c 257
 578 213 l 257
 596 240 638 266 691 266 c 256
 757 266 810 213 810 136 c 256
627 412 m 257
 578 213 l 257
 568 194 l 257
 623 418 l 257
 821 418 l 257
 821 412 l 257
 627 412 l 257
EndSplineSet
EndChar

StartChar: uni2157
Encoding: 8535 8535 160
GlifName: uni2157
Width: 831
VWidth: 0
Flags: HMW
LayerCount: 2
Fore
SplineSet
708 700 m 257
 720 700 l 257
 147 0 l 257
 135 0 l 257
 708 700 l 257
145 497 m 257
 145 502 l 257
 199 502 270 538 270 600 c 256
 270 650 233 700 166 700 c 256
 101 700 59 657 59 596 c 257
 53 596 l 257
 53 661 97 706 166 706 c 256
 238 706 276 653 276 600 c 256
 276 535 208 497 145 497 c 257
163 274 m 256
 82 274 35 326 35 391 c 257
 41 391 l 257
 41 327 85 280 163 280 c 256
 235 280 282 324 282 385 c 256
 282 460 199 496 145 496 c 257
 145 501 l 257
 208 501 288 462 288 385 c 256
 288 320 238 274 163 274 c 256
770 136 m 256
 770 41 710 -8 635 -8 c 256
 570 -8 532 26 510 80 c 257
 515 83 l 257
 537 30 572 -2 635 -2 c 256
 707 -2 764 45 764 136 c 256
 764 209 714 260 651 260 c 256
 599 260 559 236 528 194 c 257
 538 213 l 257
 556 240 598 266 651 266 c 256
 717 266 770 213 770 136 c 256
587 412 m 257
 538 213 l 257
 528 194 l 257
 583 418 l 257
 781 418 l 257
 781 412 l 257
 587 412 l 257
EndSplineSet
EndChar

StartChar: uni2158
Encoding: 8536 8536 161
GlifName: uni2158
Width: 866
VWidth: 0
Flags: HMW
LayerCount: 2
Fore
SplineSet
743 700 m 257
 755 700 l 257
 182 0 l 257
 170 0 l 257
 743 700 l 257
35 364 m 257
 41 370 l 257
 261 370 l 256
 263 370 l 256
 331 370 l 257
 331 364 l 257
 35 364 l 257
42 364 m 257
 35 364 l 257
 265 700 l 257
 266 700 l 257
 266 280 l 257
 259 280 l 257
 259 365 l 256
 259 368 l 256
 259 680 l 257
 42 364 l 257
805 136 m 256
 805 41 745 -8 670 -8 c 256
 605 -8 567 26 545 80 c 257
 550 83 l 257
 572 30 607 -2 670 -2 c 256
 742 -2 799 45 799 136 c 256
 799 209 749 260 686 260 c 256
 634 260 594 236 563 194 c 257
 573 213 l 257
 591 240 633 266 686 266 c 256
 752 266 805 213 805 136 c 256
622 412 m 257
 573 213 l 257
 563 194 l 257
 618 418 l 257
 816 418 l 257
 816 412 l 257
 622 412 l 257
EndSplineSet
EndChar

StartChar: uni2159
Encoding: 8537 8537 162
GlifName: uni2159
Width: 734
VWidth: 0
Flags: HMW
LayerCount: 2
Fore
SplineSet
621 700 m 257
 633 700 l 257
 60 0 l 257
 48 0 l 257
 621 700 l 257
21 666 m 257
 21 673 l 257
 129 697 l 257
 129 274 l 257
 123 274 l 257
 123 689 l 257
 21 666 l 257
434 130 m 256
 434 54 484 -2 559 -2 c 256
 634 -2 684 54 684 130 c 256
 684 200 629 254 566 254 c 256
 482 254 434 194 434 130 c 256
596 418 m 257
 604 418 l 257
 458 211 l 257
 458 211 l 257
 483 242 521 260 566 260 c 256
 634 260 690 201 690 130 c 256
 690 50 640 -8 559 -8 c 256
 478 -8 428 50 428 130 c 256
 428 164 446 203 462 225 c 258
 596 418 l 257
EndSplineSet
EndChar

StartChar: uni215A
Encoding: 8538 8538 163
GlifName: uni215A_
Width: 856
VWidth: 0
Flags: HMW
LayerCount: 2
Fore
SplineSet
743 700 m 257
 755 700 l 257
 182 0 l 257
 170 0 l 257
 743 700 l 257
295 416 m 256
 295 321 235 272 160 272 c 256
 95 272 57 306 35 360 c 257
 40 363 l 257
 62 310 97 278 160 278 c 256
 232 278 289 325 289 416 c 256
 289 489 239 540 176 540 c 256
 124 540 84 516 53 474 c 257
 63 493 l 257
 81 520 123 546 176 546 c 256
 242 546 295 493 295 416 c 256
112 692 m 257
 63 493 l 257
 53 474 l 257
 108 698 l 257
 306 698 l 257
 306 692 l 257
 112 692 l 257
556 130 m 256
 556 54 606 -2 681 -2 c 256
 756 -2 806 54 806 130 c 256
 806 200 751 254 688 254 c 256
 604 254 556 194 556 130 c 256
718 418 m 257
 726 418 l 257
 580 211 l 257
 580 211 l 257
 605 242 643 260 688 260 c 256
 756 260 812 201 812 130 c 256
 812 50 762 -8 681 -8 c 256
 600 -8 550 50 550 130 c 256
 550 164 568 203 584 225 c 258
 718 418 l 257
EndSplineSet
EndChar

StartChar: oneeighth
Encoding: 8539 8539 164
GlifName: oneeighth
Width: 760
VWidth: 0
Flags: HMW
LayerCount: 2
Fore
SplineSet
621 700 m 257
 633 700 l 257
 60 0 l 257
 48 0 l 257
 621 700 l 257
21 666 m 257
 21 673 l 257
 129 697 l 257
 129 274 l 257
 123 274 l 257
 123 689 l 257
 21 666 l 257
485 325 m 256
 485 378 529 426 589 426 c 256
 649 426 693 378 693 325 c 256
 693 266 640 221 589 221 c 256
 538 221 485 266 485 325 c 256
491 325 m 256
 491 267 547 225 589 225 c 256
 631 225 687 267 687 325 c 256
 687 377 646 420 589 420 c 256
 532 420 491 377 491 325 c 256
473 111 m 256
 473 176 529 223 589 223 c 256
 649 223 705 176 705 111 c 256
 705 46 664 -6 589 -6 c 256
 514 -6 473 46 473 111 c 256
479 111 m 256
 479 47 520 0 589 0 c 256
 658 0 699 47 699 111 c 256
 699 175 643 219 589 219 c 256
 535 219 479 175 479 111 c 256
EndSplineSet
EndChar

StartChar: threeeighths
Encoding: 8540 8540 165
GlifName: threeeighths
Width: 847
VWidth: 0
Flags: HMW
LayerCount: 2
Fore
SplineSet
708 700 m 257
 720 700 l 257
 147 0 l 257
 135 0 l 257
 708 700 l 257
145 497 m 257
 145 502 l 257
 199 502 270 538 270 600 c 256
 270 650 233 700 166 700 c 256
 101 700 59 657 59 596 c 257
 53 596 l 257
 53 661 97 706 166 706 c 256
 238 706 276 653 276 600 c 256
 276 535 208 497 145 497 c 257
163 274 m 256
 82 274 35 326 35 391 c 257
 41 391 l 257
 41 327 85 280 163 280 c 256
 235 280 282 324 282 385 c 256
 282 460 199 496 145 496 c 257
 145 501 l 257
 208 501 288 462 288 385 c 256
 288 320 238 274 163 274 c 256
572 325 m 256
 572 378 616 426 676 426 c 256
 736 426 780 378 780 325 c 256
 780 266 727 221 676 221 c 256
 625 221 572 266 572 325 c 256
578 325 m 256
 578 267 634 225 676 225 c 256
 718 225 774 267 774 325 c 256
 774 377 733 420 676 420 c 256
 619 420 578 377 578 325 c 256
560 111 m 256
 560 176 616 223 676 223 c 256
 736 223 792 176 792 111 c 256
 792 46 751 -6 676 -6 c 256
 601 -6 560 46 560 111 c 256
566 111 m 256
 566 47 607 0 676 0 c 256
 745 0 786 47 786 111 c 256
 786 175 730 219 676 219 c 256
 622 219 566 175 566 111 c 256
EndSplineSet
EndChar

StartChar: fiveeighths
Encoding: 8541 8541 166
GlifName: fiveeighths
Width: 882
VWidth: 0
Flags: HMW
LayerCount: 2
Fore
SplineSet
743 700 m 257
 755 700 l 257
 182 0 l 257
 170 0 l 257
 743 700 l 257
295 416 m 256
 295 321 235 272 160 272 c 256
 95 272 57 306 35 360 c 257
 40 363 l 257
 62 310 97 278 160 278 c 256
 232 278 289 325 289 416 c 256
 289 489 239 540 176 540 c 256
 124 540 84 516 53 474 c 257
 63 493 l 257
 81 520 123 546 176 546 c 256
 242 546 295 493 295 416 c 256
112 692 m 257
 63 493 l 257
 53 474 l 257
 108 698 l 257
 306 698 l 257
 306 692 l 257
 112 692 l 257
607 325 m 256
 607 378 651 426 711 426 c 256
 771 426 815 378 815 325 c 256
 815 266 762 221 711 221 c 256
 660 221 607 266 607 325 c 256
613 325 m 256
 613 267 669 225 711 225 c 256
 753 225 809 267 809 325 c 256
 809 377 768 420 711 420 c 256
 654 420 613 377 613 325 c 256
595 111 m 256
 595 176 651 223 711 223 c 256
 771 223 827 176 827 111 c 256
 827 46 786 -6 711 -6 c 256
 636 -6 595 46 595 111 c 256
601 111 m 256
 601 47 642 0 711 0 c 256
 780 0 821 47 821 111 c 256
 821 175 765 219 711 219 c 256
 657 219 601 175 601 111 c 256
EndSplineSet
EndChar

StartChar: seveneighths
Encoding: 8542 8542 167
GlifName: seveneighths
Width: 772
VWidth: 0
Flags: HMW
LayerCount: 2
Fore
SplineSet
633 700 m 257
 645 700 l 257
 72 0 l 257
 60 0 l 257
 633 700 l 257
35 694 m 257
 35 700 l 257
 317 700 l 257
 95 280 l 257
 88 280 l 257
 307 694 l 257
 35 694 l 257
497 325 m 256
 497 378 541 426 601 426 c 256
 661 426 705 378 705 325 c 256
 705 266 652 221 601 221 c 256
 550 221 497 266 497 325 c 256
503 325 m 256
 503 267 559 225 601 225 c 256
 643 225 699 267 699 325 c 256
 699 377 658 420 601 420 c 256
 544 420 503 377 503 325 c 256
485 111 m 256
 485 176 541 223 601 223 c 256
 661 223 717 176 717 111 c 256
 717 46 676 -6 601 -6 c 256
 526 -6 485 46 485 111 c 256
491 111 m 256
 491 47 532 0 601 0 c 256
 670 0 711 47 711 111 c 256
 711 175 655 219 601 219 c 256
 547 219 491 175 491 111 c 256
EndSplineSet
EndChar

StartChar: uni2074
Encoding: 8308 8308 168
GlifName: uni2074
Width: 371
VWidth: 0
Flags: HMW
LayerCount: 2
Fore
SplineSet
35 364 m 257
 41 370 l 257
 261 370 l 256
 263 370 l 256
 331 370 l 257
 331 364 l 257
 35 364 l 257
42 364 m 257
 35 364 l 257
 265 700 l 257
 266 700 l 257
 266 280 l 257
 259 280 l 257
 259 365 l 256
 259 368 l 256
 259 680 l 257
 42 364 l 257
EndSplineSet
EndChar

StartChar: uni2075
Encoding: 8309 8309 169
GlifName: uni2075
Width: 341
VWidth: 0
Flags: HMW
LayerCount: 2
Fore
SplineSet
295 416 m 256
 295 321 235 272 160 272 c 256
 95 272 57 306 35 360 c 257
 40 363 l 257
 62 310 97 278 160 278 c 256
 232 278 289 325 289 416 c 256
 289 489 239 540 176 540 c 256
 124 540 84 516 53 474 c 257
 63 493 l 257
 81 520 123 546 176 546 c 256
 242 546 295 493 295 416 c 256
112 692 m 257
 63 493 l 257
 53 474 l 257
 108 698 l 257
 306 698 l 257
 306 692 l 257
 112 692 l 257
EndSplineSet
EndChar

StartChar: uni2076
Encoding: 8310 8310 170
GlifName: uni2076
Width: 332
VWidth: 0
Flags: HMW
LayerCount: 2
Fore
SplineSet
46 410 m 256
 46 334 96 278 171 278 c 256
 246 278 296 334 296 410 c 256
 296 480 241 534 178 534 c 256
 94 534 46 474 46 410 c 256
208 698 m 257
 216 698 l 257
 70 491 l 257
 70 491 l 257
 95 522 133 540 178 540 c 256
 246 540 302 481 302 410 c 256
 302 330 252 272 171 272 c 256
 90 272 40 330 40 410 c 256
 40 444 58 483 74 505 c 258
 208 698 l 257
EndSplineSet
EndChar

StartChar: uni2077
Encoding: 8311 8311 171
GlifName: uni2077
Width: 352
VWidth: 0
Flags: HMW
LayerCount: 2
Fore
SplineSet
35 694 m 257
 35 700 l 257
 317 700 l 257
 95 280 l 257
 88 280 l 257
 307 694 l 257
 35 694 l 257
EndSplineSet
EndChar

StartChar: uni2078
Encoding: 8312 8312 172
GlifName: uni2078
Width: 302
VWidth: 0
Flags: HMW
LayerCount: 2
Fore
SplineSet
47 605 m 256
 47 658 91 706 151 706 c 256
 211 706 255 658 255 605 c 256
 255 546 202 501 151 501 c 256
 100 501 47 546 47 605 c 256
53 605 m 256
 53 547 109 505 151 505 c 256
 193 505 249 547 249 605 c 256
 249 657 208 700 151 700 c 256
 94 700 53 657 53 605 c 256
35 391 m 256
 35 456 91 503 151 503 c 256
 211 503 267 456 267 391 c 256
 267 326 226 274 151 274 c 256
 76 274 35 326 35 391 c 256
41 391 m 256
 41 327 82 280 151 280 c 256
 220 280 261 327 261 391 c 256
 261 455 205 499 151 499 c 256
 97 499 41 455 41 391 c 256
EndSplineSet
EndChar

StartChar: uni2079
Encoding: 8313 8313 173
GlifName: uni2079
Width: 332
VWidth: 0
Flags: HMW
LayerCount: 2
Fore
SplineSet
286 570 m 256
 286 646 236 702 161 702 c 256
 86 702 36 646 36 570 c 256
 36 500 92 446 155 446 c 256
 239 446 286 506 286 570 c 256
124 282 m 257
 117 282 l 257
 262 489 l 257
 262 489 l 257
 237 458 200 440 155 440 c 256
 87 440 30 499 30 570 c 256
 30 650 80 708 161 708 c 256
 242 708 292 650 292 570 c 256
 292 536 274 497 258 475 c 258
 124 282 l 257
EndSplineSet
EndChar

StartChar: uni2070
Encoding: 8304 8304 174
GlifName: uni2070
Width: 324
VWidth: 0
Flags: HMW
LayerCount: 2
Fore
SplineSet
42 490 m 256
 42 378 88 280 167 280 c 256
 246 280 292 378 292 490 c 256
 292 602 246 700 167 700 c 256
 88 700 42 602 42 490 c 256
35 490 m 256
 35 609 84 706 167 706 c 256
 250 706 299 609 299 490 c 256
 299 371 250 274 167 274 c 256
 84 274 35 371 35 490 c 256
EndSplineSet
EndChar

StartChar: uni2080
Encoding: 8320 8320 175
GlifName: uni2080
Width: 334
VWidth: 0
Flags: HMW
LayerCount: 2
Fore
SplineSet
42 210 m 256
 42 98 88 0 167 0 c 256
 246 0 292 98 292 210 c 256
 292 322 246 420 167 420 c 256
 88 420 42 322 42 210 c 256
35 210 m 256
 35 329 84 426 167 426 c 256
 250 426 299 329 299 210 c 256
 299 91 250 -6 167 -6 c 256
 84 -6 35 91 35 210 c 256
EndSplineSet
EndChar

StartChar: uni2084
Encoding: 8324 8324 176
GlifName: uni2084
Width: 371
VWidth: 0
Flags: HMW
LayerCount: 2
Fore
SplineSet
35 84 m 257
 41 90 l 257
 261 90 l 256
 263 90 l 256
 331 90 l 257
 331 84 l 257
 35 84 l 257
42 84 m 257
 35 84 l 257
 265 420 l 257
 266 420 l 257
 266 0 l 257
 259 0 l 257
 259 85 l 256
 259 88 l 256
 259 400 l 257
 42 84 l 257
EndSplineSet
EndChar

StartChar: uni2085
Encoding: 8325 8325 177
GlifName: uni2085
Width: 341
VWidth: 0
Flags: HMW
LayerCount: 2
Fore
SplineSet
295 136 m 256
 295 41 235 -8 160 -8 c 256
 95 -8 57 26 35 80 c 257
 40 83 l 257
 62 30 97 -2 160 -2 c 256
 232 -2 289 45 289 136 c 256
 289 209 239 260 176 260 c 256
 124 260 84 236 53 194 c 257
 63 213 l 257
 81 240 123 266 176 266 c 256
 242 266 295 213 295 136 c 256
112 412 m 257
 63 213 l 257
 53 194 l 257
 108 418 l 257
 306 418 l 257
 306 412 l 257
 112 412 l 257
EndSplineSet
EndChar

StartChar: uni2086
Encoding: 8326 8326 178
GlifName: uni2086
Width: 332
VWidth: 0
Flags: HMW
LayerCount: 2
Fore
SplineSet
46 130 m 256
 46 54 96 -2 171 -2 c 256
 246 -2 296 54 296 130 c 256
 296 200 241 254 178 254 c 256
 94 254 46 194 46 130 c 256
208 418 m 257
 216 418 l 257
 70 211 l 257
 70 211 l 257
 95 242 133 260 178 260 c 256
 246 260 302 201 302 130 c 256
 302 50 252 -8 171 -8 c 256
 90 -8 40 50 40 130 c 256
 40 164 58 203 74 225 c 258
 208 418 l 257
EndSplineSet
EndChar

StartChar: uni2087
Encoding: 8327 8327 179
GlifName: uni2087
Width: 352
VWidth: 0
Flags: HMW
LayerCount: 2
Fore
SplineSet
35 414 m 257
 35 420 l 257
 317 420 l 257
 95 0 l 257
 88 0 l 257
 307 414 l 257
 35 414 l 257
EndSplineSet
EndChar

StartChar: uni2088
Encoding: 8328 8328 180
GlifName: uni2088
Width: 302
VWidth: 0
Flags: HMW
LayerCount: 2
Fore
SplineSet
47 325 m 256
 47 378 91 426 151 426 c 256
 211 426 255 378 255 325 c 256
 255 266 202 221 151 221 c 256
 100 221 47 266 47 325 c 256
53 325 m 256
 53 267 109 225 151 225 c 256
 193 225 249 267 249 325 c 256
 249 377 208 420 151 420 c 256
 94 420 53 377 53 325 c 256
35 111 m 256
 35 176 91 223 151 223 c 256
 211 223 267 176 267 111 c 256
 267 46 226 -6 151 -6 c 256
 76 -6 35 46 35 111 c 256
41 111 m 256
 41 47 82 0 151 0 c 256
 220 0 261 47 261 111 c 256
 261 175 205 219 151 219 c 256
 97 219 41 175 41 111 c 256
EndSplineSet
EndChar

StartChar: uni2089
Encoding: 8329 8329 181
GlifName: uni2089
Width: 332
VWidth: 0
Flags: HMW
LayerCount: 2
Fore
SplineSet
286 290 m 256
 286 366 236 422 161 422 c 256
 86 422 36 366 36 290 c 256
 36 220 92 166 155 166 c 256
 239 166 286 226 286 290 c 256
124 2 m 257
 117 2 l 257
 262 209 l 257
 262 209 l 257
 237 178 200 160 155 160 c 256
 87 160 30 219 30 290 c 256
 30 370 80 428 161 428 c 256
 242 428 292 370 292 290 c 256
 292 256 274 217 258 195 c 258
 124 2 l 257
EndSplineSet
EndChar

StartChar: uni2081
Encoding: 8321 8321 182
GlifName: uni2081
Width: 288
VWidth: 0
Flags: HMW
LayerCount: 2
Fore
SplineSet
95 393 m 257
 95 400 l 257
 203 424 l 257
 203 1 l 257
 197 1 l 257
 197 416 l 257
 95 393 l 257
EndSplineSet
EndChar

StartChar: uni2082
Encoding: 8322 8322 183
GlifName: uni2082
Width: 332
VWidth: 0
Flags: HMW
LayerCount: 2
Fore
SplineSet
30 2 m 257
 222 203 l 258
 251 234 279 264 279 314 c 256
 279 361 250 423 172 423 c 256
 100 423 54 363 54 278 c 257
 48 278 l 257
 48 367 97 429 172 429 c 256
 252 429 285 364 285 314 c 256
 285 265 257 230 227 199 c 258
 45 8 l 257
 302 8 l 257
 302 2 l 257
 30 2 l 257
EndSplineSet
EndChar

StartChar: uni2083
Encoding: 8323 8323 184
GlifName: uni2083
Width: 318
VWidth: 0
Flags: HMW
LayerCount: 2
Fore
SplineSet
140 217 m 257
 140 222 l 257
 194 222 265 258 265 320 c 256
 265 370 228 420 161 420 c 256
 96 420 54 377 54 316 c 257
 48 316 l 257
 48 381 92 426 161 426 c 256
 233 426 271 373 271 320 c 256
 271 255 203 217 140 217 c 257
158 -6 m 256
 77 -6 30 46 30 111 c 257
 36 111 l 257
 36 47 80 0 158 0 c 256
 230 0 277 44 277 105 c 256
 277 180 194 216 140 216 c 257
 140 221 l 257
 203 221 283 182 283 105 c 256
 283 40 233 -6 158 -6 c 256
EndSplineSet
EndChar

StartChar: Agrave
Encoding: 192 192 185
GlifName: A_grave
Width: 600
VWidth: 0
Flags: HMW
LayerCount: 2
Fore
SplineSet
127 272 m 257
 127 282 l 257
 472 282 l 257
 472 272 l 257
 127 272 l 257
300 688 m 257
 136 277 l 257
 135 273 l 257
 27 0 l 257
 15 0 l 257
 300 715 l 257
 585 0 l 257
 573 0 l 257
 466 273 l 257
 465 276 l 257
 300 688 l 257
164 932 m 257
 172 940 l 257
 342 780 l 257
 338 775 l 257
 164 932 l 257
EndSplineSet
EndChar

StartChar: Aacute
Encoding: 193 193 186
GlifName: A_acute
Width: 600
VWidth: 0
Flags: HMW
LayerCount: 2
Fore
SplineSet
127 272 m 257
 127 282 l 257
 472 282 l 257
 472 272 l 257
 127 272 l 257
300 688 m 257
 136 277 l 257
 135 273 l 257
 27 0 l 257
 15 0 l 257
 300 715 l 257
 585 0 l 257
 573 0 l 257
 466 273 l 257
 465 276 l 257
 300 688 l 257
436 932 m 257
 262 775 l 257
 258 780 l 257
 428 940 l 257
 436 932 l 257
EndSplineSet
EndChar

StartChar: Acircumflex
Encoding: 194 194 187
GlifName: A_circumflex
Width: 600
VWidth: 0
Flags: HMW
LayerCount: 2
Fore
SplineSet
127 272 m 257
 127 282 l 257
 472 282 l 257
 472 272 l 257
 127 272 l 257
300 688 m 257
 136 277 l 257
 135 273 l 257
 27 0 l 257
 15 0 l 257
 300 715 l 257
 585 0 l 257
 573 0 l 257
 466 273 l 257
 465 276 l 257
 300 688 l 257
300 910 m 257
 147 775 l 257
 140 782 l 257
 300 922 l 257
 460 782 l 257
 453 775 l 257
 300 910 l 257
EndSplineSet
EndChar

StartChar: Atilde
Encoding: 195 195 188
GlifName: A_tilde
Width: 600
VWidth: 0
Flags: HMW
LayerCount: 2
Fore
SplineSet
127 272 m 257
 127 282 l 257
 472 282 l 257
 472 272 l 257
 127 272 l 257
300 688 m 257
 136 277 l 257
 135 273 l 257
 27 0 l 257
 15 0 l 257
 300 715 l 257
 585 0 l 257
 573 0 l 257
 466 273 l 257
 465 276 l 257
 300 688 l 257
174 796 m 257
 174 825 191 854 236 854 c 256
 291 854 306 807 360 807 c 256
 389 807 401 823 416 855 c 257
 426 852 l 257
 410 815 390 799 360 799 c 256
 305 799 283 846 238 846 c 256
 197 846 184 820 184 795 c 257
 174 796 l 257
EndSplineSet
EndChar

StartChar: Adieresis
Encoding: 196 196 189
GlifName: A_dieresis
Width: 600
VWidth: 0
Flags: HMW
LayerCount: 2
Fore
SplineSet
127 272 m 257
 127 282 l 257
 472 282 l 257
 472 272 l 257
 127 272 l 257
300 688 m 257
 136 277 l 257
 135 273 l 257
 27 0 l 257
 15 0 l 257
 300 715 l 257
 585 0 l 257
 573 0 l 257
 466 273 l 257
 465 276 l 257
 300 688 l 257
389 806 m 256
 389 813 394 817 400 817 c 256
 406 817 411 813 411 806 c 256
 411 799 406 795 400 795 c 256
 394 795 389 799 389 806 c 256
189 806 m 256
 189 813 194 817 200 817 c 256
 206 817 211 813 211 806 c 256
 211 799 206 795 200 795 c 256
 194 795 189 799 189 806 c 256
EndSplineSet
EndChar

StartChar: Aring
Encoding: 197 197 190
GlifName: A_ring
Width: 600
VWidth: 0
Flags: HMW
LayerCount: 2
Fore
SplineSet
127 272 m 257
 127 282 l 257
 472 282 l 257
 472 272 l 257
 127 272 l 257
300 688 m 257
 136 277 l 257
 135 273 l 257
 27 0 l 257
 15 0 l 257
 300 715 l 257
 585 0 l 257
 573 0 l 257
 466 273 l 257
 465 276 l 257
 300 688 l 257
198 808 m 256
 198 868 248 908 300 908 c 256
 352 908 402 868 402 808 c 256
 402 748 352 708 300 708 c 256
 248 708 198 748 198 808 c 256
208 808 m 256
 208 755 252 718 300 718 c 256
 348 718 392 755 392 808 c 256
 392 861 348 898 300 898 c 256
 252 898 208 861 208 808 c 256
EndSplineSet
EndChar

StartChar: AE
Encoding: 198 198 191
GlifName: A_E_
Width: 896
VWidth: 0
Flags: HMW
LayerCount: 2
Fore
SplineSet
207 280 m 257
 207 290 l 257
 497 290 l 257
 497 280 l 257
 207 280 l 257
485 700 m 257
 498 700 l 257
 18 0 l 257
 5 0 l 257
 485 700 l 257
497 0 m 257
 497 10 l 257
 816 10 l 257
 816 0 l 257
 497 0 l 257
500 690 m 257
 485 700 l 257
 816 700 l 257
 816 690 l 257
 500 690 l 257
497 384 m 257
 497 394 l 257
 796 394 l 257
 796 384 l 257
 497 384 l 257
490 700 m 257
 501 700 l 257
 501 0 l 257
 490 0 l 257
 490 700 l 257
EndSplineSet
EndChar

StartChar: Ccedilla
Encoding: 199 199 192
GlifName: C_cedilla
Width: 685
VWidth: 0
Flags: HMW
LayerCount: 2
Fore
SplineSet
62 350 m 256
 62 150 193 4 380 4 c 256
 479 4 547 31 605 88 c 257
 605 72 l 257
 546 20 482 -8 380 -8 c 256
 186 -8 50 141 50 350 c 256
 50 559 186 708 380 708 c 256
 482 708 546 680 605 628 c 257
 605 613 l 257
 549 669 474 696 380 696 c 256
 194 696 62 553 62 350 c 256
374 -1 m 257
 386 -1 l 257
 330 -77 l 257
 356 -61 367 -53 400 -53 c 256
 433 -53 473 -78 473 -127 c 256
 473 -188 421 -221 366 -221 c 256
 329 -221 305 -211 277 -183 c 257
 284 -177 l 257
 312 -201 333 -211 366 -211 c 256
 413 -211 463 -183 463 -127 c 256
 463 -83 429 -63 400 -63 c 256
 370 -63 342 -73 319 -89 c 257
 374 -1 l 257
EndSplineSet
EndChar

StartChar: Egrave
Encoding: 200 200 193
GlifName: E_grave
Width: 510
VWidth: 0
Flags: HMW
LayerCount: 2
Fore
SplineSet
92 0 m 257
 92 10 l 257
 430 10 l 257
 430 0 l 257
 92 0 l 257
92 690 m 257
 92 700 l 257
 430 700 l 257
 430 690 l 257
 92 690 l 257
92 384 m 257
 92 394 l 257
 410 394 l 257
 410 384 l 257
 92 384 l 257
90 700 m 257
 101 700 l 257
 101 0 l 257
 90 0 l 257
 90 700 l 257
104 925 m 257
 112 933 l 257
 282 773 l 257
 278 768 l 257
 104 925 l 257
EndSplineSet
EndChar

StartChar: Eacute
Encoding: 201 201 194
GlifName: E_acute
Width: 510
VWidth: 0
Flags: HMW
LayerCount: 2
Fore
SplineSet
92 0 m 257
 92 10 l 257
 430 10 l 257
 430 0 l 257
 92 0 l 257
92 690 m 257
 92 700 l 257
 430 700 l 257
 430 690 l 257
 92 690 l 257
92 384 m 257
 92 394 l 257
 410 394 l 257
 410 384 l 257
 92 384 l 257
90 700 m 257
 101 700 l 257
 101 0 l 257
 90 0 l 257
 90 700 l 257
416 925 m 257
 242 768 l 257
 238 773 l 257
 408 933 l 257
 416 925 l 257
EndSplineSet
EndChar

StartChar: Ecircumflex
Encoding: 202 202 195
GlifName: E_circumflex
Width: 510
VWidth: 0
Flags: HMW
LayerCount: 2
Fore
SplineSet
92 0 m 257
 92 10 l 257
 430 10 l 257
 430 0 l 257
 92 0 l 257
92 690 m 257
 92 700 l 257
 430 700 l 257
 430 690 l 257
 92 690 l 257
92 384 m 257
 92 394 l 257
 410 394 l 257
 410 384 l 257
 92 384 l 257
90 700 m 257
 101 700 l 257
 101 0 l 257
 90 0 l 257
 90 700 l 257
260 903 m 257
 107 768 l 257
 100 775 l 257
 260 915 l 257
 420 775 l 257
 413 768 l 257
 260 903 l 257
EndSplineSet
EndChar

StartChar: Edieresis
Encoding: 203 203 196
GlifName: E_dieresis
Width: 510
VWidth: 0
Flags: HMW
LayerCount: 2
Fore
SplineSet
92 0 m 257
 92 10 l 257
 430 10 l 257
 430 0 l 257
 92 0 l 257
92 690 m 257
 92 700 l 257
 430 700 l 257
 430 690 l 257
 92 690 l 257
92 384 m 257
 92 394 l 257
 410 394 l 257
 410 384 l 257
 92 384 l 257
90 700 m 257
 101 700 l 257
 101 0 l 257
 90 0 l 257
 90 700 l 257
349 799 m 256
 349 806 354 810 360 810 c 256
 366 810 371 806 371 799 c 256
 371 792 366 788 360 788 c 256
 354 788 349 792 349 799 c 256
149 799 m 256
 149 806 154 810 160 810 c 256
 166 810 171 806 171 799 c 256
 171 792 166 788 160 788 c 256
 154 788 149 792 149 799 c 256
EndSplineSet
EndChar

StartChar: Igrave
Encoding: 204 204 197
GlifName: I_grave
Width: 180
VWidth: 0
Flags: HMW
LayerCount: 2
Fore
SplineSet
85 700 m 257
 95 700 l 257
 95 0 l 257
 85 0 l 257
 85 700 l 257
-66 925 m 257
 -58 933 l 257
 112 773 l 257
 108 768 l 257
 -66 925 l 257
EndSplineSet
EndChar

StartChar: Iacute
Encoding: 205 205 198
GlifName: I_acute
Width: 180
VWidth: 0
Flags: HMW
LayerCount: 2
Fore
SplineSet
85 700 m 257
 95 700 l 257
 95 0 l 257
 85 0 l 257
 85 700 l 257
246 925 m 257
 72 768 l 257
 68 773 l 257
 238 933 l 257
 246 925 l 257
EndSplineSet
EndChar

StartChar: Icircumflex
Encoding: 206 206 199
GlifName: I_circumflex
Width: 180
VWidth: 0
Flags: HMW
LayerCount: 2
Fore
SplineSet
85 700 m 257
 95 700 l 257
 95 0 l 257
 85 0 l 257
 85 700 l 257
90 903 m 257
 -63 768 l 257
 -70 775 l 257
 90 915 l 257
 250 775 l 257
 243 768 l 257
 90 903 l 257
EndSplineSet
EndChar

StartChar: Idieresis
Encoding: 207 207 200
GlifName: I_dieresis
Width: 180
VWidth: 0
Flags: HMW
LayerCount: 2
Fore
SplineSet
85 700 m 257
 95 700 l 257
 95 0 l 257
 85 0 l 257
 85 700 l 257
149 799 m 256
 149 806 154 810 160 810 c 256
 166 810 171 806 171 799 c 256
 171 792 166 788 160 788 c 256
 154 788 149 792 149 799 c 256
9 799 m 256
 9 806 14 810 20 810 c 256
 26 810 31 806 31 799 c 256
 31 792 26 788 20 788 c 256
 14 788 9 792 9 799 c 256
EndSplineSet
EndChar

StartChar: Ntilde
Encoding: 209 209 201
GlifName: N_tilde
Width: 665
VWidth: 0
Flags: HMW
LayerCount: 2
Fore
SplineSet
584 700 m 257
 595 700 l 257
 595 -15 l 257
 61 678 l 257
 61 0 l 257
 50 0 l 257
 50 715 l 257
 584 17 l 257
 584 700 l 257
204.5 756 m 257
 204.5 785 221.5 814 266.5 814 c 256
 321.5 814 336.5 767 390.5 767 c 256
 419.5 767 431.5 783 446.5 815 c 257
 455.5 812 l 257
 439.5 775 419.5 759 389.5 759 c 256
 334.5 759 313.5 806 268.5 806 c 256
 227.5 806 213.5 780 213.5 755 c 257
 204.5 756 l 257
EndSplineSet
EndChar

StartChar: Eth
Encoding: 208 208 202
GlifName: E_th
Width: 680
VWidth: 0
Flags: HMW
LayerCount: 2
Fore
SplineSet
5 345 m 257
 5 355 l 257
 305 355 l 257
 305 345 l 257
 5 345 l 257
90 700 m 257
 101 700 l 257
 101 0 l 257
 90 0 l 257
 90 700 l 257
250 0 m 258
 95 0 l 257
 95 11 l 257
 250 11 l 258
 448 11 574 147 574 350 c 256
 574 553 448 689 250 689 c 258
 95 689 l 257
 95 700 l 257
 250 700 l 258
 454 700 585 559 585 350 c 256
 585 141 454 0 250 0 c 258
EndSplineSet
EndChar

StartChar: Ograve
Encoding: 210 210 203
GlifName: O_grave
Width: 774
VWidth: 0
Flags: HMW
LayerCount: 2
Fore
SplineSet
61 350 m 256
 61 149 196 3 387 3 c 256
 578 3 713 149 713 350 c 256
 713 551 578 697 387 697 c 256
 196 697 61 551 61 350 c 256
50 350 m 256
 50 559 193 708 387 708 c 256
 581 708 724 559 724 350 c 256
 724 141 581 -8 387 -8 c 256
 193 -8 50 141 50 350 c 256
252 925 m 257
 260 933 l 257
 430 773 l 257
 424 768 l 257
 252 925 l 257
EndSplineSet
EndChar

StartChar: Oacute
Encoding: 211 211 204
GlifName: O_acute
Width: 774
VWidth: 0
Flags: HMW
LayerCount: 2
Fore
SplineSet
61 350 m 256
 61 149 196 3 387 3 c 256
 578 3 713 149 713 350 c 256
 713 551 578 697 387 697 c 256
 196 697 61 551 61 350 c 256
50 350 m 256
 50 559 193 708 387 708 c 256
 581 708 724 559 724 350 c 256
 724 141 581 -8 387 -8 c 256
 193 -8 50 141 50 350 c 256
522 925 m 257
 350 768 l 257
 344 773 l 257
 514 933 l 257
 522 925 l 257
EndSplineSet
EndChar

StartChar: Ocircumflex
Encoding: 212 212 205
GlifName: O_circumflex
Width: 774
VWidth: 0
Flags: HMW
LayerCount: 2
Fore
SplineSet
61 350 m 256
 61 149 196 3 387 3 c 256
 578 3 713 149 713 350 c 256
 713 551 578 697 387 697 c 256
 196 697 61 551 61 350 c 256
50 350 m 256
 50 559 193 708 387 708 c 256
 581 708 724 559 724 350 c 256
 724 141 581 -8 387 -8 c 256
 193 -8 50 141 50 350 c 256
387 903 m 257
 234 768 l 257
 227 775 l 257
 387 915 l 257
 547 775 l 257
 540 768 l 257
 387 903 l 257
EndSplineSet
EndChar

StartChar: Otilde
Encoding: 213 213 206
GlifName: O_tilde
Width: 774
VWidth: 0
Flags: HMW
LayerCount: 2
Fore
SplineSet
61 350 m 256
 61 149 196 3 387 3 c 256
 578 3 713 149 713 350 c 256
 713 551 578 697 387 697 c 256
 196 697 61 551 61 350 c 256
50 350 m 256
 50 559 193 708 387 708 c 256
 581 708 724 559 724 350 c 256
 724 141 581 -8 387 -8 c 256
 193 -8 50 141 50 350 c 256
262 789 m 257
 262 818 279 847 324 847 c 256
 379 847 394 800 448 800 c 256
 477 800 489 816 504 848 c 257
 512 845 l 257
 496 808 476 792 446 792 c 256
 391 792 371 839 326 839 c 256
 285 839 270 813 270 788 c 257
 262 789 l 257
EndSplineSet
EndChar

StartChar: Odieresis
Encoding: 214 214 207
GlifName: O_dieresis
Width: 774
VWidth: 0
Flags: HMW
LayerCount: 2
Fore
SplineSet
61 350 m 256
 61 149 196 3 387 3 c 256
 578 3 713 149 713 350 c 256
 713 551 578 697 387 697 c 256
 196 697 61 551 61 350 c 256
50 350 m 256
 50 559 193 708 387 708 c 256
 581 708 724 559 724 350 c 256
 724 141 581 -8 387 -8 c 256
 193 -8 50 141 50 350 c 256
486 809 m 256
 486 816 491 820 497 820 c 256
 503 820 508 816 508 809 c 256
 508 802 503 798 497 798 c 256
 491 798 486 802 486 809 c 256
266 809 m 256
 266 816 271 820 277 820 c 256
 283 820 288 816 288 809 c 256
 288 802 283 798 277 798 c 256
 271 798 266 802 266 809 c 256
EndSplineSet
EndChar

StartChar: Ugrave
Encoding: 217 217 208
GlifName: U_grave
Width: 576
VWidth: 0
Flags: HMW
LayerCount: 2
Fore
SplineSet
85 700 m 257
 96 700 l 257
 96 220 l 258
 96 84 168 1 288 1 c 256
 408 1 480 84 480 220 c 258
 480 700 l 257
 491 700 l 257
 491 220 l 258
 491 81 423 -10 288 -10 c 256
 153 -10 85 81 85 220 c 258
 85 700 l 257
152 925 m 257
 160 933 l 257
 330 773 l 257
 326 768 l 257
 152 925 l 257
EndSplineSet
EndChar

StartChar: Uacute
Encoding: 218 218 209
GlifName: U_acute
Width: 576
VWidth: 0
Flags: HMW
LayerCount: 2
Fore
SplineSet
85 700 m 257
 96 700 l 257
 96 220 l 258
 96 84 168 1 288 1 c 256
 408 1 480 84 480 220 c 258
 480 700 l 257
 491 700 l 257
 491 220 l 258
 491 81 423 -10 288 -10 c 256
 153 -10 85 81 85 220 c 258
 85 700 l 257
424 925 m 257
 250 768 l 257
 246 773 l 257
 416 933 l 257
 424 925 l 257
EndSplineSet
EndChar

StartChar: Ucircumflex
Encoding: 219 219 210
GlifName: U_circumflex
Width: 576
VWidth: 0
Flags: HMW
LayerCount: 2
Fore
SplineSet
85 700 m 257
 96 700 l 257
 96 220 l 258
 96 84 168 1 288 1 c 256
 408 1 480 84 480 220 c 258
 480 700 l 257
 491 700 l 257
 491 220 l 258
 491 81 423 -10 288 -10 c 256
 153 -10 85 81 85 220 c 258
 85 700 l 257
288 903 m 257
 135 768 l 257
 128 775 l 257
 288 915 l 257
 448 775 l 257
 441 768 l 257
 288 903 l 257
EndSplineSet
EndChar

StartChar: Udieresis
Encoding: 220 220 211
GlifName: U_dieresis
Width: 576
VWidth: 0
Flags: HMW
LayerCount: 2
Fore
SplineSet
85 700 m 257
 96 700 l 257
 96 220 l 258
 96 84 168 1 288 1 c 256
 408 1 480 84 480 220 c 258
 480 700 l 257
 491 700 l 257
 491 220 l 258
 491 81 423 -10 288 -10 c 256
 153 -10 85 81 85 220 c 258
 85 700 l 257
367 779 m 256
 367 786 372 790 378 790 c 256
 384 790 389 786 389 779 c 256
 389 772 384 768 378 768 c 256
 372 768 367 772 367 779 c 256
187 779 m 256
 187 786 192 790 198 790 c 256
 204 790 209 786 209 779 c 256
 209 772 204 768 198 768 c 256
 192 768 187 772 187 779 c 256
EndSplineSet
EndChar

StartChar: Yacute
Encoding: 221 221 212
GlifName: Y_acute
Width: 507
VWidth: 0
Flags: HMW
LayerCount: 2
Fore
SplineSet
409 925 m 257
 236 768 l 257
 231 773 l 257
 401 933 l 257
 409 925 l 257
479 700 m 257
 492 700 l 257
 254 267 l 257
 254 0 l 257
 243 0 l 257
 243 266 l 257
 15 700 l 257
 28 700 l 257
 248 281 l 257
 479 700 l 257
EndSplineSet
EndChar

StartChar: agrave
Encoding: 224 224 213
GlifName: agrave
Width: 435
VWidth: 0
Flags: HMW
LayerCount: 2
Fore
SplineSet
50 135 m 256
 50 37 123 0 193 0 c 256
 283 0 355 74 355 160 c 257
 360 160 l 257
 360 71 295 -10 193 -10 c 256
 118 -10 40 31 40 135 c 256
 40 232 130 281 221 281 c 256
 299 281 337 253 358 235 c 257
 358 225 l 257
 334 247 289 271 221 271 c 256
 138 271 50 227 50 135 c 256
84 395 m 257
 77 403 l 257
 110 434 160 470 233 470 c 256
 323 470 365 409 365 320 c 258
 365 0 l 257
 355 0 l 257
 355 320 l 258
 355 406 316 460 233 460 c 256
 167 460 121 430 84 395 c 257
98 707 m 257
 106 715 l 257
 276 555 l 257
 270 550 l 257
 98 707 l 257
EndSplineSet
Substitution2: "alt a" agrave.alt
EndChar

StartChar: aacute
Encoding: 225 225 214
GlifName: aacute
Width: 435
VWidth: 0
Flags: HMW
LayerCount: 2
Fore
SplineSet
50 135 m 256
 50 37 123 0 193 0 c 256
 283 0 355 74 355 160 c 257
 360 160 l 257
 360 71 295 -10 193 -10 c 256
 118 -10 40 31 40 135 c 256
 40 232 130 281 221 281 c 256
 299 281 337 253 358 235 c 257
 358 225 l 257
 334 247 289 271 221 271 c 256
 138 271 50 227 50 135 c 256
84 395 m 257
 77 403 l 257
 110 434 160 470 233 470 c 256
 323 470 365 409 365 320 c 258
 365 0 l 257
 355 0 l 257
 355 320 l 258
 355 406 316 460 233 460 c 256
 167 460 121 430 84 395 c 257
348 707 m 257
 176 550 l 257
 170 555 l 257
 340 715 l 257
 348 707 l 257
EndSplineSet
Substitution2: "alt a" aacute.alt
EndChar

StartChar: acircumflex
Encoding: 226 226 215
GlifName: acircumflex
Width: 435
VWidth: 0
Flags: HMW
LayerCount: 2
Fore
SplineSet
50 135 m 256
 50 37 123 0 193 0 c 256
 283 0 355 74 355 160 c 257
 360 160 l 257
 360 71 295 -10 193 -10 c 256
 118 -10 40 31 40 135 c 256
 40 232 130 281 221 281 c 256
 299 281 337 253 358 235 c 257
 358 225 l 257
 334 247 289 271 221 271 c 256
 138 271 50 227 50 135 c 256
84 395 m 257
 77 403 l 257
 110 434 160 470 233 470 c 256
 323 470 365 409 365 320 c 258
 365 0 l 257
 355 0 l 257
 355 320 l 258
 355 406 316 460 233 460 c 256
 167 460 121 430 84 395 c 257
233 675 m 257
 80 540 l 257
 73 547 l 257
 233 687 l 257
 393 547 l 257
 386 540 l 257
 233 675 l 257
EndSplineSet
Substitution2: "alt a" acircumflex.alt
EndChar

StartChar: atilde
Encoding: 227 227 216
GlifName: atilde
Width: 435
VWidth: 0
Flags: HMW
LayerCount: 2
Fore
SplineSet
50 135 m 256
 50 37 123 0 193 0 c 256
 283 0 355 74 355 160 c 257
 360 160 l 257
 360 71 295 -10 193 -10 c 256
 118 -10 40 31 40 135 c 256
 40 232 130 281 221 281 c 256
 299 281 337 253 358 235 c 257
 358 225 l 257
 334 247 289 271 221 271 c 256
 138 271 50 227 50 135 c 256
84 395 m 257
 77 403 l 257
 110 434 160 470 233 470 c 256
 323 470 365 409 365 320 c 258
 365 0 l 257
 355 0 l 257
 355 320 l 258
 355 406 316 460 233 460 c 256
 167 460 121 430 84 395 c 257
98 581 m 257
 98 610 115 639 160 639 c 256
 215 639 230 592 284 592 c 256
 313 592 325 608 340 640 c 257
 348 637 l 257
 332 600 312 584 282 584 c 256
 227 584 207 631 162 631 c 256
 121 631 106 605 106 580 c 257
 98 581 l 257
EndSplineSet
Substitution2: "alt a" atilde.alt
EndChar

StartChar: adieresis
Encoding: 228 228 217
GlifName: adieresis
Width: 435
VWidth: 0
Flags: HMW
LayerCount: 2
Fore
SplineSet
50 135 m 256
 50 37 123 0 193 0 c 256
 283 0 355 74 355 160 c 257
 360 160 l 257
 360 71 295 -10 193 -10 c 256
 118 -10 40 31 40 135 c 256
 40 232 130 281 221 281 c 256
 299 281 337 253 358 235 c 257
 358 225 l 257
 334 247 289 271 221 271 c 256
 138 271 50 227 50 135 c 256
84 395 m 257
 77 403 l 257
 110 434 160 470 233 470 c 256
 323 470 365 409 365 320 c 258
 365 0 l 257
 355 0 l 257
 355 320 l 258
 355 406 316 460 233 460 c 256
 167 460 121 430 84 395 c 257
292 561 m 256
 292 568 297 572 303 572 c 256
 309 572 314 568 314 561 c 256
 314 554 309 550 303 550 c 256
 297 550 292 554 292 561 c 256
132 561 m 256
 132 568 137 572 143 572 c 256
 149 572 154 568 154 561 c 256
 154 554 149 550 143 550 c 256
 137 550 132 554 132 561 c 256
EndSplineSet
Substitution2: "alt a" adieresis.alt
EndChar

StartChar: aring
Encoding: 229 229 218
GlifName: aring
Width: 435
VWidth: 0
Flags: HMW
LayerCount: 2
Fore
SplineSet
50 135 m 256
 50 37 123 0 193 0 c 256
 283 0 355 74 355 160 c 257
 360 160 l 257
 360 71 295 -10 193 -10 c 256
 118 -10 40 31 40 135 c 256
 40 232 130 281 221 281 c 256
 299 281 337 253 358 235 c 257
 358 225 l 257
 334 247 289 271 221 271 c 256
 138 271 50 227 50 135 c 256
84 395 m 257
 77 403 l 257
 110 434 160 470 233 470 c 256
 323 470 365 409 365 320 c 258
 365 0 l 257
 355 0 l 257
 355 320 l 258
 355 406 316 460 233 460 c 256
 167 460 121 430 84 395 c 257
131 630 m 256
 131 690 181 730 233 730 c 256
 285 730 335 690 335 630 c 256
 335 570 285 530 233 530 c 256
 181 530 131 570 131 630 c 256
141 630 m 256
 141 577 185 540 233 540 c 256
 281 540 325 577 325 630 c 256
 325 683 281 720 233 720 c 256
 185 720 141 683 141 630 c 256
EndSplineSet
Substitution2: "alt a" aring.alt
EndChar

StartChar: germandbls
Encoding: 223 223 219
GlifName: germandbls
Width: 530
VWidth: 0
Flags: HMW
LayerCount: 2
Fore
SplineSet
252 0 m 257
 382 0 475 94 475 225 c 256
 475 378 342 443 232 443 c 257
 232 450 l 257
 387 450 485 354 485 225 c 256
 485 86 387 -10 252 -10 c 257
 252 0 l 257
232 445 m 257
 232 453 l 257
 342 453 435 490 435 606 c 256
 435 702 387 780 257 780 c 256
 157 780 90 702 90 606 c 258
 90 0 l 257
 80 0 l 257
 80 606 l 258
 80 715 152 790 257 790 c 256
 392 790 445 715 445 606 c 256
 445 507 387 445 232 445 c 257
EndSplineSet
EndChar

StartChar: ae
Encoding: 230 230 220
GlifName: ae
Width: 825
VWidth: 0
Flags: HMW
LayerCount: 2
Fore
SplineSet
50 132 m 256
 50 63 95 0 194 0 c 256
 282 0 355 81 355 167 c 257
 363 166 l 257
 363 77 293 -10 194 -10 c 256
 92 -10 40 54 40 132 c 256
 40 226 119 281 225 281 c 256
 303 281 344 248 358 235 c 257
 358 225 l 257
 340 243 293 271 225 271 c 256
 123 271 50 218 50 132 c 256
84 395 m 257
 77 403 l 257
 109 432 155 470 238 470 c 256
 323 470 362 404 362 330 c 258
 362 159 l 257
 355 159 l 257
 355 320 l 258
 355 393 325 460 235 460 c 256
 159 460 114 423 84 395 c 257
362 228 m 257
 362 238 l 257
 779 238 l 257
 785 228 l 257
 362 228 l 257
776 250 m 258
 776 384 669 460 579 460 c 256
 449 460 365 357 365 235 c 257
 365 235 l 257
 365 99 453 0 563 0 c 256
 680 0 731 52 771 113 c 257
 779 107 l 257
 733 37 682 -10 563 -10 c 256
 448 -10 355 91 355 230 c 256
 355 247 358 263 361 279 c 256
 380 392 458 470 583 470 c 256
 663 470 787 398 787 253 c 256
 787 245 786 236 785 228 c 257
 776 230 l 257
 776 250 l 258
EndSplineSet
EndChar

StartChar: ccedilla
Encoding: 231 231 221
GlifName: ccedilla
Width: 488
VWidth: 0
Flags: HMW
LayerCount: 2
Fore
SplineSet
50 230 m 256
 50 96 148 0 273 0 c 256
 347 0 407 37 428 61 c 257
 428 48 l 257
 406 23 346 -10 273 -10 c 256
 141 -10 40 91 40 230 c 256
 40 369 141 470 273 470 c 256
 346 470 406 436 428 412 c 257
 428 399 l 257
 407 423 347 460 273 460 c 256
 148 460 50 364 50 230 c 256
267 -3 m 257
 279 -3 l 257
 223 -79 l 257
 249 -63 260 -55 293 -55 c 256
 326 -55 366 -80 366 -129 c 256
 366 -190 314 -223 259 -223 c 256
 222 -223 198 -213 170 -185 c 257
 177 -179 l 257
 205 -203 226 -213 259 -213 c 256
 306 -213 356 -185 356 -129 c 256
 356 -85 322 -65 293 -65 c 256
 263 -65 235 -75 212 -91 c 257
 267 -3 l 257
EndSplineSet
EndChar

StartChar: egrave
Encoding: 232 232 222
GlifName: egrave
Width: 502
VWidth: 0
Flags: HMW
LayerCount: 2
Fore
SplineSet
52 228 m 257
 52 238 l 257
 446 238 l 257
 455 366 359 460 255 460 c 256
 153 460 55 376 55 232 c 257
 55 232 l 257
 55 100 141 0 250 0 c 256
 368 0 411 64 441 113 c 257
 449 107 l 257
 419 59 375 -10 250 -10 c 256
 135 -10 45 93 45 232 c 256
 45 259 48 284 55 308 c 256
 82 403 157 470 255 470 c 256
 360 470 457 379 457 254 c 256
 457 246 456 236 455 228 c 257
 52 228 l 257
110 687 m 257
 118 695 l 257
 288 535 l 257
 282 530 l 257
 110 687 l 257
EndSplineSet
EndChar

StartChar: eacute
Encoding: 233 233 223
GlifName: eacute
Width: 502
VWidth: 0
Flags: HMW
LayerCount: 2
Fore
SplineSet
52 228 m 257
 52 238 l 257
 446 238 l 257
 455 366 359 460 255 460 c 256
 153 460 55 376 55 232 c 257
 55 232 l 257
 55 100 141 0 250 0 c 256
 368 0 411 64 441 113 c 257
 449 107 l 257
 419 59 375 -10 250 -10 c 256
 135 -10 45 93 45 232 c 256
 45 259 48 284 55 308 c 256
 82 403 157 470 255 470 c 256
 360 470 457 379 457 254 c 256
 457 246 456 236 455 228 c 257
 52 228 l 257
400 687 m 257
 228 530 l 257
 222 535 l 257
 392 695 l 257
 400 687 l 257
EndSplineSet
EndChar

StartChar: ecircumflex
Encoding: 234 234 224
GlifName: ecircumflex
Width: 502
VWidth: 0
Flags: HMW
LayerCount: 2
Fore
SplineSet
52 228 m 257
 52 238 l 257
 446 238 l 257
 455 366 359 460 255 460 c 256
 153 460 55 376 55 232 c 257
 55 232 l 257
 55 100 141 0 250 0 c 256
 368 0 411 64 441 113 c 257
 449 107 l 257
 419 59 375 -10 250 -10 c 256
 135 -10 45 93 45 232 c 256
 45 259 48 284 55 308 c 256
 82 403 157 470 255 470 c 256
 360 470 457 379 457 254 c 256
 457 246 456 236 455 228 c 257
 52 228 l 257
255 665 m 257
 102 530 l 257
 95 537 l 257
 255 677 l 257
 415 537 l 257
 408 530 l 257
 255 665 l 257
EndSplineSet
EndChar

StartChar: edieresis
Encoding: 235 235 225
GlifName: edieresis
Width: 502
VWidth: 0
Flags: HMW
LayerCount: 2
Fore
SplineSet
52 228 m 257
 52 238 l 257
 446 238 l 257
 455 366 359 460 255 460 c 256
 153 460 55 376 55 232 c 257
 55 232 l 257
 55 100 141 0 250 0 c 256
 368 0 411 64 441 113 c 257
 449 107 l 257
 419 59 375 -10 250 -10 c 256
 135 -10 45 93 45 232 c 256
 45 259 48 284 55 308 c 256
 82 403 157 470 255 470 c 256
 360 470 457 379 457 254 c 256
 457 246 456 236 455 228 c 257
 52 228 l 257
344 541 m 256
 344 548 349 552 355 552 c 256
 361 552 366 548 366 541 c 256
 366 534 361 530 355 530 c 256
 349 530 344 534 344 541 c 256
144 541 m 256
 144 548 149 552 155 552 c 256
 161 552 166 548 166 541 c 256
 166 534 161 530 155 530 c 256
 149 530 144 534 144 541 c 256
EndSplineSet
EndChar

StartChar: igrave
Encoding: 236 236 226
GlifName: igrave
Width: 190
VWidth: 0
Flags: HMW
LayerCount: 2
Fore
SplineSet
90 460 m 257
 100 460 l 257
 100 0 l 257
 90 0 l 257
 90 460 l 257
-60 687 m 257
 -52 695 l 257
 118 535 l 257
 112 530 l 257
 -60 687 l 257
EndSplineSet
EndChar

StartChar: dotlessi
Encoding: 305 305 227
GlifName: dotlessi
Width: 190
VWidth: 0
Flags: HMW
LayerCount: 2
Fore
SplineSet
90 460 m 257
 100 460 l 257
 100 0 l 257
 90 0 l 257
 90 460 l 257
EndSplineSet
EndChar

StartChar: kgreenlandic
Encoding: 312 312 228
GlifName: kgreenlandic
Width: 372
VWidth: 0
Flags: HMW
LayerCount: 2
Fore
SplineSet
80 460 m 257
 90 460 l 257
 90 0 l 257
 80 0 l 257
 80 460 l 257
328 460 m 257
 344 460 l 257
 102 270 l 257
 362 0 l 257
 348 0 l 257
 88 270 l 257
 328 460 l 257
EndSplineSet
EndChar

StartChar: iacute
Encoding: 237 237 229
GlifName: iacute
Width: 190
VWidth: 0
Flags: HMW
LayerCount: 2
Fore
SplineSet
90 460 m 257
 100 460 l 257
 100 0 l 257
 90 0 l 257
 90 460 l 257
250 687 m 257
 78 530 l 257
 72 535 l 257
 242 695 l 257
 250 687 l 257
EndSplineSet
EndChar

StartChar: icircumflex
Encoding: 238 238 230
GlifName: icircumflex
Width: 190
VWidth: 0
Flags: HMW
LayerCount: 2
Fore
SplineSet
90 460 m 257
 100 460 l 257
 100 0 l 257
 90 0 l 257
 90 460 l 257
95 665 m 257
 -58 530 l 257
 -65 537 l 257
 95 677 l 257
 255 537 l 257
 248 530 l 257
 95 665 l 257
EndSplineSet
EndChar

StartChar: idieresis
Encoding: 239 239 231
GlifName: idieresis
Width: 190
VWidth: 0
Flags: HMW
LayerCount: 2
Fore
SplineSet
90 460 m 257
 100 460 l 257
 100 0 l 257
 90 0 l 257
 90 460 l 257
164 541 m 256
 164 548 169 552 175 552 c 256
 181 552 186 548 186 541 c 256
 186 534 181 530 175 530 c 256
 169 530 164 534 164 541 c 256
4 541 m 256
 4 548 9 552 15 552 c 256
 21 552 26 548 26 541 c 256
 26 534 21 530 15 530 c 256
 9 530 4 534 4 541 c 256
EndSplineSet
EndChar

StartChar: ntilde
Encoding: 241 241 232
GlifName: ntilde
Width: 475
VWidth: 0
Flags: HMW
LayerCount: 2
Fore
SplineSet
95 460 m 257
 95 0 l 257
 85 0 l 257
 85 460 l 257
 95 460 l 257
380 320 m 258
 380 401 347 460 257 460 c 256
 166 460 95 375 95 280 c 257
 90 280 l 257
 90 389 162 470 257 470 c 256
 352 470 390 409 390 320 c 258
 390 0 l 257
 380 0 l 257
 380 320 l 258
112 551 m 257
 112 580 129 609 174 609 c 256
 229 609 244 562 298 562 c 256
 327 562 339 578 354 610 c 257
 363 607 l 257
 347 570 327 554 297 554 c 256
 242 554 221 601 176 601 c 256
 135 601 121 575 121 550 c 257
 112 551 l 257
EndSplineSet
EndChar

StartChar: ograve
Encoding: 242 242 233
GlifName: ograve
Width: 556
VWidth: 0
Flags: HMW
LayerCount: 2
Fore
SplineSet
45 230 m 256
 45 369 146 470 278 470 c 256
 410 470 511 369 511 230 c 256
 511 91 410 -10 278 -10 c 256
 146 -10 45 91 45 230 c 256
55 230 m 256
 55 96 153 0 278 0 c 256
 403 0 501 96 501 230 c 256
 501 364 403 460 278 460 c 256
 153 460 55 364 55 230 c 256
142 687 m 257
 150 695 l 257
 320 535 l 257
 316 530 l 257
 142 687 l 257
EndSplineSet
EndChar

StartChar: oacute
Encoding: 243 243 234
GlifName: oacute
Width: 556
VWidth: 0
Flags: HMW
LayerCount: 2
Fore
SplineSet
45 230 m 256
 45 369 146 470 278 470 c 256
 410 470 511 369 511 230 c 256
 511 91 410 -10 278 -10 c 256
 146 -10 45 91 45 230 c 256
55 230 m 256
 55 96 153 0 278 0 c 256
 403 0 501 96 501 230 c 256
 501 364 403 460 278 460 c 256
 153 460 55 364 55 230 c 256
414 687 m 257
 240 530 l 257
 236 535 l 257
 406 695 l 257
 414 687 l 257
EndSplineSet
EndChar

StartChar: ocircumflex
Encoding: 244 244 235
GlifName: ocircumflex
Width: 556
VWidth: 0
Flags: HMW
LayerCount: 2
Fore
SplineSet
45 230 m 256
 45 369 146 470 278 470 c 256
 410 470 511 369 511 230 c 256
 511 91 410 -10 278 -10 c 256
 146 -10 45 91 45 230 c 256
55 230 m 256
 55 96 153 0 278 0 c 256
 403 0 501 96 501 230 c 256
 501 364 403 460 278 460 c 256
 153 460 55 364 55 230 c 256
278 685 m 257
 125 550 l 257
 118 557 l 257
 278 697 l 257
 438 557 l 257
 431 550 l 257
 278 685 l 257
EndSplineSet
EndChar

StartChar: otilde
Encoding: 245 245 236
GlifName: otilde
Width: 556
VWidth: 0
Flags: HMW
LayerCount: 2
Fore
SplineSet
45 230 m 256
 45 369 146 470 278 470 c 256
 410 470 511 369 511 230 c 256
 511 91 410 -10 278 -10 c 256
 146 -10 45 91 45 230 c 256
55 230 m 256
 55 96 153 0 278 0 c 256
 403 0 501 96 501 230 c 256
 501 364 403 460 278 460 c 256
 153 460 55 364 55 230 c 256
152 551 m 257
 152 580 169 609 214 609 c 256
 269 609 284 562 338 562 c 256
 367 562 379 578 394 610 c 257
 404 607 l 257
 388 570 368 554 338 554 c 256
 283 554 261 601 216 601 c 256
 175 601 162 575 162 550 c 257
 152 551 l 257
EndSplineSet
EndChar

StartChar: odieresis
Encoding: 246 246 237
GlifName: odieresis
Width: 556
VWidth: 0
Flags: HMW
LayerCount: 2
Fore
SplineSet
45 230 m 256
 45 369 146 470 278 470 c 256
 410 470 511 369 511 230 c 256
 511 91 410 -10 278 -10 c 256
 146 -10 45 91 45 230 c 256
55 230 m 256
 55 96 153 0 278 0 c 256
 403 0 501 96 501 230 c 256
 501 364 403 460 278 460 c 256
 153 460 55 364 55 230 c 256
367 561 m 256
 367 568 372 572 378 572 c 256
 384 572 389 568 389 561 c 256
 389 554 384 550 378 550 c 256
 372 550 367 554 367 561 c 256
167 561 m 256
 167 568 172 572 178 572 c 256
 184 572 189 568 189 561 c 256
 189 554 184 550 178 550 c 256
 172 550 167 554 167 561 c 256
EndSplineSet
EndChar

StartChar: ugrave
Encoding: 249 249 238
GlifName: ugrave
Width: 475
VWidth: 0
Flags: HMW
LayerCount: 2
Fore
SplineSet
380 0 m 257
 380 460 l 257
 390 460 l 257
 390 0 l 257
 380 0 l 257
95 150 m 258
 95 59 128 0 218 0 c 256
 309 0 380 85 380 180 c 257
 385 180 l 257
 385 71 313 -10 218 -10 c 256
 123 -10 85 51 85 150 c 258
 85 460 l 257
 95 460 l 257
 95 150 l 258
82 697 m 257
 90 705 l 257
 260 545 l 257
 255 540 l 257
 82 697 l 257
EndSplineSet
EndChar

StartChar: uacute
Encoding: 250 250 239
GlifName: uacute
Width: 475
VWidth: 0
Flags: HMW
LayerCount: 2
Fore
SplineSet
380 0 m 257
 380 460 l 257
 390 460 l 257
 390 0 l 257
 380 0 l 257
95 150 m 258
 95 59 128 0 218 0 c 256
 309 0 380 85 380 180 c 257
 385 180 l 257
 385 71 313 -10 218 -10 c 256
 123 -10 85 51 85 150 c 258
 85 460 l 257
 95 460 l 257
 95 150 l 258
393 697 m 257
 220 540 l 257
 215 545 l 257
 385 705 l 257
 393 697 l 257
EndSplineSet
EndChar

StartChar: ucircumflex
Encoding: 251 251 240
GlifName: ucircumflex
Width: 475
VWidth: 0
Flags: HMW
LayerCount: 2
Fore
SplineSet
380 0 m 257
 380 460 l 257
 390 460 l 257
 390 0 l 257
 380 0 l 257
95 150 m 258
 95 59 128 0 218 0 c 256
 309 0 380 85 380 180 c 257
 385 180 l 257
 385 71 313 -10 218 -10 c 256
 123 -10 85 51 85 150 c 258
 85 460 l 257
 95 460 l 257
 95 150 l 258
238 675 m 257
 84 540 l 257
 78 547 l 257
 238 687 l 257
 398 547 l 257
 390 540 l 257
 238 675 l 257
EndSplineSet
EndChar

StartChar: udieresis
Encoding: 252 252 241
GlifName: udieresis
Width: 475
VWidth: 0
Flags: HMW
LayerCount: 2
Fore
SplineSet
380 0 m 257
 380 460 l 257
 390 460 l 257
 390 0 l 257
 380 0 l 257
95 150 m 258
 95 59 128 0 218 0 c 256
 309 0 380 85 380 180 c 257
 385 180 l 257
 385 71 313 -10 218 -10 c 256
 123 -10 85 51 85 150 c 258
 85 460 l 257
 95 460 l 257
 95 150 l 258
306 561 m 256
 306 568 312 572 318 572 c 256
 324 572 328 568 328 561 c 256
 328 554 324 550 318 550 c 256
 312 550 306 554 306 561 c 256
146 561 m 256
 146 568 152 572 158 572 c 256
 164 572 168 568 168 561 c 256
 168 554 164 550 158 550 c 256
 152 550 146 554 146 561 c 256
EndSplineSet
EndChar

StartChar: yacute
Encoding: 253 253 242
GlifName: yacute
Width: 425
VWidth: 0
Flags: HMW
LayerCount: 2
Fore
SplineSet
415 460 m 257
 115 -220 l 257
 104 -220 l 257
 210 20 l 257
 10 460 l 257
 22 460 l 257
 221 20 l 257
 210 20 l 257
 404 460 l 257
 415 460 l 257
368 687 m 257
 195 530 l 257
 190 535 l 257
 360 695 l 257
 368 687 l 257
EndSplineSet
EndChar

StartChar: thorn
Encoding: 254 254 243
GlifName: thorn
Width: 541
VWidth: 0
Flags: HMW
LayerCount: 2
Fore
SplineSet
90 -220 m 257
 80 -220 l 257
 80 780 l 257
 90 780 l 257
 90 -220 l 257
496 230 m 256
 496 83 403 -10 283 -10 c 256
 160 -10 85 111 85 230 c 256
 85 349 160 470 283 470 c 256
 403 470 496 377 496 230 c 256
486 230 m 256
 486 371 396 460 280 460 c 256
 171 460 90 346 90 230 c 256
 90 114 171 0 280 0 c 256
 396 0 486 89 486 230 c 256
EndSplineSet
EndChar

StartChar: ydieresis
Encoding: 255 255 244
GlifName: ydieresis
Width: 425
VWidth: 0
Flags: HMW
LayerCount: 2
Fore
SplineSet
415 460 m 257
 115 -220 l 257
 104 -220 l 257
 210 20 l 257
 10 460 l 257
 22 460 l 257
 221 20 l 257
 210 20 l 257
 404 460 l 257
 415 460 l 257
282 561 m 256
 282 568 286 572 292 572 c 256
 298 572 304 568 304 561 c 256
 304 554 298 550 292 550 c 256
 286 550 282 554 282 561 c 256
122 561 m 256
 122 568 126 572 132 572 c 256
 138 572 144 568 144 561 c 256
 144 554 138 550 132 550 c 256
 126 550 122 554 122 561 c 256
EndSplineSet
EndChar

StartChar: Amacron
Encoding: 256 256 245
GlifName: A_macron
Width: 600
VWidth: 0
Flags: HMW
LayerCount: 2
Fore
SplineSet
127 272 m 257
 127 282 l 257
 472 282 l 257
 472 272 l 257
 127 272 l 257
300 688 m 257
 136 277 l 257
 135 273 l 257
 27 0 l 257
 15 0 l 257
 300 715 l 257
 585 0 l 257
 573 0 l 257
 466 273 l 257
 465 276 l 257
 300 688 l 257
125 795 m 257
 125 805 l 257
 475 805 l 257
 475 795 l 257
 125 795 l 257
EndSplineSet
EndChar

StartChar: amacron
Encoding: 257 257 246
GlifName: amacron
Width: 435
VWidth: 0
Flags: HMW
LayerCount: 2
Fore
SplineSet
50 135 m 256
 50 37 123 0 193 0 c 256
 283 0 355 74 355 160 c 257
 360 160 l 257
 360 71 295 -10 193 -10 c 256
 118 -10 40 31 40 135 c 256
 40 232 130 281 221 281 c 256
 299 281 337 253 358 235 c 257
 358 225 l 257
 334 247 289 271 221 271 c 256
 138 271 50 227 50 135 c 256
84 395 m 257
 77 403 l 257
 110 434 160 470 233 470 c 256
 323 470 365 409 365 320 c 258
 365 0 l 257
 355 0 l 257
 355 320 l 258
 355 406 316 460 233 460 c 256
 167 460 121 430 84 395 c 257
58 550 m 257
 58 560 l 257
 408 560 l 257
 408 550 l 257
 58 550 l 257
EndSplineSet
Substitution2: "alt a" amacron.alt
EndChar

StartChar: breve
Encoding: 728 728 247
GlifName: breve
Width: 546
VWidth: 0
Flags: HMW
LayerCount: 2
Fore
SplineSet
115 850 m 257
 125 850 l 257
 125 784 181 720 273 720 c 256
 365 720 421 784 421 850 c 257
 431 850 l 257
 431 781 378 710 273 710 c 256
 168 710 115 781 115 850 c 257
EndSplineSet
EndChar

StartChar: Abreve
Encoding: 258 258 248
GlifName: A_breve
Width: 600
VWidth: 0
Flags: HMW
LayerCount: 2
Fore
SplineSet
127 272 m 257
 127 282 l 257
 472 282 l 257
 472 272 l 257
 127 272 l 257
300 688 m 257
 136 277 l 257
 135 273 l 257
 27 0 l 257
 15 0 l 257
 300 715 l 257
 585 0 l 257
 573 0 l 257
 466 273 l 257
 465 276 l 257
 300 688 l 257
142 925 m 257
 152 925 l 257
 152 859 208 795 300 795 c 256
 392 795 448 859 448 925 c 257
 458 925 l 257
 458 856 405 785 300 785 c 256
 195 785 142 856 142 925 c 257
EndSplineSet
EndChar

StartChar: abreve
Encoding: 259 259 249
GlifName: abreve
Width: 435
VWidth: 0
Flags: HMW
LayerCount: 2
Fore
SplineSet
50 135 m 256
 50 37 123 0 193 0 c 256
 283 0 355 74 355 160 c 257
 360 160 l 257
 360 71 295 -10 193 -10 c 256
 118 -10 40 31 40 135 c 256
 40 232 130 281 221 281 c 256
 299 281 337 253 358 235 c 257
 358 225 l 257
 334 247 289 271 221 271 c 256
 138 271 50 227 50 135 c 256
84 395 m 257
 77 403 l 257
 110 434 160 470 233 470 c 256
 323 470 365 409 365 320 c 258
 365 0 l 257
 355 0 l 257
 355 320 l 258
 355 406 316 460 233 460 c 256
 167 460 121 430 84 395 c 257
65 680 m 257
 75 680 l 257
 75 614 131 550 223 550 c 256
 315 550 371 614 371 680 c 257
 381 680 l 257
 381 611 328 540 223 540 c 256
 118 540 65 611 65 680 c 257
EndSplineSet
Substitution2: "alt a" abreve.alt
EndChar

StartChar: Aogonek
Encoding: 260 260 250
GlifName: A_ogonek
Width: 600
VWidth: 0
Flags: HMW
LayerCount: 2
Fore
SplineSet
129 272 m 257
 129 282 l 257
 472 282 l 257
 472 272 l 257
 129 272 l 257
300 688 m 257
 136 277 l 257
 135 273 l 257
 27 0 l 257
 15 0 l 257
 300 715 l 257
 585 0 l 257
 573 0 l 257
 466 273 l 257
 465 276 l 257
 300 688 l 257
619 -173 m 257
 626 -180 l 257
 611 -200 571 -220 528 -220 c 256
 464 -220 425 -189 425 -140 c 256
 425 -71 508 -26 578 10 c 257
 585 0 l 257
 517 -32 435 -83 435 -140 c 256
 435 -186 478 -210 528 -210 c 256
 568 -210 604 -191 619 -173 c 257
EndSplineSet
EndChar

StartChar: aogonek
Encoding: 261 261 251
GlifName: aogonek
Width: 435
VWidth: 0
Flags: HMW
LayerCount: 2
Fore
SplineSet
50 135 m 256
 50 37 123 0 193 0 c 256
 283 0 355 74 355 160 c 257
 360 160 l 257
 360 71 295 -10 193 -10 c 256
 118 -10 40 31 40 135 c 256
 40 232 130 281 221 281 c 256
 299 281 337 253 358 235 c 257
 358 225 l 257
 334 247 289 271 221 271 c 256
 138 271 50 227 50 135 c 256
84 395 m 257
 77 403 l 257
 110 434 160 470 233 470 c 256
 323 470 365 409 365 320 c 258
 365 0 l 257
 355 0 l 257
 355 320 l 258
 355 406 316 460 233 460 c 256
 167 460 121 430 84 395 c 257
399 -173 m 257
 406 -180 l 257
 391 -200 351 -220 308 -220 c 256
 244 -220 205 -189 205 -140 c 256
 205 -71 288 -26 358 10 c 257
 365 0 l 257
 297 -32 215 -83 215 -140 c 256
 215 -186 258 -210 308 -210 c 256
 348 -210 384 -191 399 -173 c 257
EndSplineSet
Substitution2: "alt a" aogonek.alt
EndChar

StartChar: Cacute
Encoding: 262 262 252
GlifName: C_acute
Width: 685
VWidth: 0
Flags: HMW
LayerCount: 2
Fore
SplineSet
62 350 m 256
 62 150 193 4 380 4 c 256
 479 4 547 31 605 88 c 257
 605 72 l 257
 546 20 482 -8 380 -8 c 256
 186 -8 50 141 50 350 c 256
 50 559 186 708 380 708 c 256
 482 708 546 680 605 628 c 257
 605 613 l 257
 549 669 474 696 380 696 c 256
 194 696 62 553 62 350 c 256
516 925 m 257
 342 768 l 257
 338 773 l 257
 508 933 l 257
 516 925 l 257
EndSplineSet
EndChar

StartChar: cacute
Encoding: 263 263 253
GlifName: cacute
Width: 488
VWidth: 0
Flags: HMW
LayerCount: 2
Fore
SplineSet
50 230 m 256
 50 96 148 0 273 0 c 256
 347 0 407 37 428 61 c 257
 428 48 l 257
 406 23 346 -10 273 -10 c 256
 141 -10 40 91 40 230 c 256
 40 369 141 470 273 470 c 256
 346 470 406 436 428 412 c 257
 428 399 l 257
 407 423 347 460 273 460 c 256
 148 460 50 364 50 230 c 256
418 697 m 257
 246 540 l 257
 240 545 l 257
 410 705 l 257
 418 697 l 257
EndSplineSet
EndChar

StartChar: Ccircumflex
Encoding: 264 264 254
GlifName: C_circumflex
Width: 685
VWidth: 0
Flags: HMW
LayerCount: 2
Fore
SplineSet
62 350 m 256
 62 150 193 4 380 4 c 256
 479 4 547 31 605 88 c 257
 605 72 l 257
 546 20 482 -8 380 -8 c 256
 186 -8 50 141 50 350 c 256
 50 559 186 708 380 708 c 256
 482 708 546 680 605 628 c 257
 605 613 l 257
 549 669 474 696 380 696 c 256
 194 696 62 553 62 350 c 256
380 903 m 257
 227 768 l 257
 220 775 l 257
 380 915 l 257
 540 775 l 257
 533 768 l 257
 380 903 l 257
EndSplineSet
EndChar

StartChar: ccircumflex
Encoding: 265 265 255
GlifName: ccircumflex
Width: 488
VWidth: 0
Flags: HMW
LayerCount: 2
Fore
SplineSet
50 230 m 256
 50 96 148 0 273 0 c 256
 347 0 407 37 428 61 c 257
 428 48 l 257
 406 23 346 -10 273 -10 c 256
 141 -10 40 91 40 230 c 256
 40 369 141 470 273 470 c 256
 346 470 406 436 428 412 c 257
 428 399 l 257
 407 423 347 460 273 460 c 256
 148 460 50 364 50 230 c 256
273 665 m 257
 120 530 l 257
 113 537 l 257
 273 677 l 257
 433 537 l 257
 426 530 l 257
 273 665 l 257
EndSplineSet
EndChar

StartChar: Cdotaccent
Encoding: 266 266 256
GlifName: C_dotaccent
Width: 685
VWidth: 0
Flags: HMW
LayerCount: 2
Fore
SplineSet
62 350 m 256
 62 150 193 4 380 4 c 256
 479 4 547 31 605 88 c 257
 605 72 l 257
 546 20 482 -8 380 -8 c 256
 186 -8 50 141 50 350 c 256
 50 559 186 708 380 708 c 256
 482 708 546 680 605 628 c 257
 605 613 l 257
 549 669 474 696 380 696 c 256
 194 696 62 553 62 350 c 256
369 789 m 256
 369 796 374 800 380 800 c 256
 386 800 391 796 391 789 c 256
 391 782 386 778 380 778 c 256
 374 778 369 782 369 789 c 256
EndSplineSet
EndChar

StartChar: cdotaccent
Encoding: 267 267 257
GlifName: cdotaccent
Width: 488
VWidth: 0
Flags: HMW
LayerCount: 2
Fore
SplineSet
50 230 m 256
 50 96 148 0 273 0 c 256
 347 0 407 37 428 61 c 257
 428 48 l 257
 406 23 346 -10 273 -10 c 256
 141 -10 40 91 40 230 c 256
 40 369 141 470 273 470 c 256
 346 470 406 436 428 412 c 257
 428 399 l 257
 407 423 347 460 273 460 c 256
 148 460 50 364 50 230 c 256
262 551 m 256
 262 558 267 562 273 562 c 256
 279 562 284 558 284 551 c 256
 284 544 279 540 273 540 c 256
 267 540 262 544 262 551 c 256
EndSplineSet
EndChar

StartChar: Ccaron
Encoding: 268 268 258
GlifName: C_caron
Width: 685
VWidth: 0
Flags: HMW
LayerCount: 2
Fore
SplineSet
62 350 m 256
 62 150 193 4 380 4 c 256
 479 4 547 31 605 88 c 257
 605 72 l 257
 546 20 482 -8 380 -8 c 256
 186 -8 50 141 50 350 c 256
 50 559 186 708 380 708 c 256
 482 708 546 680 605 628 c 257
 605 613 l 257
 549 669 474 696 380 696 c 256
 194 696 62 553 62 350 c 256
380 790 m 257
 532 926 l 257
 540 918 l 257
 380 778 l 257
 220 918 l 257
 228 926 l 257
 380 790 l 257
EndSplineSet
EndChar

StartChar: ccaron
Encoding: 269 269 259
GlifName: ccaron
Width: 488
VWidth: 0
Flags: HMW
LayerCount: 2
Fore
SplineSet
50 230 m 256
 50 96 148 0 273 0 c 256
 347 0 407 37 428 61 c 257
 428 48 l 257
 406 23 346 -10 273 -10 c 256
 141 -10 40 91 40 230 c 256
 40 369 141 470 273 470 c 256
 346 470 406 436 428 412 c 257
 428 399 l 257
 407 423 347 460 273 460 c 256
 148 460 50 364 50 230 c 256
273 562 m 257
 425 698 l 257
 433 690 l 257
 273 550 l 257
 113 690 l 257
 121 698 l 257
 273 562 l 257
EndSplineSet
EndChar

StartChar: Dcaron
Encoding: 270 270 260
GlifName: D_caron
Width: 635
VWidth: 0
Flags: HMW
LayerCount: 2
Fore
SplineSet
90 700 m 257
 101 700 l 257
 101 0 l 257
 90 0 l 257
 90 700 l 257
250 0 m 258
 95 0 l 257
 95 11 l 257
 250 11 l 258
 450 11 574 146 574 350 c 256
 574 553 450 689 250 689 c 258
 95 689 l 257
 95 700 l 257
 250 700 l 258
 454 700 585 559 585 350 c 256
 585 141 454 0 250 0 c 258
318 810 m 257
 470 946 l 257
 478 938 l 257
 318 798 l 257
 158 938 l 257
 166 946 l 257
 318 810 l 257
EndSplineSet
EndChar

StartChar: dcaron
Encoding: 271 271 261
GlifName: dcaron
Width: 570
VWidth: 0
Flags: HMW
LayerCount: 2
Fore
SplineSet
451 780 m 257
 461 780 l 257
 461 0 l 257
 451 0 l 257
 451 780 l 257
45 230 m 256
 45 377 138 470 258 470 c 256
 381 470 456 349 456 230 c 256
 456 111 381 -10 258 -10 c 256
 138 -10 45 83 45 230 c 256
55 230 m 256
 55 89 145 0 261 0 c 256
 370 0 451 114 451 230 c 256
 451 346 370 460 261 460 c 256
 145 460 55 371 55 230 c 256
655 764 m 257
 666 759 l 257
 556 509 l 257
 550 511 l 257
 655 764 l 257
EndSplineSet
EndChar

StartChar: Dcroat
Encoding: 272 272 262
GlifName: D_croat
Width: 680
VWidth: 0
Flags: HMW
LayerCount: 2
Fore
SplineSet
5 345 m 257
 5 355 l 257
 305 355 l 257
 305 345 l 257
 5 345 l 257
90 700 m 257
 101 700 l 257
 101 0 l 257
 90 0 l 257
 90 700 l 257
250 0 m 258
 95 0 l 257
 95 11 l 257
 250 11 l 258
 448 11 574 147 574 350 c 256
 574 553 448 689 250 689 c 258
 95 689 l 257
 95 700 l 257
 250 700 l 258
 454 700 585 559 585 350 c 256
 585 141 454 0 250 0 c 258
EndSplineSet
EndChar

StartChar: dcroat
Encoding: 273 273 263
GlifName: dcroat
Width: 541
VWidth: 0
Flags: HMW
LayerCount: 2
Fore
SplineSet
295 655 m 257
 295 665 l 257
 595 665 l 257
 595 655 l 257
 295 655 l 257
451 780 m 257
 461 780 l 257
 461 0 l 257
 451 0 l 257
 451 780 l 257
45 230 m 256
 45 379 138 470 258 470 c 256
 373 470 456 359 456 230 c 256
 456 101 373 -10 258 -10 c 256
 138 -10 45 81 45 230 c 256
55 230 m 256
 55 89 146 0 261 0 c 256
 376 0 451 124 451 230 c 256
 451 336 376 460 261 460 c 256
 146 460 55 371 55 230 c 256
EndSplineSet
EndChar

StartChar: Emacron
Encoding: 274 274 264
GlifName: E_macron
Width: 510
VWidth: 0
Flags: HMW
LayerCount: 2
Fore
SplineSet
92 0 m 257
 92 10 l 257
 430 10 l 257
 430 0 l 257
 92 0 l 257
92 690 m 257
 92 700 l 257
 430 700 l 257
 430 690 l 257
 92 690 l 257
92 384 m 257
 92 394 l 257
 410 394 l 257
 410 384 l 257
 92 384 l 257
90 700 m 257
 101 700 l 257
 101 0 l 257
 90 0 l 257
 90 700 l 257
105 835 m 257
 105 845 l 257
 455 845 l 257
 455 835 l 257
 105 835 l 257
EndSplineSet
EndChar

StartChar: emacron
Encoding: 275 275 265
GlifName: emacron
Width: 502
VWidth: 0
Flags: HMW
LayerCount: 2
Fore
SplineSet
52 228 m 257
 52 238 l 257
 446 238 l 257
 455 366 359 460 255 460 c 256
 153 460 55 376 55 232 c 257
 55 232 l 257
 55 100 141 0 250 0 c 256
 368 0 411 64 441 113 c 257
 449 107 l 257
 419 59 375 -10 250 -10 c 256
 135 -10 45 93 45 232 c 256
 45 259 48 284 55 308 c 256
 82 403 157 470 255 470 c 256
 360 470 457 379 457 254 c 256
 457 246 456 236 455 228 c 257
 52 228 l 257
80 530 m 257
 80 540 l 257
 430 540 l 257
 430 530 l 257
 80 530 l 257
EndSplineSet
EndChar

StartChar: Ebreve
Encoding: 276 276 266
GlifName: E_breve
Width: 510
VWidth: 0
Flags: HMW
LayerCount: 2
Fore
SplineSet
92 0 m 257
 92 10 l 257
 430 10 l 257
 430 0 l 257
 92 0 l 257
92 690 m 257
 92 700 l 257
 430 700 l 257
 430 690 l 257
 92 690 l 257
92 384 m 257
 92 394 l 257
 410 394 l 257
 410 384 l 257
 92 384 l 257
90 700 m 257
 101 700 l 257
 101 0 l 257
 90 0 l 257
 90 700 l 257
112 908 m 257
 122 908 l 257
 122 842 178 778 270 778 c 256
 362 778 418 842 418 908 c 257
 428 908 l 257
 428 839 375 768 270 768 c 256
 165 768 112 839 112 908 c 257
EndSplineSet
EndChar

StartChar: ebreve
Encoding: 277 277 267
GlifName: ebreve
Width: 502
VWidth: 0
Flags: HMW
LayerCount: 2
Fore
SplineSet
52 228 m 257
 52 238 l 257
 446 238 l 257
 455 366 359 460 255 460 c 256
 153 460 55 376 55 232 c 257
 55 232 l 257
 55 100 141 0 250 0 c 256
 368 0 411 64 441 113 c 257
 449 107 l 257
 419 59 375 -10 250 -10 c 256
 135 -10 45 93 45 232 c 256
 45 259 48 284 55 308 c 256
 82 403 157 470 255 470 c 256
 360 470 457 379 457 254 c 256
 457 246 456 236 455 228 c 257
 52 228 l 257
97 670 m 257
 107 670 l 257
 107 604 163 540 255 540 c 256
 347 540 403 604 403 670 c 257
 413 670 l 257
 413 601 360 530 255 530 c 256
 150 530 97 601 97 670 c 257
EndSplineSet
EndChar

StartChar: Edotaccent
Encoding: 278 278 268
GlifName: E_dotaccent
Width: 510
VWidth: 0
Flags: HMW
LayerCount: 2
Fore
SplineSet
92 0 m 257
 92 10 l 257
 430 10 l 257
 430 0 l 257
 92 0 l 257
92 690 m 257
 92 700 l 257
 430 700 l 257
 430 690 l 257
 92 690 l 257
92 384 m 257
 92 394 l 257
 410 394 l 257
 410 384 l 257
 92 384 l 257
90 700 m 257
 101 700 l 257
 101 0 l 257
 90 0 l 257
 90 700 l 257
249 779 m 256
 249 786 254 790 260 790 c 256
 266 790 271 786 271 779 c 256
 271 772 266 768 260 768 c 256
 254 768 249 772 249 779 c 256
EndSplineSet
EndChar

StartChar: edotaccent
Encoding: 279 279 269
GlifName: edotaccent
Width: 502
VWidth: 0
Flags: HMW
LayerCount: 2
Fore
SplineSet
52 228 m 257
 52 238 l 257
 446 238 l 257
 455 366 359 460 255 460 c 256
 153 460 55 376 55 232 c 257
 55 232 l 257
 55 100 141 0 250 0 c 256
 368 0 411 64 441 113 c 257
 449 107 l 257
 419 59 375 -10 250 -10 c 256
 135 -10 45 93 45 232 c 256
 45 259 48 284 55 308 c 256
 82 403 157 470 255 470 c 256
 360 470 457 379 457 254 c 256
 457 246 456 236 455 228 c 257
 52 228 l 257
244 541 m 256
 244 548 249 552 255 552 c 256
 261 552 266 548 266 541 c 256
 266 534 261 530 255 530 c 256
 249 530 244 534 244 541 c 256
EndSplineSet
EndChar

StartChar: Eogonek
Encoding: 280 280 270
GlifName: E_ogonek
Width: 510
VWidth: 0
Flags: HMW
LayerCount: 2
Fore
SplineSet
92 0 m 257
 92 10 l 257
 430 10 l 257
 430 0 l 257
 92 0 l 257
92 690 m 257
 92 700 l 257
 430 700 l 257
 430 690 l 257
 92 690 l 257
92 384 m 257
 92 394 l 257
 410 394 l 257
 410 384 l 257
 92 384 l 257
90 700 m 257
 101 700 l 257
 101 0 l 257
 90 0 l 257
 90 700 l 257
464 -173 m 257
 471 -180 l 257
 456 -200 416 -220 373 -220 c 256
 309 -220 270 -189 270 -140 c 256
 270 -71 353 -26 423 10 c 257
 430 0 l 257
 362 -32 280 -83 280 -140 c 256
 280 -186 323 -210 373 -210 c 256
 413 -210 449 -191 464 -173 c 257
EndSplineSet
EndChar

StartChar: eogonek
Encoding: 281 281 271
GlifName: eogonek
Width: 502
VWidth: 0
Flags: HMW
LayerCount: 2
Fore
SplineSet
52 228 m 257
 52 238 l 257
 446 238 l 257
 455 366 359 460 255 460 c 256
 153 460 55 376 55 232 c 257
 55 232 l 257
 55 100 141 0 250 0 c 256
 368 0 411 64 441 113 c 257
 449 107 l 257
 419 59 375 -10 250 -10 c 256
 135 -10 45 93 45 232 c 256
 45 259 48 284 55 308 c 256
 82 403 157 470 255 470 c 256
 360 470 457 379 457 254 c 256
 457 246 456 236 455 228 c 257
 52 228 l 257
288 -172 m 257
 294 -179 l 257
 279 -199 239 -219 196 -219 c 256
 132 -219 94 -188 94 -139 c 256
 94 -70 176 -36 246 -0 c 257
 254 -10 l 257
 186 -42 104 -78 104 -139 c 256
 104 -185 146 -209 196 -209 c 256
 236 -209 273 -190 288 -172 c 257
EndSplineSet
EndChar

StartChar: Ecaron
Encoding: 282 282 272
GlifName: E_caron
Width: 510
VWidth: 0
Flags: HMW
LayerCount: 2
Fore
SplineSet
92 0 m 257
 92 10 l 257
 430 10 l 257
 430 0 l 257
 92 0 l 257
92 690 m 257
 92 700 l 257
 430 700 l 257
 430 690 l 257
 92 690 l 257
92 384 m 257
 92 394 l 257
 410 394 l 257
 410 384 l 257
 92 384 l 257
90 700 m 257
 101 700 l 257
 101 0 l 257
 90 0 l 257
 90 700 l 257
260 780 m 257
 412 916 l 257
 420 908 l 257
 260 768 l 257
 100 908 l 257
 108 916 l 257
 260 780 l 257
EndSplineSet
EndChar

StartChar: ecaron
Encoding: 283 283 273
GlifName: ecaron
Width: 502
VWidth: 0
Flags: HMW
LayerCount: 2
Fore
SplineSet
52 228 m 257
 52 238 l 257
 446 238 l 257
 455 366 359 460 255 460 c 256
 153 460 55 376 55 232 c 257
 55 232 l 257
 55 100 141 0 250 0 c 256
 368 0 411 64 441 113 c 257
 449 107 l 257
 419 59 375 -10 250 -10 c 256
 135 -10 45 93 45 232 c 256
 45 259 48 284 55 308 c 256
 82 403 157 470 255 470 c 256
 360 470 457 379 457 254 c 256
 457 246 456 236 455 228 c 257
 52 228 l 257
255 542 m 257
 407 678 l 257
 415 670 l 257
 255 530 l 257
 95 670 l 257
 103 678 l 257
 255 542 l 257
EndSplineSet
EndChar

StartChar: Gcircumflex
Encoding: 284 284 274
GlifName: G_circumflex
Width: 765
VWidth: 0
Flags: HMW
LayerCount: 2
Fore
SplineSet
420 330 m 257
 420 340 l 257
 710 340 l 257
 710 156 584 -8 390 -8 c 256
 196 -8 50 141 50 350 c 256
 50 559 196 708 390 708 c 256
 519 708 608 643 668 556 c 257
 658 550 l 257
 608 633 512 697 390 697 c 256
 199 697 61 553 61 350 c 256
 61 150 198 3 390 3 c 256
 574 3 695 155 699 330 c 257
 420 330 l 257
390 903 m 257
 237 768 l 257
 230 775 l 257
 390 915 l 257
 550 775 l 257
 543 768 l 257
 390 903 l 257
EndSplineSet
EndChar

StartChar: gcircumflex
Encoding: 285 285 275
GlifName: gcircumflex
Width: 541
VWidth: 0
Flags: HMW
LayerCount: 2
Fore
SplineSet
60 -30 m 257
 70 -30 l 257
 70 -146 145 -220 252 -220 c 256
 359 -220 451 -145 451 10 c 258
 451 460 l 257
 461 460 l 257
 461 10 l 258
 461 -149 367 -230 252 -230 c 256
 137 -230 60 -149 60 -30 c 257
45 230 m 256
 45 377 138 470 258 470 c 256
 381 470 456 349 456 230 c 256
 456 111 381 -10 258 -10 c 256
 138 -10 45 83 45 230 c 256
55 230 m 256
 55 89 145 0 261 0 c 256
 371 0 451 114 451 235 c 256
 451 341 371 460 261 460 c 256
 145 460 55 371 55 230 c 256
258 665 m 257
 105 530 l 257
 98 537 l 257
 258 677 l 257
 418 537 l 257
 411 530 l 257
 258 665 l 257
EndSplineSet
EndChar

StartChar: Gbreve
Encoding: 286 286 276
GlifName: G_breve
Width: 765
VWidth: 0
Flags: HMW
LayerCount: 2
Fore
SplineSet
420 330 m 257
 420 340 l 257
 710 340 l 257
 710 156 584 -8 390 -8 c 256
 196 -8 50 141 50 350 c 256
 50 559 196 708 390 708 c 256
 519 708 608 643 668 556 c 257
 658 550 l 257
 608 633 512 697 390 697 c 256
 199 697 61 553 61 350 c 256
 61 150 198 3 390 3 c 256
 574 3 695 155 699 330 c 257
 420 330 l 257
232 908 m 257
 242 908 l 257
 242 842 298 778 390 778 c 256
 482 778 538 842 538 908 c 257
 548 908 l 257
 548 839 495 768 390 768 c 256
 285 768 232 839 232 908 c 257
EndSplineSet
EndChar

StartChar: gbreve
Encoding: 287 287 277
GlifName: gbreve
Width: 541
VWidth: 0
Flags: HMW
LayerCount: 2
Fore
SplineSet
60 -30 m 257
 70 -30 l 257
 70 -146 145 -220 252 -220 c 256
 359 -220 451 -145 451 10 c 258
 451 460 l 257
 461 460 l 257
 461 10 l 258
 461 -149 367 -230 252 -230 c 256
 137 -230 60 -149 60 -30 c 257
45 230 m 256
 45 377 138 470 258 470 c 256
 381 470 456 349 456 230 c 256
 456 111 381 -10 258 -10 c 256
 138 -10 45 83 45 230 c 256
55 230 m 256
 55 89 145 0 261 0 c 256
 371 0 451 114 451 235 c 256
 451 341 371 460 261 460 c 256
 145 460 55 371 55 230 c 256
100 670 m 257
 110 670 l 257
 110 604 166 540 258 540 c 256
 350 540 406 604 406 670 c 257
 416 670 l 257
 416 601 363 530 258 530 c 256
 153 530 100 601 100 670 c 257
EndSplineSet
EndChar

StartChar: Gdotaccent
Encoding: 288 288 278
GlifName: G_dotaccent
Width: 765
VWidth: 0
Flags: HMW
LayerCount: 2
Fore
SplineSet
420 330 m 257
 420 340 l 257
 710 340 l 257
 710 156 584 -8 390 -8 c 256
 196 -8 50 141 50 350 c 256
 50 559 196 708 390 708 c 256
 519 708 608 643 668 556 c 257
 658 550 l 257
 608 633 512 697 390 697 c 256
 199 697 61 553 61 350 c 256
 61 150 198 3 390 3 c 256
 574 3 695 155 699 330 c 257
 420 330 l 257
379 779 m 256
 379 786 384 790 390 790 c 256
 396 790 401 786 401 779 c 256
 401 772 396 768 390 768 c 256
 384 768 379 772 379 779 c 256
EndSplineSet
EndChar

StartChar: gdotaccent
Encoding: 289 289 279
GlifName: gdotaccent
Width: 541
VWidth: 0
Flags: HMW
LayerCount: 2
Fore
SplineSet
60 -30 m 257
 70 -30 l 257
 70 -146 145 -220 252 -220 c 256
 359 -220 451 -145 451 10 c 258
 451 460 l 257
 461 460 l 257
 461 10 l 258
 461 -149 367 -230 252 -230 c 256
 137 -230 60 -149 60 -30 c 257
45 230 m 256
 45 377 138 470 258 470 c 256
 381 470 456 349 456 230 c 256
 456 111 381 -10 258 -10 c 256
 138 -10 45 83 45 230 c 256
55 230 m 256
 55 89 145 0 261 0 c 256
 371 0 451 114 451 235 c 256
 451 341 371 460 261 460 c 256
 145 460 55 371 55 230 c 256
247 541 m 256
 247 548 252 552 258 552 c 256
 264 552 269 548 269 541 c 256
 269 534 264 530 258 530 c 256
 252 530 247 534 247 541 c 256
EndSplineSet
EndChar

StartChar: uni0122
Encoding: 290 290 280
GlifName: uni0122
Width: 765
VWidth: 0
Flags: HMW
LayerCount: 2
Fore
SplineSet
420 330 m 257
 420 340 l 257
 710 340 l 257
 710 156 584 -8 390 -8 c 256
 196 -8 50 141 50 350 c 256
 50 559 196 708 390 708 c 256
 519 708 608 643 668 556 c 257
 658 550 l 257
 608 633 512 697 390 697 c 256
 199 697 61 553 61 350 c 256
 61 150 198 3 390 3 c 256
 574 3 695 155 699 330 c 257
 420 330 l 257
437 -68 m 257
 448 -73 l 257
 338 -323 l 257
 332 -321 l 257
 437 -68 l 257
EndSplineSet
EndChar

StartChar: Hcircumflex
Encoding: 292 292 281
GlifName: H_circumflex
Width: 647
VWidth: 0
Flags: HMW
LayerCount: 2
Fore
SplineSet
93 377 m 257
 93 387 l 257
 553 387 l 257
 553 377 l 257
 93 377 l 257
546 700 m 257
 557 700 l 257
 557 0 l 257
 546 0 l 257
 546 700 l 257
90 700 m 257
 101 700 l 257
 101 0 l 257
 90 0 l 257
 90 700 l 257
324 903 m 257
 170 768 l 257
 164 775 l 257
 324 915 l 257
 484 775 l 257
 476 768 l 257
 324 903 l 257
EndSplineSet
EndChar

StartChar: hcircumflex
Encoding: 293 293 282
GlifName: hcircumflex
Width: 475
VWidth: 0
Flags: HMW
LayerCount: 2
Fore
SplineSet
95 780 m 257
 95 0 l 257
 85 0 l 257
 85 780 l 257
 95 780 l 257
380 320 m 258
 380 401 347 460 257 460 c 256
 166 460 95 375 95 280 c 257
 90 280 l 257
 90 389 162 470 257 470 c 256
 352 470 390 409 390 320 c 258
 390 0 l 257
 380 0 l 257
 380 320 l 258
98 975 m 257
 -56 840 l 257
 -62 847 l 257
 98 987 l 257
 258 847 l 257
 250 840 l 257
 98 975 l 257
EndSplineSet
EndChar

StartChar: Itilde
Encoding: 296 296 283
GlifName: I_tilde
Width: 180
VWidth: 0
Flags: HMW
LayerCount: 2
Fore
SplineSet
85 700 m 257
 95 700 l 257
 95 0 l 257
 85 0 l 257
 85 700 l 257
-25 831 m 257
 -25 860 -8 889 37 889 c 256
 92 889 107 842 161 842 c 256
 190 842 202 858 217 890 c 257
 226 887 l 257
 210 850 190 834 160 834 c 256
 105 834 84 881 39 881 c 256
 -2 881 -16 855 -16 830 c 257
 -25 831 l 257
EndSplineSet
EndChar

StartChar: itilde
Encoding: 297 297 284
GlifName: itilde
Width: 190
VWidth: 0
Flags: HMW
LayerCount: 2
Fore
SplineSet
90 460 m 257
 100 460 l 257
 100 0 l 257
 90 0 l 257
 90 460 l 257
-18 591 m 257
 -18 620 -1 649 44 649 c 256
 99 649 114 602 168 602 c 256
 197 602 209 618 224 650 c 257
 233 647 l 257
 217 610 197 594 167 594 c 256
 112 594 91 641 46 641 c 256
 5 641 -9 615 -9 590 c 257
 -18 591 l 257
EndSplineSet
EndChar

StartChar: Imacron
Encoding: 298 298 285
GlifName: I_macron
Width: 180
VWidth: 0
Flags: HMW
LayerCount: 2
Fore
SplineSet
85 700 m 257
 95 700 l 257
 95 0 l 257
 85 0 l 257
 85 700 l 257
-52 835 m 257
 -52 845 l 257
 298 845 l 257
 298 835 l 257
 -52 835 l 257
EndSplineSet
EndChar

StartChar: imacron
Encoding: 299 299 286
GlifName: imacron
Width: 190
VWidth: 0
Flags: HMW
LayerCount: 2
Fore
SplineSet
90 460 m 257
 100 460 l 257
 100 0 l 257
 90 0 l 257
 90 460 l 257
-45 595 m 257
 -45 605 l 257
 305 605 l 257
 305 595 l 257
 -45 595 l 257
EndSplineSet
EndChar

StartChar: Ibreve
Encoding: 300 300 287
GlifName: I_breve
Width: 180
VWidth: 0
Flags: HMW
LayerCount: 2
Fore
SplineSet
85 700 m 257
 95 700 l 257
 95 0 l 257
 85 0 l 257
 85 700 l 257
-70 910 m 257
 -60 910 l 257
 -60 844 -4 780 88 780 c 256
 180 780 236 844 236 910 c 257
 246 910 l 257
 246 841 193 770 88 770 c 256
 -17 770 -70 841 -70 910 c 257
EndSplineSet
EndChar

StartChar: ibreve
Encoding: 301 301 288
GlifName: ibreve
Width: 190
VWidth: 0
Flags: HMW
LayerCount: 2
Fore
SplineSet
90 460 m 257
 100 460 l 257
 100 0 l 257
 90 0 l 257
 90 460 l 257
-63 670 m 257
 -53 670 l 257
 -53 604 3 540 95 540 c 256
 187 540 243 604 243 670 c 257
 253 670 l 257
 253 601 200 530 95 530 c 256
 -10 530 -63 601 -63 670 c 257
EndSplineSet
EndChar

StartChar: Iogonek
Encoding: 302 302 289
GlifName: I_ogonek
Width: 180
VWidth: 0
Flags: HMW
LayerCount: 2
Fore
SplineSet
85 700 m 257
 95 700 l 257
 95 0 l 257
 85 0 l 257
 85 700 l 257
129 -173 m 257
 136 -180 l 257
 121 -200 81 -220 38 -220 c 256
 -26 -220 -65 -189 -65 -140 c 256
 -65 -71 18 -26 88 10 c 257
 95 0 l 257
 27 -32 -55 -83 -55 -140 c 256
 -55 -186 -12 -210 38 -210 c 256
 78 -210 114 -191 129 -173 c 257
EndSplineSet
EndChar

StartChar: iogonek
Encoding: 303 303 290
GlifName: iogonek
Width: 190
VWidth: 0
Flags: HMW
LayerCount: 2
Fore
SplineSet
85 695 m 256
 85 701 88 705 95 705 c 256
 102 705 105 701 105 695 c 256
 105 689 102 685 95 685 c 256
 88 685 85 689 85 695 c 256
90 460 m 257
 100 460 l 257
 100 0 l 257
 90 0 l 257
 90 460 l 257
134 -173 m 257
 141 -180 l 257
 126 -200 86 -220 43 -220 c 256
 -21 -220 -60 -189 -60 -140 c 256
 -60 -71 23 -26 93 10 c 257
 100 0 l 257
 32 -32 -50 -83 -50 -140 c 256
 -50 -186 -7 -210 43 -210 c 256
 83 -210 119 -191 134 -173 c 257
EndSplineSet
EndChar

StartChar: Idotaccent
Encoding: 304 304 291
GlifName: I_dotaccent
Width: 180
VWidth: 0
Flags: HMW
LayerCount: 2
Fore
SplineSet
85 700 m 257
 95 700 l 257
 95 0 l 257
 85 0 l 257
 85 700 l 257
79 786 m 256
 79 793 84 797 90 797 c 256
 96 797 101 793 101 786 c 256
 101 779 96 775 90 775 c 256
 84 775 79 779 79 786 c 256
EndSplineSet
EndChar

StartChar: uni0136
Encoding: 310 310 292
GlifName: uni0136
Width: 454
VWidth: 0
Flags: HMW
LayerCount: 2
Fore
SplineSet
85 700 m 257
 96 700 l 257
 96 0 l 257
 85 0 l 257
 85 700 l 257
408 700 m 257
 424 700 l 257
 109 372 l 257
 439 0 l 257
 422 0 l 257
 94 372 l 257
 408 700 l 257
309 -60 m 257
 320 -65 l 257
 210 -315 l 257
 204 -313 l 257
 309 -60 l 257
EndSplineSet
EndChar

StartChar: uni0137
Encoding: 311 311 293
GlifName: uni0137
Width: 372
VWidth: 0
Flags: HMW
LayerCount: 2
Fore
SplineSet
80 780 m 257
 90 780 l 257
 90 0 l 257
 80 0 l 257
 80 780 l 257
328 460 m 257
 344 460 l 257
 102 270 l 257
 362 0 l 257
 348 0 l 257
 88 270 l 257
 328 460 l 257
268 -60 m 257
 279 -65 l 257
 169 -315 l 257
 163 -313 l 257
 268 -60 l 257
EndSplineSet
EndChar

StartChar: Lacute
Encoding: 313 313 294
GlifName: L_acute
Width: 430
VWidth: 0
Flags: HMW
LayerCount: 2
Fore
SplineSet
90 700 m 257
 100 700 l 257
 100 10 l 257
 410 10 l 257
 410 0 l 257
 90 0 l 257
 90 700 l 257
426 925 m 257
 252 768 l 257
 248 773 l 257
 418 933 l 257
 426 925 l 257
EndSplineSet
EndChar

StartChar: lacute
Encoding: 314 314 295
GlifName: lacute
Width: 180
VWidth: 0
Flags: HMW
LayerCount: 2
Fore
SplineSet
85 780 m 257
 95 780 l 257
 95 0 l 257
 85 0 l 257
 85 780 l 257
266 997 m 257
 92 840 l 257
 88 845 l 257
 258 1005 l 257
 266 997 l 257
EndSplineSet
EndChar

StartChar: uni013B
Encoding: 315 315 296
GlifName: uni013B_
Width: 430
VWidth: 0
Flags: HMW
LayerCount: 2
Fore
SplineSet
90 700 m 257
 100 700 l 257
 100 10 l 257
 410 10 l 257
 410 0 l 257
 90 0 l 257
 90 700 l 257
257 -60 m 257
 268 -65 l 257
 158 -315 l 257
 152 -313 l 257
 257 -60 l 257
EndSplineSet
EndChar

StartChar: uni013C
Encoding: 316 316 297
GlifName: uni013C_
Width: 180
VWidth: 0
Flags: HMW
LayerCount: 2
Fore
SplineSet
85 780 m 257
 95 780 l 257
 95 0 l 257
 85 0 l 257
 85 780 l 257
117 -60 m 257
 128 -65 l 257
 18 -315 l 257
 12 -313 l 257
 117 -60 l 257
EndSplineSet
EndChar

StartChar: Lcaron
Encoding: 317 317 298
GlifName: L_caron
Width: 430
VWidth: 0
Flags: HMW
LayerCount: 2
Fore
SplineSet
90 700 m 257
 100 700 l 257
 100 10 l 257
 410 10 l 257
 410 0 l 257
 90 0 l 257
 90 700 l 257
345 708 m 257
 356 703 l 257
 246 453 l 257
 240 455 l 257
 345 708 l 257
EndSplineSet
EndChar

StartChar: lcaron
Encoding: 318 318 299
GlifName: lcaron
Width: 230
VWidth: 0
Flags: HMW
LayerCount: 2
Fore
SplineSet
85 780 m 257
 95 780 l 257
 95 0 l 257
 85 0 l 257
 85 780 l 257
320 764 m 257
 331 759 l 257
 221 509 l 257
 215 511 l 257
 320 764 l 257
EndSplineSet
EndChar

StartChar: Ldot
Encoding: 319 319 300
GlifName: L_dot
Width: 430
VWidth: 0
Flags: HMW
LayerCount: 2
Fore
SplineSet
90 700 m 257
 100 700 l 257
 100 10 l 257
 410 10 l 257
 410 0 l 257
 90 0 l 257
 90 700 l 257
269 414 m 256
 269 421 274 425 280 425 c 256
 286 425 291 421 291 414 c 256
 291 407 286 403 280 403 c 256
 274 403 269 407 269 414 c 256
EndSplineSet
EndChar

StartChar: ldot
Encoding: 320 320 301
GlifName: ldot
Width: 370
VWidth: 0
Flags: HMW
LayerCount: 2
Fore
SplineSet
85 780 m 257
 95 780 l 257
 95 0 l 257
 85 0 l 257
 85 780 l 257
230 396 m 256
 230 403 235 407 241 407 c 256
 247 407 252 403 252 396 c 256
 252 389 247 385 241 385 c 256
 235 385 230 389 230 396 c 256
EndSplineSet
EndChar

StartChar: eth
Encoding: 240 240 302
GlifName: eth
Width: 536
VWidth: 0
Flags: HMW
LayerCount: 2
Fore
SplineSet
476 220 m 256
 476 326 397 427 257 427 c 256
 153 427 60 336 60 220 c 256
 60 94 143 0 268 0 c 256
 398 0 476 101 476 220 c 256
206 700 m 257
 430 379 l 258
 457 342 486 277 486 220 c 256
 486 86 403 -10 268 -10 c 256
 133 -10 50 86 50 220 c 256
 50 339 143 437 257 437 c 256
 332 437 394 407 436 355 c 257
 436 355 l 257
 194 700 l 257
 206 700 l 257
145 575 m 257
 145 585 l 257
 415 585 l 257
 415 575 l 257
 145 575 l 257
EndSplineSet
EndChar

StartChar: racute
Encoding: 341 341 303
GlifName: racute
Width: 290
VWidth: 0
Flags: HMW
LayerCount: 2
Fore
SplineSet
95 460 m 257
 95 0 l 257
 85 0 l 257
 85 460 l 257
 95 460 l 257
269 440 m 257
 252 452 232 460 212 460 c 256
 132 460 95 376 95 280 c 257
 90 280 l 257
 90 389 127 470 212 470 c 256
 235 470 258 460 275 448 c 257
 269 440 l 257
316 687 m 257
 142 530 l 257
 138 535 l 257
 308 695 l 257
 316 687 l 257
EndSplineSet
EndChar

StartChar: rcaron
Encoding: 345 345 304
GlifName: rcaron
Width: 290
VWidth: 0
Flags: HMW
LayerCount: 2
Fore
SplineSet
95 460 m 257
 95 0 l 257
 85 0 l 257
 85 460 l 257
 95 460 l 257
269 440 m 257
 252 452 232 460 212 460 c 256
 132 460 95 376 95 280 c 257
 90 280 l 257
 90 389 127 470 212 470 c 256
 235 470 258 460 275 448 c 257
 269 440 l 257
180 542 m 257
 332 678 l 257
 340 670 l 257
 180 530 l 257
 20 670 l 257
 28 678 l 257
 180 542 l 257
EndSplineSet
EndChar

StartChar: Rcaron
Encoding: 344 344 305
GlifName: R_caron
Width: 468
VWidth: 0
Flags: HMW
LayerCount: 2
Fore
SplineSet
199 317 m 257
 211 317 l 257
 433 0 l 257
 419 0 l 257
 199 317 l 257
90 700 m 257
 101 700 l 257
 101 0 l 257
 90 0 l 257
 90 700 l 257
92 689 m 257
 92 700 l 257
 205 700 l 258
 340 700 441 636 441 507 c 256
 441 378 340 314 205 314 c 258
 92 314 l 257
 92 324 l 257
 205 324 l 258
 337 324 430 384 430 507 c 256
 430 630 336 689 205 689 c 258
 92 689 l 257
228 780 m 257
 380 916 l 257
 388 908 l 257
 228 768 l 257
 68 908 l 257
 76 916 l 257
 228 780 l 257
EndSplineSet
EndChar

StartChar: uni0213
Encoding: 531 531 306
GlifName: uni0213
Width: 290
VWidth: 0
Flags: HMW
LayerCount: 2
Fore
SplineSet
95 460 m 257
 95 0 l 257
 85 0 l 257
 85 460 l 257
 95 460 l 257
269 440 m 257
 252 452 232 460 212 460 c 256
 132 460 95 376 95 280 c 257
 90 280 l 257
 90 389 127 470 212 470 c 256
 235 470 258 460 275 448 c 257
 269 440 l 257
22 550 m 257
 32 550 l 257
 32 616 88 680 180 680 c 256
 272 680 328 616 328 550 c 257
 338 550 l 257
 338 619 285 690 180 690 c 256
 75 690 22 619 22 550 c 257
EndSplineSet
EndChar

StartChar: uni0212
Encoding: 530 530 307
GlifName: uni0212
Width: 468
VWidth: 0
Flags: HMW
LayerCount: 2
Fore
SplineSet
199 317 m 257
 211 317 l 257
 433 0 l 257
 419 0 l 257
 199 317 l 257
90 700 m 257
 101 700 l 257
 101 0 l 257
 90 0 l 257
 90 700 l 257
92 689 m 257
 92 700 l 257
 205 700 l 258
 340 700 441 636 441 507 c 256
 441 378 340 314 205 314 c 258
 92 314 l 257
 92 324 l 257
 205 324 l 258
 337 324 430 384 430 507 c 256
 430 630 336 689 205 689 c 258
 92 689 l 257
100 768 m 257
 110 768 l 257
 110 834 166 898 258 898 c 256
 350 898 406 834 406 768 c 257
 416 768 l 257
 416 837 363 908 258 908 c 256
 153 908 100 837 100 768 c 257
EndSplineSet
EndChar

StartChar: OE
Encoding: 338 338 308
GlifName: O_E_
Width: 951
VWidth: 0
Flags: HMW
LayerCount: 2
Fore
SplineSet
517 385 m 257
 517 395 l 257
 850 395 l 257
 850 385 l 257
 517 385 l 257
515 695 m 257
 526 695 l 257
 526 5 l 257
 515 5 l 257
 515 695 l 257
871 10 m 257
 871 0 l 257
 390 0 l 258
 187 0 40 141 40 350 c 256
 40 559 186 700 390 700 c 258
 870 700 l 257
 870 690 l 257
 523 690 l 257
 506 690 l 257
 390 690 l 258
 197 690 50 548 50 350 c 256
 50 152 198 10 390 10 c 258
 503 10 l 257
 527 10 l 257
 871 10 l 257
EndSplineSet
EndChar

StartChar: oe
Encoding: 339 339 309
GlifName: oe
Width: 926
VWidth: 0
Flags: HMW
LayerCount: 2
Fore
SplineSet
870 250 m 256
 870 356 788 460 668 460 c 256
 538 460 458 348 458 232 c 257
 458 232 l 257
 458 96 548 0 668 0 c 256
 763 0 826 47 865 113 c 257
 873 106 l 257
 827 36 767 -10 668 -10 c 256
 533 -10 452 101 452 230 c 256
 452 247 453 263 456 279 c 256
 475 392 559 470 668 470 c 256
 778 470 881 378 881 253 c 256
 881 245 880 236 879 228 c 257
 869 229 l 257
 870 250 l 256
455 228 m 257
 455 238 l 257
 879 238 l 257
 879 228 l 257
 455 228 l 257
45 230 m 256
 45 379 138 470 253 470 c 256
 358 470 458 379 458 230 c 256
 458 81 358 -10 253 -10 c 256
 138 -10 45 81 45 230 c 256
55 230 m 256
 55 89 142 0 256 0 c 256
 356 0 451 94 451 230 c 256
 451 366 356 460 256 460 c 256
 142 460 55 371 55 230 c 256
EndSplineSet
EndChar

StartChar: a.alt
Encoding: 65536 -1 310
GlifName: a.alt
Width: 541
VWidth: 0
Flags: HMW
LayerCount: 2
Fore
SplineSet
451 460 m 257
 461 460 l 257
 461 0 l 257
 451 0 l 257
 451 460 l 257
45 230 m 256
 45 377 138 470 258 470 c 256
 381 470 456 349 456 230 c 256
 456 111 381 -10 258 -10 c 256
 138 -10 45 83 45 230 c 256
55 230 m 256
 55 89 145 0 261 0 c 256
 370 0 451 114 451 230 c 256
 451 346 370 460 261 460 c 256
 145 460 55 371 55 230 c 256
EndSplineSet
EndChar

StartChar: Jcircumflex
Encoding: 308 308 312
GlifName: J_circumflex
Width: 197
VWidth: 0
Flags: HMW
LayerCount: 2
Fore
SplineSet
-127 -158 m 257
 -103 -182 -63 -209 -17 -209 c 256
 72 -209 96 -166 96 -50 c 258
 96 700 l 257
 107 700 l 257
 107 -60 l 258
 107 -169 78 -220 -16 -220 c 256
 -69 -220 -119 -185 -134 -165 c 257
 -127 -158 l 257
102 903 m 257
 -52 768 l 257
 -58 775 l 257
 102 915 l 257
 262 775 l 257
 254 768 l 257
 102 903 l 257
EndSplineSet
EndChar

StartChar: jcircumflex
Encoding: 309 309 313
GlifName: jcircumflex
Width: 180
VWidth: 0
Flags: HMW
LayerCount: 2
Fore
SplineSet
-96 -165 m 257
 -80 -185 -55 -210 -18 -210 c 256
 62 -210 80 -138 80 -82 c 258
 80 460 l 257
 90 460 l 257
 90 -82 l 258
 90 -151 66 -220 -18 -220 c 256
 -61 -220 -88 -192 -103 -172 c 257
 -96 -165 l 257
85 665 m 257
 -68 530 l 257
 -75 537 l 257
 85 677 l 257
 245 537 l 257
 238 530 l 257
 85 665 l 257
EndSplineSet
EndChar

StartChar: Nacute
Encoding: 323 323 314
GlifName: N_acute
Width: 665
VWidth: 0
Flags: HMW
LayerCount: 2
Fore
SplineSet
584 700 m 257
 595 700 l 257
 595 -15 l 257
 61 678 l 257
 61 0 l 257
 50 0 l 257
 50 715 l 257
 584 17 l 257
 584 700 l 257
476 912 m 257
 302 755 l 257
 298 760 l 257
 468 920 l 257
 476 912 l 257
EndSplineSet
EndChar

StartChar: nacute
Encoding: 324 324 315
GlifName: nacute
Width: 475
VWidth: 0
Flags: HMW
LayerCount: 2
Fore
SplineSet
95 460 m 257
 95 0 l 257
 85 0 l 257
 85 460 l 257
 95 460 l 257
380 320 m 258
 380 401 347 460 257 460 c 256
 166 460 95 375 95 280 c 257
 90 280 l 257
 90 389 162 470 257 470 c 256
 352 470 390 409 390 320 c 258
 390 0 l 257
 380 0 l 257
 380 320 l 258
383 697 m 257
 210 540 l 257
 205 545 l 257
 375 705 l 257
 383 697 l 257
EndSplineSet
EndChar

StartChar: uni0145
Encoding: 325 325 316
GlifName: uni0145
Width: 665
VWidth: 0
Flags: HMW
LayerCount: 2
Fore
SplineSet
342 -45 m 257
 353 -50 l 257
 243 -300 l 257
 237 -298 l 257
 342 -45 l 257
584 700 m 257
 595 700 l 257
 595 -15 l 257
 61 678 l 257
 61 0 l 257
 50 0 l 257
 50 715 l 257
 584 17 l 257
 584 700 l 257
EndSplineSet
EndChar

StartChar: uni0146
Encoding: 326 326 317
GlifName: uni0146
Width: 475
VWidth: 0
Flags: HMW
LayerCount: 2
Fore
SplineSet
95 460 m 257
 95 0 l 257
 85 0 l 257
 85 460 l 257
 95 460 l 257
380 320 m 258
 380 401 347 460 257 460 c 256
 166 460 95 375 95 280 c 257
 90 280 l 257
 90 389 162 470 257 470 c 256
 352 470 390 409 390 320 c 258
 390 0 l 257
 380 0 l 257
 380 320 l 258
254 -40 m 257
 266 -45 l 257
 156 -295 l 257
 150 -293 l 257
 254 -40 l 257
EndSplineSet
EndChar

StartChar: Ncaron
Encoding: 327 327 318
GlifName: N_caron
Width: 665
VWidth: 0
Flags: HMW
LayerCount: 2
Fore
SplineSet
340 777 m 257
 492 913 l 257
 500 905 l 257
 340 765 l 257
 180 905 l 257
 188 913 l 257
 340 777 l 257
584 700 m 257
 595 700 l 257
 595 -15 l 257
 61 678 l 257
 61 0 l 257
 50 0 l 257
 50 715 l 257
 584 17 l 257
 584 700 l 257
EndSplineSet
EndChar

StartChar: ncaron
Encoding: 328 328 319
GlifName: ncaron
Width: 475
VWidth: 0
Flags: HMW
LayerCount: 2
Fore
SplineSet
95 460 m 257
 95 0 l 257
 85 0 l 257
 85 460 l 257
 95 460 l 257
380 320 m 258
 380 401 347 460 257 460 c 256
 166 460 95 375 95 280 c 257
 90 280 l 257
 90 389 162 470 257 470 c 256
 352 470 390 409 390 320 c 258
 390 0 l 257
 380 0 l 257
 380 320 l 258
238 542 m 257
 390 678 l 257
 398 670 l 257
 238 530 l 257
 78 670 l 257
 86 678 l 257
 238 542 l 257
EndSplineSet
EndChar

StartChar: Omacron
Encoding: 332 332 320
GlifName: O_macron
Width: 774
VWidth: 0
Flags: HMW
LayerCount: 2
Fore
SplineSet
61 350 m 256
 61 149 196 3 387 3 c 256
 578 3 713 149 713 350 c 256
 713 551 578 697 387 697 c 256
 196 697 61 551 61 350 c 256
50 350 m 256
 50 559 193 708 387 708 c 256
 581 708 724 559 724 350 c 256
 724 141 581 -8 387 -8 c 256
 193 -8 50 141 50 350 c 256
212 788 m 257
 212 798 l 257
 562 798 l 257
 562 788 l 257
 212 788 l 257
EndSplineSet
EndChar

StartChar: omacron
Encoding: 333 333 321
GlifName: omacron
Width: 556
VWidth: 0
Flags: HMW
LayerCount: 2
Fore
SplineSet
45 230 m 256
 45 369 146 470 278 470 c 256
 410 470 511 369 511 230 c 256
 511 91 410 -10 278 -10 c 256
 146 -10 45 91 45 230 c 256
55 230 m 256
 55 96 153 0 278 0 c 256
 403 0 501 96 501 230 c 256
 501 364 403 460 278 460 c 256
 153 460 55 364 55 230 c 256
103 550 m 257
 103 560 l 257
 453 560 l 257
 453 550 l 257
 103 550 l 257
EndSplineSet
EndChar

StartChar: Obreve
Encoding: 334 334 322
GlifName: O_breve
Width: 774
VWidth: 0
Flags: HMW
LayerCount: 2
Fore
SplineSet
61 350 m 256
 61 149 196 3 387 3 c 256
 578 3 713 149 713 350 c 256
 713 551 578 697 387 697 c 256
 196 697 61 551 61 350 c 256
50 350 m 256
 50 559 193 708 387 708 c 256
 581 708 724 559 724 350 c 256
 724 141 581 -8 387 -8 c 256
 193 -8 50 141 50 350 c 256
229 908 m 257
 239 908 l 257
 239 842 295 778 387 778 c 256
 479 778 535 842 535 908 c 257
 545 908 l 257
 545 839 492 768 387 768 c 256
 282 768 229 839 229 908 c 257
EndSplineSet
EndChar

StartChar: obreve
Encoding: 335 335 323
GlifName: obreve
Width: 556
VWidth: 0
Flags: HMW
LayerCount: 2
Fore
SplineSet
45 230 m 256
 45 369 146 470 278 470 c 256
 410 470 511 369 511 230 c 256
 511 91 410 -10 278 -10 c 256
 146 -10 45 91 45 230 c 256
55 230 m 256
 55 96 153 0 278 0 c 256
 403 0 501 96 501 230 c 256
 501 364 403 460 278 460 c 256
 153 460 55 364 55 230 c 256
120 670 m 257
 130 670 l 257
 130 604 186 540 278 540 c 256
 370 540 426 604 426 670 c 257
 436 670 l 257
 436 601 383 530 278 530 c 256
 173 530 120 601 120 670 c 257
EndSplineSet
EndChar

StartChar: Racute
Encoding: 340 340 324
GlifName: R_acute
Width: 468
VWidth: 0
Flags: HMW
LayerCount: 2
Fore
SplineSet
199 317 m 257
 211 317 l 257
 433 0 l 257
 419 0 l 257
 199 317 l 257
90 700 m 257
 101 700 l 257
 101 0 l 257
 90 0 l 257
 90 700 l 257
92 689 m 257
 92 700 l 257
 205 700 l 258
 340 700 441 636 441 507 c 256
 441 378 340 314 205 314 c 258
 92 314 l 257
 92 324 l 257
 205 324 l 258
 337 324 430 384 430 507 c 256
 430 630 336 689 205 689 c 258
 92 689 l 257
363 925 m 257
 190 768 l 257
 185 773 l 257
 355 933 l 257
 363 925 l 257
EndSplineSet
EndChar

StartChar: uni0156
Encoding: 342 342 325
GlifName: uni0156
Width: 468
VWidth: 0
Flags: HMW
LayerCount: 2
Fore
SplineSet
199 317 m 257
 211 317 l 257
 433 0 l 257
 419 0 l 257
 199 317 l 257
90 700 m 257
 101 700 l 257
 101 0 l 257
 90 0 l 257
 90 700 l 257
92 689 m 257
 92 700 l 257
 205 700 l 258
 340 700 441 636 441 507 c 256
 441 378 340 314 205 314 c 258
 92 314 l 257
 92 324 l 257
 205 324 l 258
 337 324 430 384 430 507 c 256
 430 630 336 689 205 689 c 258
 92 689 l 257
258 -60 m 257
 270 -65 l 257
 160 -315 l 257
 154 -313 l 257
 258 -60 l 257
EndSplineSet
EndChar

StartChar: uni0157
Encoding: 343 343 326
GlifName: uni0157
Width: 290
VWidth: 0
Flags: HMW
LayerCount: 2
Fore
SplineSet
95 460 m 257
 95 0 l 257
 85 0 l 257
 85 460 l 257
 95 460 l 257
269 440 m 257
 252 452 232 460 212 460 c 256
 132 460 95 376 95 280 c 257
 90 280 l 257
 90 389 127 470 212 470 c 256
 235 470 258 460 275 448 c 257
 269 440 l 257
97 -60 m 257
 108 -65 l 257
 -2 -315 l 257
 -8 -313 l 257
 97 -60 l 257
EndSplineSet
EndChar

StartChar: Scedilla
Encoding: 350 350 327
GlifName: S_cedilla
Width: 488
VWidth: 0
Flags: HMW
LayerCount: 2
Fore
SplineSet
50 197 m 257
 77 109 134 3 255 3 c 256
 385 3 432 77 432 175 c 256
 432 278 343 331 267 359 c 256
 187 388 80 442 80 550 c 256
 80 646 159 708 253 708 c 256
 366 708 421 621 439 550 c 257
 429 548 l 257
 410 615 359 697 253 697 c 256
 163 697 91 636 91 550 c 256
 91 450 188 399 273 368 c 256
 356 338 443 283 443 175 c 256
 443 76 394 -8 255 -8 c 256
 130 -8 69 96 40 193 c 257
 50 197 l 257
249 -1 m 257
 261 -1 l 257
 205 -77 l 257
 231 -61 242 -53 275 -53 c 256
 308 -53 348 -78 348 -127 c 256
 348 -188 296 -221 241 -221 c 256
 204 -221 180 -211 152 -183 c 257
 159 -177 l 257
 187 -201 208 -211 241 -211 c 256
 288 -211 338 -183 338 -127 c 256
 338 -83 304 -63 275 -63 c 256
 245 -63 217 -73 194 -89 c 257
 249 -1 l 257
EndSplineSet
EndChar

StartChar: scedilla
Encoding: 351 351 328
GlifName: scedilla
Width: 403
VWidth: 0
Flags: HMW
LayerCount: 2
Fore
SplineSet
50 147 m 257
 64 76 101 0 198 0 c 256
 270 0 322 45 322 117 c 256
 322 183 265 211 197 231 c 256
 124 252 67 272 67 359 c 256
 67 430 125 468 197 468 c 256
 277 468 313 419 331 368 c 257
 321 365 l 257
 304 413 269 458 197 458 c 256
 132 458 77 424 77 359 c 256
 77 278 133 260 203 240 c 256
 269 221 332 189 332 117 c 256
 332 38 277 -10 198 -10 c 256
 93 -10 54 69 40 144 c 257
 50 147 l 257
192 -3 m 257
 204 -3 l 257
 148 -79 l 257
 174 -63 185 -55 218 -55 c 256
 251 -55 291 -80 291 -129 c 256
 291 -190 239 -223 184 -223 c 256
 147 -223 123 -213 95 -185 c 257
 102 -179 l 257
 130 -203 151 -213 184 -213 c 256
 231 -213 281 -185 281 -129 c 256
 281 -85 247 -65 218 -65 c 256
 188 -65 160 -75 137 -91 c 257
 192 -3 l 257
EndSplineSet
EndChar

StartChar: Zcaron
Encoding: 381 381 329
GlifName: Z_caron
Width: 535
VWidth: 0
Flags: HMW
LayerCount: 2
Fore
SplineSet
40 689 m 257
 40 700 l 257
 520 700 l 257
 42 11 l 257
 510 11 l 257
 510 0 l 257
 20 0 l 257
 498 689 l 257
 40 689 l 257
280 780 m 257
 432 916 l 257
 440 908 l 257
 280 768 l 257
 120 908 l 257
 128 916 l 257
 280 780 l 257
EndSplineSet
EndChar

StartChar: zcaron
Encoding: 382 382 330
GlifName: zcaron
Width: 430
VWidth: 0
Flags: HMW
LayerCount: 2
Fore
SplineSet
220 542 m 257
 372 678 l 257
 380 670 l 257
 220 530 l 257
 60 670 l 257
 68 678 l 257
 220 542 l 257
380 450 m 257
 40 450 l 257
 40 460 l 257
 400 460 l 257
 40 10 l 257
 410 10 l 257
 410 0 l 257
 20 0 l 257
 380 450 l 257
EndSplineSet
EndChar

StartChar: Ydieresis
Encoding: 376 376 331
GlifName: Y_dieresis
Width: 507
VWidth: 0
Flags: HMW
LayerCount: 2
Fore
SplineSet
152 779 m 256
 152 786 158 790 164 790 c 256
 170 790 175 786 175 779 c 256
 175 772 170 768 164 768 c 256
 158 768 152 772 152 779 c 256
332 779 m 256
 332 786 338 790 344 790 c 256
 350 790 355 786 355 779 c 256
 355 772 350 768 344 768 c 256
 338 768 332 772 332 779 c 256
479 700 m 257
 492 700 l 257
 254 267 l 257
 254 0 l 257
 243 0 l 257
 243 266 l 257
 15 700 l 257
 28 700 l 257
 248 281 l 257
 479 700 l 257
EndSplineSet
EndChar

StartChar: Scaron
Encoding: 352 352 332
GlifName: S_caron
Width: 488
VWidth: 0
Flags: HMW
LayerCount: 2
Fore
SplineSet
50 197 m 257
 77 109 134 3 255 3 c 256
 385 3 432 77 432 175 c 256
 432 278 343 331 267 359 c 256
 187 388 80 442 80 550 c 256
 80 646 159 708 253 708 c 256
 366 708 421 621 439 550 c 257
 429 548 l 257
 410 615 359 697 253 697 c 256
 163 697 91 636 91 550 c 256
 91 450 188 399 273 368 c 256
 356 338 443 283 443 175 c 256
 443 76 394 -8 255 -8 c 256
 130 -8 69 96 40 193 c 257
 50 197 l 257
253 790 m 257
 405 926 l 257
 413 918 l 257
 253 778 l 257
 93 918 l 257
 101 926 l 257
 253 790 l 257
EndSplineSet
EndChar

StartChar: scaron
Encoding: 353 353 333
GlifName: scaron
Width: 403
VWidth: 0
Flags: HMW
LayerCount: 2
Fore
SplineSet
50 147 m 257
 64 76 101 0 198 0 c 256
 270 0 322 45 322 117 c 256
 322 183 265 211 197 231 c 256
 124 252 67 272 67 359 c 256
 67 430 125 468 197 468 c 256
 277 468 313 419 331 368 c 257
 321 365 l 257
 304 413 269 458 197 458 c 256
 132 458 77 424 77 359 c 256
 77 278 133 260 203 240 c 256
 269 221 332 189 332 117 c 256
 332 38 277 -10 198 -10 c 256
 93 -10 54 69 40 144 c 257
 50 147 l 257
197 542 m 257
 349 678 l 257
 357 670 l 257
 197 530 l 257
 37 670 l 257
 45 678 l 257
 197 542 l 257
EndSplineSet
EndChar

StartChar: Lslash
Encoding: 321 321 334
GlifName: L_slash
Width: 375
VWidth: 0
Flags: HMW
LayerCount: 2
Fore
SplineSet
-9 387 m 257
 -15 395 l 257
 255 565 l 257
 261 557 l 257
 -9 387 l 257
80 700 m 257
 91 700 l 257
 91 10 l 257
 365 10 l 257
 365 0 l 257
 80 0 l 257
 80 700 l 257
EndSplineSet
EndChar

StartChar: lslash
Encoding: 322 322 335
GlifName: lslash
Width: 160
VWidth: 0
Flags: HMW
LayerCount: 2
Fore
SplineSet
-8 387 m 257
 -15 395 l 257
 165 545 l 257
 172 537 l 257
 -8 387 l 257
75 780 m 257
 85 780 l 257
 85 0 l 257
 75 0 l 257
 75 780 l 257
EndSplineSet
EndChar

StartChar: uni0218
Encoding: 536 536 336
GlifName: uni0218
Width: 488
VWidth: 0
Flags: HMW
LayerCount: 2
Fore
SplineSet
50 197 m 257
 77 109 134 3 255 3 c 256
 385 3 432 77 432 175 c 256
 432 278 343 331 267 359 c 256
 187 388 80 442 80 550 c 256
 80 646 159 708 253 708 c 256
 366 708 421 621 439 550 c 257
 429 548 l 257
 410 615 359 697 253 697 c 256
 163 697 91 636 91 550 c 256
 91 450 188 399 273 368 c 256
 356 338 443 283 443 175 c 256
 443 76 394 -8 255 -8 c 256
 130 -8 69 96 40 193 c 257
 50 197 l 257
302 -68 m 257
 313 -73 l 257
 203 -323 l 257
 197 -321 l 257
 302 -68 l 257
EndSplineSet
EndChar

StartChar: uni0219
Encoding: 537 537 337
GlifName: uni0219
Width: 403
VWidth: 0
Flags: HMW
LayerCount: 2
Fore
SplineSet
50 147 m 257
 64 76 101 0 198 0 c 256
 270 0 322 45 322 117 c 256
 322 183 265 211 197 231 c 256
 124 252 67 272 67 359 c 256
 67 430 125 468 197 468 c 256
 277 468 313 419 331 368 c 257
 321 365 l 257
 304 413 269 458 197 458 c 256
 132 458 77 424 77 359 c 256
 77 278 133 260 203 240 c 256
 269 221 332 189 332 117 c 256
 332 38 277 -10 198 -10 c 256
 93 -10 54 69 40 144 c 257
 50 147 l 257
245 -70 m 257
 256 -75 l 257
 146 -325 l 257
 140 -323 l 257
 245 -70 l 257
EndSplineSet
EndChar

StartChar: pi
Encoding: 960 960 338
GlifName: pi
Width: 470
VWidth: 0
Flags: HMW
LayerCount: 2
Fore
SplineSet
90 450 m 257
 100 450 l 257
 100 0 l 257
 90 0 l 257
 90 450 l 257
30 460 m 257
 430 460 l 257
 430 450 l 257
 30 450 l 257
 30 460 l 257
340 450 m 257
 350 450 l 257
 350 121 l 258
 350 25 353 1 403 1 c 257
 403 -9 l 257
 349 -9 340 12 340 121 c 258
 340 450 l 257
EndSplineSet
EndChar

StartChar: trademark
Encoding: 8482 8482 339
GlifName: trademark
Width: 665
VWidth: 0
Flags: HMW
LayerCount: 2
Fore
SplineSet
38 694 m 257
 38 700 l 257
 234 700 l 257
 234 694 l 257
 138 694 l 257
 138 350 l 257
 133 350 l 257
 133 694 l 257
 38 694 l 257
592 688 m 257
 596 708 l 257
 633 350 l 257
 628 350 l 257
 592 688 l 257
316 708 m 257
 319 688 l 257
 284 350 l 257
 278 350 l 257
 316 708 l 257
596 708 m 257
 592 688 l 257
 456 402 l 257
 319 688 l 257
 316 708 l 257
 456 415 l 257
 596 708 l 257
EndSplineSet
EndChar

StartChar: uni2219
Encoding: 8729 8729 340
GlifName: uni2219
Width: 260
VWidth: 0
Flags: HMW
LayerCount: 2
Fore
SplineSet
119 449 m 256
 119 456 124 460 130 460 c 256
 136 460 141 456 141 449 c 256
 141 442 136 438 130 438 c 256
 124 438 119 442 119 449 c 256
EndSplineSet
EndChar

StartChar: agrave.alt
Encoding: 65537 -1 341
GlifName: agrave.alt
Width: 541
VWidth: 0
Flags: HMW
LayerCount: 2
Fore
SplineSet
451 460 m 257
 461 460 l 257
 461 0 l 257
 451 0 l 257
 451 460 l 257
45 230 m 256
 45 377 138 470 258 470 c 256
 381 470 456 349 456 230 c 256
 456 111 381 -10 258 -10 c 256
 138 -10 45 83 45 230 c 256
55 230 m 256
 55 89 145 0 261 0 c 256
 370 0 451 114 451 230 c 256
 451 346 370 460 261 460 c 256
 145 460 55 371 55 230 c 256
162 697 m 257
 170 705 l 257
 340 545 l 257
 336 540 l 257
 162 697 l 257
EndSplineSet
EndChar

StartChar: aacute.alt
Encoding: 65538 -1 342
GlifName: aacute.alt
Width: 541
VWidth: 0
Flags: HMW
LayerCount: 2
Fore
SplineSet
451 460 m 257
 461 460 l 257
 461 0 l 257
 451 0 l 257
 451 460 l 257
45 230 m 256
 45 377 138 470 258 470 c 256
 381 470 456 349 456 230 c 256
 456 111 381 -10 258 -10 c 256
 138 -10 45 83 45 230 c 256
55 230 m 256
 55 89 145 0 261 0 c 256
 370 0 451 114 451 230 c 256
 451 346 370 460 261 460 c 256
 145 460 55 371 55 230 c 256
354 697 m 257
 180 540 l 257
 176 545 l 257
 346 705 l 257
 354 697 l 257
EndSplineSet
EndChar

StartChar: acircumflex.alt
Encoding: 65539 -1 343
GlifName: acircumflex.alt
Width: 541
VWidth: 0
Flags: HMW
LayerCount: 2
Fore
SplineSet
451 460 m 257
 461 460 l 257
 461 0 l 257
 451 0 l 257
 451 460 l 257
45 230 m 256
 45 377 138 470 258 470 c 256
 381 470 456 349 456 230 c 256
 456 111 381 -10 258 -10 c 256
 138 -10 45 83 45 230 c 256
55 230 m 256
 55 89 145 0 261 0 c 256
 370 0 451 114 451 230 c 256
 451 346 370 460 261 460 c 256
 145 460 55 371 55 230 c 256
258 685 m 257
 105 550 l 257
 98 557 l 257
 258 697 l 257
 418 557 l 257
 411 550 l 257
 258 685 l 257
EndSplineSet
EndChar

StartChar: atilde.alt
Encoding: 65540 -1 344
GlifName: atilde.alt
Width: 541
VWidth: 0
Flags: HMW
LayerCount: 2
Fore
SplineSet
451 460 m 257
 461 460 l 257
 461 0 l 257
 451 0 l 257
 451 460 l 257
45 230 m 256
 45 377 138 470 258 470 c 256
 381 470 456 349 456 230 c 256
 456 111 381 -10 258 -10 c 256
 138 -10 45 83 45 230 c 256
55 230 m 256
 55 89 145 0 261 0 c 256
 370 0 451 114 451 230 c 256
 451 346 370 460 261 460 c 256
 145 460 55 371 55 230 c 256
132 551 m 257
 132 580 149 609 194 609 c 256
 249 609 264 562 318 562 c 256
 347 562 359 578 374 610 c 257
 384 607 l 257
 368 570 348 554 318 554 c 256
 263 554 241 601 196 601 c 256
 155 601 142 575 142 550 c 257
 132 551 l 257
EndSplineSet
EndChar

StartChar: adieresis.alt
Encoding: 65541 -1 345
GlifName: adieresis.alt
Width: 541
VWidth: 0
Flags: HMW
LayerCount: 2
Fore
SplineSet
451 460 m 257
 461 460 l 257
 461 0 l 257
 451 0 l 257
 451 460 l 257
45 230 m 256
 45 377 138 470 258 470 c 256
 381 470 456 349 456 230 c 256
 456 111 381 -10 258 -10 c 256
 138 -10 45 83 45 230 c 256
55 230 m 256
 55 89 145 0 261 0 c 256
 370 0 451 114 451 230 c 256
 451 346 370 460 261 460 c 256
 145 460 55 371 55 230 c 256
357 591 m 256
 357 598 362 602 368 602 c 256
 374 602 379 598 379 591 c 256
 379 584 374 580 368 580 c 256
 362 580 357 584 357 591 c 256
157 591 m 256
 157 598 162 602 168 602 c 256
 174 602 179 598 179 591 c 256
 179 584 174 580 168 580 c 256
 162 580 157 584 157 591 c 256
EndSplineSet
EndChar

StartChar: aring.alt
Encoding: 65542 -1 346
GlifName: aring.alt
Width: 541
VWidth: 0
Flags: HMW
LayerCount: 2
Fore
SplineSet
451 460 m 257
 461 460 l 257
 461 0 l 257
 451 0 l 257
 451 460 l 257
45 230 m 256
 45 377 138 470 258 470 c 256
 381 470 456 349 456 230 c 256
 456 111 381 -10 258 -10 c 256
 138 -10 45 83 45 230 c 256
55 230 m 256
 55 89 145 0 261 0 c 256
 370 0 451 114 451 230 c 256
 451 346 370 460 261 460 c 256
 145 460 55 371 55 230 c 256
156 630 m 256
 156 690 206 730 258 730 c 256
 310 730 360 690 360 630 c 256
 360 570 310 530 258 530 c 256
 206 530 156 570 156 630 c 256
166 630 m 256
 166 577 210 540 258 540 c 256
 306 540 350 577 350 630 c 256
 350 683 306 720 258 720 c 256
 210 720 166 683 166 630 c 256
EndSplineSet
EndChar

StartChar: amacron.alt
Encoding: 65543 -1 347
GlifName: amacron.alt
Width: 541
VWidth: 0
Flags: HMW
LayerCount: 2
Fore
SplineSet
451 460 m 257
 461 460 l 257
 461 0 l 257
 451 0 l 257
 451 460 l 257
45 230 m 256
 45 377 138 470 258 470 c 256
 381 470 456 349 456 230 c 256
 456 111 381 -10 258 -10 c 256
 138 -10 45 83 45 230 c 256
55 230 m 256
 55 89 145 0 261 0 c 256
 370 0 451 114 451 230 c 256
 451 346 370 460 261 460 c 256
 145 460 55 371 55 230 c 256
83 550 m 257
 83 560 l 257
 433 560 l 257
 433 550 l 257
 83 550 l 257
EndSplineSet
EndChar

StartChar: abreve.alt
Encoding: 65544 -1 348
GlifName: abreve.alt
Width: 541
VWidth: 0
Flags: HMW
LayerCount: 2
Fore
SplineSet
451 460 m 257
 461 460 l 257
 461 0 l 257
 451 0 l 257
 451 460 l 257
45 230 m 256
 45 377 138 470 258 470 c 256
 381 470 456 349 456 230 c 256
 456 111 381 -10 258 -10 c 256
 138 -10 45 83 45 230 c 256
55 230 m 256
 55 89 145 0 261 0 c 256
 370 0 451 114 451 230 c 256
 451 346 370 460 261 460 c 256
 145 460 55 371 55 230 c 256
100 690 m 257
 110 690 l 257
 110 624 166 560 258 560 c 256
 350 560 406 624 406 690 c 257
 416 690 l 257
 416 621 363 550 258 550 c 256
 153 550 100 621 100 690 c 257
EndSplineSet
EndChar

StartChar: aogonek.alt
Encoding: 65545 -1 349
GlifName: aogonek.alt
Width: 541
VWidth: 0
Flags: HMW
LayerCount: 2
Fore
SplineSet
451 460 m 257
 461 460 l 257
 461 0 l 257
 451 0 l 257
 451 460 l 257
45 230 m 256
 45 377 138 470 258 470 c 256
 381 470 456 349 456 230 c 256
 456 111 381 -10 258 -10 c 256
 138 -10 45 83 45 230 c 256
55 230 m 256
 55 89 145 0 261 0 c 256
 370 0 451 114 451 230 c 256
 451 346 370 460 261 460 c 256
 145 460 55 371 55 230 c 256
495 -173 m 257
 502 -180 l 257
 487 -200 447 -220 404 -220 c 256
 340 -220 301 -189 301 -140 c 256
 301 -71 384 -26 454 10 c 257
 461 0 l 257
 393 -32 311 -83 311 -140 c 256
 311 -186 354 -210 404 -210 c 256
 444 -210 480 -191 495 -173 c 257
EndSplineSet
EndChar

StartChar: dagger
Encoding: 8224 8224 350
GlifName: dagger
Width: 500
VWidth: 0
Flags: HMW
LayerCount: 2
Fore
SplineSet
90 540 m 257
 410 540 l 257
 410 530 l 257
 90 530 l 257
 90 540 l 257
245 700 m 257
 255 700 l 257
 255 -150 l 257
 245 -150 l 257
 245 700 l 257
EndSplineSet
EndChar

StartChar: daggerdbl
Encoding: 8225 8225 351
GlifName: daggerdbl
Width: 500
VWidth: 0
Flags: HMW
LayerCount: 2
Fore
SplineSet
90 120 m 257
 410 120 l 257
 410 110 l 257
 90 110 l 257
 90 120 l 257
90 540 m 257
 410 540 l 257
 410 530 l 257
 90 530 l 257
 90 540 l 257
245 700 m 257
 255 700 l 257
 255 -150 l 257
 245 -150 l 257
 245 700 l 257
EndSplineSet
EndChar

StartChar: ellipsis
Encoding: 8230 8230 352
GlifName: ellipsis
Width: 812
VWidth: 0
Flags: HMW
LayerCount: 2
Fore
SplineSet
120 1 m 256
 120 8 125 12 131 12 c 256
 137 12 142 8 142 1 c 256
 142 -6 137 -10 131 -10 c 256
 125 -10 120 -6 120 1 c 256
395 1 m 256
 395 8 400 12 406 12 c 256
 412 12 417 8 417 1 c 256
 417 -6 412 -10 406 -10 c 256
 400 -10 395 -6 395 1 c 256
670 1 m 256
 670 8 675 12 681 12 c 256
 687 12 692 8 692 1 c 256
 692 -6 687 -10 681 -10 c 256
 675 -10 670 -6 670 1 c 256
EndSplineSet
EndChar

StartChar: uniFF10
Encoding: 65296 65296 353
GlifName: uniF_F_10
Width: 550
VWidth: 0
Flags: HMW
LayerCount: 2
Fore
SplineSet
66 350 m 256
 66 163 143 0 275 0 c 256
 407 0 484 163 484 350 c 256
 484 537 407 700 275 700 c 256
 143 700 66 537 66 350 c 256
55 350 m 256
 55 549 136 710 275 710 c 256
 414 710 495 549 495 350 c 256
 495 151 414 -10 275 -10 c 256
 136 -10 55 151 55 350 c 256
EndSplineSet
EndChar

StartChar: uniFF11
Encoding: 65297 65297 354
GlifName: uniF_F_11
Width: 550
VWidth: 0
Flags: HMW
LayerCount: 2
Fore
SplineSet
165 654 m 257
 165 665 l 257
 345 705 l 257
 345 0 l 257
 335 0 l 257
 335 691 l 257
 165 654 l 257
EndSplineSet
EndChar

StartChar: uniFF12
Encoding: 65298 65298 355
GlifName: uniF_F_12
Width: 550
VWidth: 0
Flags: HMW
LayerCount: 2
Fore
SplineSet
43 0 m 257
 363 334 l 258
 412 385 458 435 458 519 c 256
 458 598 410 701 280 701 c 256
 160 701 83 601 83 460 c 257
 73 460 l 257
 73 609 155 711 280 711 c 256
 414 711 469 603 469 519 c 256
 469 437 422 380 372 328 c 258
 68 10 l 257
 497 10 l 257
 497 0 l 257
 43 0 l 257
EndSplineSet
EndChar

StartChar: uniFF13
Encoding: 65299 65299 356
GlifName: uniF_F_13
Width: 550
VWidth: 0
Flags: HMW
LayerCount: 2
Fore
SplineSet
248 362 m 257
 248 370 l 257
 338 370 456 429 456 533 c 256
 456 616 394 700 282 700 c 256
 173 700 104 627 104 526 c 257
 94 526 l 257
 94 635 167 710 282 710 c 256
 402 710 466 623 466 534 c 256
 466 425 353 362 248 362 c 257
278 -10 m 256
 143 -10 64 76 64 185 c 257
 74 185 l 257
 74 79 148 0 278 0 c 256
 398 0 476 74 476 175 c 256
 476 300 338 360 248 360 c 257
 248 368 l 257
 353 368 486 304 486 175 c 256
 486 66 403 -10 278 -10 c 256
EndSplineSet
EndChar

StartChar: uniFF14
Encoding: 65300 65300 357
GlifName: uniF_F_14
Width: 550
VWidth: 0
Flags: HMW
LayerCount: 2
Fore
SplineSet
24 140 m 257
 34 150 l 257
 400 150 l 256
 404 150 l 256
 516 150 l 257
 516 140 l 257
 24 140 l 257
36 140 m 257
 24 140 l 257
 406 700 l 257
 408 700 l 257
 408 0 l 257
 397 0 l 257
 397 142 l 256
 397 147 l 256
 397 666 l 257
 36 140 l 257
EndSplineSet
EndChar

StartChar: uniFF15
Encoding: 65301 65301 358
GlifName: uniF_F_15
Width: 550
VWidth: 0
Flags: HMW
LayerCount: 2
Fore
SplineSet
486 230 m 256
 486 71 385 -10 260 -10 c 256
 151 -10 88 47 52 137 c 257
 60 142 l 257
 96 54 155 0 260 0 c 256
 380 0 476 79 476 230 c 256
 476 351 391 436 286 436 c 256
 199 436 133 397 82 327 c 257
 100 359 l 257
 130 404 197 446 286 446 c 256
 396 446 486 359 486 230 c 256
180 690 m 257
 100 359 l 257
 82 327 l 257
 174 700 l 257
 504 700 l 257
 504 690 l 257
 180 690 l 257
EndSplineSet
EndChar

StartChar: uniFF16
Encoding: 65302 65302 359
GlifName: uniF_F_16
Width: 550
VWidth: 0
Flags: HMW
LayerCount: 2
Fore
SplineSet
67 220 m 256
 67 94 150 0 275 0 c 256
 400 0 483 94 483 220 c 256
 483 336 391 427 286 427 c 256
 146 427 67 326 67 220 c 256
337 700 m 257
 349 700 l 257
 107 355 l 257
 107 355 l 257
 149 407 211 437 286 437 c 256
 400 437 493 339 493 220 c 256
 493 86 410 -10 275 -10 c 256
 140 -10 57 86 57 220 c 256
 57 277 86 342 113 379 c 258
 337 700 l 257
EndSplineSet
EndChar

StartChar: uniFF17
Encoding: 65303 65303 360
GlifName: uniF_F_17
Width: 550
VWidth: 0
Flags: HMW
LayerCount: 2
Fore
SplineSet
52 690 m 257
 52 700 l 257
 522 700 l 257
 152 0 l 257
 142 0 l 257
 506 690 l 257
 52 690 l 257
EndSplineSet
EndChar

StartChar: uniFF18
Encoding: 65304 65304 361
GlifName: uniF_F_18
Width: 550
VWidth: 0
Flags: HMW
LayerCount: 2
Fore
SplineSet
102 541 m 256
 102 630 175 710 275 710 c 256
 375 710 448 630 448 541 c 256
 448 442 360 368 275 368 c 256
 190 368 102 442 102 541 c 256
112 541 m 256
 112 445 205 375 275 375 c 256
 345 375 438 445 438 541 c 256
 438 627 370 700 275 700 c 256
 180 700 112 627 112 541 c 256
82 185 m 256
 82 294 175 372 275 372 c 256
 375 372 468 294 468 185 c 256
 468 76 400 -10 275 -10 c 256
 150 -10 82 76 82 185 c 256
92 185 m 256
 92 79 160 0 275 0 c 256
 390 0 458 79 458 185 c 256
 458 291 365 365 275 365 c 256
 185 365 92 291 92 185 c 256
EndSplineSet
EndChar

StartChar: uniFF19
Encoding: 65305 65305 362
GlifName: uniF_F_19
Width: 550
VWidth: 0
Flags: HMW
LayerCount: 2
Fore
SplineSet
483 480 m 256
 483 606 400 700 275 700 c 256
 150 700 67 606 67 480 c 256
 67 364 159 273 264 273 c 256
 404 273 483 374 483 480 c 256
213 0 m 257
 201 0 l 257
 443 345 l 257
 443 345 l 257
 401 293 339 263 264 263 c 256
 150 263 57 361 57 480 c 256
 57 614 140 710 275 710 c 256
 410 710 493 614 493 480 c 256
 493 423 464 358 437 321 c 258
 213 0 l 257
EndSplineSet
EndChar

StartChar: caron
Encoding: 711 711 363
GlifName: caron
Width: 480
VWidth: 0
Flags: HMW
LayerCount: 2
Fore
SplineSet
240 582 m 257
 392 718 l 257
 400 710 l 257
 240 570 l 257
 80 710 l 257
 88 718 l 257
 240 582 l 257
EndSplineSet
EndChar

StartChar: napostrophe
Encoding: 329 329 364
GlifName: napostrophe
Width: 615
VWidth: 0
Flags: HMW
LayerCount: 2
Fore
SplineSet
185 460 m 257
 185 0 l 257
 175 0 l 257
 175 460 l 257
 185 460 l 257
470 320 m 258
 470 401 437 460 347 460 c 256
 256 460 185 375 185 280 c 257
 180 280 l 257
 180 389 252 470 347 470 c 256
 442 470 480 409 480 320 c 258
 480 0 l 257
 470 0 l 257
 470 320 l 258
173 700 m 257
 185 700 l 257
 90 470 l 257
 80 470 l 257
 173 700 l 257
EndSplineSet
EndChar

StartChar: IJ
Encoding: 306 306 365
GlifName: I_J_
Width: 490
VWidth: 0
Flags: HMW
LayerCount: 2
Fore
SplineSet
123 -158 m 257
 147 -182 187 -209 233 -209 c 256
 322 -209 346 -166 346 -50 c 258
 346 700 l 257
 357 700 l 257
 357 -60 l 258
 357 -169 328 -220 234 -220 c 256
 181 -220 131 -185 116 -165 c 257
 123 -158 l 257
85 700 m 257
 95 700 l 257
 95 0 l 257
 85 0 l 257
 85 700 l 257
EndSplineSet
EndChar

StartChar: ij
Encoding: 307 307 366
GlifName: ij
Width: 510
VWidth: 0
Flags: HMW
LayerCount: 2
Fore
SplineSet
335 695 m 256
 335 701 338 705 345 705 c 256
 352 705 355 701 355 695 c 256
 355 689 352 685 345 685 c 256
 338 685 335 689 335 695 c 256
164 -165 m 257
 180 -185 205 -210 242 -210 c 256
 322 -210 340 -138 340 -82 c 258
 340 460 l 257
 350 460 l 257
 350 -82 l 258
 350 -151 326 -220 242 -220 c 256
 199 -220 172 -192 157 -172 c 257
 164 -165 l 257
85 695 m 256
 85 701 88 705 95 705 c 256
 102 705 105 701 105 695 c 256
 105 689 102 685 95 685 c 256
 88 685 85 689 85 695 c 256
90 460 m 257
 100 460 l 257
 100 0 l 257
 90 0 l 257
 90 460 l 257
EndSplineSet
EndChar

StartChar: uni0237
Encoding: 567 567 367
GlifName: uni0237
Width: 180
VWidth: 0
Flags: HMW
LayerCount: 2
Fore
SplineSet
-96 -165 m 257
 -80 -185 -55 -210 -18 -210 c 256
 62 -210 80 -138 80 -82 c 258
 80 460 l 257
 90 460 l 257
 90 -82 l 258
 90 -151 66 -220 -18 -220 c 256
 -61 -220 -88 -192 -103 -172 c 257
 -96 -165 l 257
EndSplineSet
EndChar

StartChar: Sacute
Encoding: 346 346 368
GlifName: S_acute
Width: 488
VWidth: 0
Flags: HMW
LayerCount: 2
Fore
SplineSet
50 197 m 257
 77 109 134 3 255 3 c 256
 385 3 432 77 432 175 c 256
 432 278 343 331 267 359 c 256
 187 388 80 442 80 550 c 256
 80 646 159 708 253 708 c 256
 366 708 421 621 439 550 c 257
 429 548 l 257
 410 615 359 697 253 697 c 256
 163 697 91 636 91 550 c 256
 91 450 188 399 273 368 c 256
 356 338 443 283 443 175 c 256
 443 76 394 -8 255 -8 c 256
 130 -8 69 96 40 193 c 257
 50 197 l 257
408 925 m 257
 236 768 l 257
 230 773 l 257
 400 933 l 257
 408 925 l 257
EndSplineSet
EndChar

StartChar: sacute
Encoding: 347 347 369
GlifName: sacute
Width: 403
VWidth: 0
Flags: HMW
LayerCount: 2
Fore
SplineSet
50 147 m 257
 64 76 101 0 198 0 c 256
 270 0 322 45 322 117 c 256
 322 183 265 211 197 231 c 256
 124 252 67 272 67 359 c 256
 67 430 125 468 197 468 c 256
 277 468 313 419 331 368 c 257
 321 365 l 257
 304 413 269 458 197 458 c 256
 132 458 77 424 77 359 c 256
 77 278 133 260 203 240 c 256
 269 221 332 189 332 117 c 256
 332 38 277 -10 198 -10 c 256
 93 -10 54 69 40 144 c 257
 50 147 l 257
352 687 m 257
 180 530 l 257
 174 535 l 257
 344 695 l 257
 352 687 l 257
EndSplineSet
EndChar

StartChar: Scircumflex
Encoding: 348 348 370
GlifName: S_circumflex
Width: 488
VWidth: 0
Flags: HMW
LayerCount: 2
Fore
SplineSet
50 197 m 257
 77 109 134 3 255 3 c 256
 385 3 432 77 432 175 c 256
 432 278 343 331 267 359 c 256
 187 388 80 442 80 550 c 256
 80 646 159 708 253 708 c 256
 366 708 421 621 439 550 c 257
 429 548 l 257
 410 615 359 697 253 697 c 256
 163 697 91 636 91 550 c 256
 91 450 188 399 273 368 c 256
 356 338 443 283 443 175 c 256
 443 76 394 -8 255 -8 c 256
 130 -8 69 96 40 193 c 257
 50 197 l 257
253 903 m 257
 100 768 l 257
 93 775 l 257
 253 915 l 257
 413 775 l 257
 406 768 l 257
 253 903 l 257
EndSplineSet
EndChar

StartChar: scircumflex
Encoding: 349 349 371
GlifName: scircumflex
Width: 403
VWidth: 0
Flags: HMW
LayerCount: 2
Fore
SplineSet
50 147 m 257
 64 76 101 0 198 0 c 256
 270 0 322 45 322 117 c 256
 322 183 265 211 197 231 c 256
 124 252 67 272 67 359 c 256
 67 430 125 468 197 468 c 256
 277 468 313 419 331 368 c 257
 321 365 l 257
 304 413 269 458 197 458 c 256
 132 458 77 424 77 359 c 256
 77 278 133 260 203 240 c 256
 269 221 332 189 332 117 c 256
 332 38 277 -10 198 -10 c 256
 93 -10 54 69 40 144 c 257
 50 147 l 257
197 665 m 257
 44 530 l 257
 37 537 l 257
 197 677 l 257
 357 537 l 257
 350 530 l 257
 197 665 l 257
EndSplineSet
EndChar

StartChar: uni1E9E
Encoding: 7838 7838 372
Width: 666
VWidth: 0
Flags: HMW
LayerCount: 2
Fore
SplineSet
388 -10 m 256
 273 -10 185 76 185 185 c 257
 195 185 l 257
 195 81 278 0 388 0 c 256
 498 0 576 82 576 185 c 256
 576 300 475 358 348 358 c 257
 348 366 l 257
 483 366 586 304 586 185 c 256
 586 76 503 -10 388 -10 c 256
348 362 m 257
 348 370 l 257
 475 370 556 433 556 534 c 256
 556 640 457 700 352 700 c 256
 184 700 90 587 90 416 c 258
 90 0 l 257
 80 0 l 257
 80 416 l 258
 80 595 177 710 352 710 c 256
 462 710 566 648 566 534 c 256
 566 425 483 362 348 362 c 257
EndSplineSet
EndChar

StartChar: Zacute
Encoding: 377 377 373
Width: 535
VWidth: 0
Flags: HW
LayerCount: 2
Fore
SplineSet
40 689 m 257
 40 700 l 257
 520 700 l 257
 42 11 l 257
 510 11 l 257
 510 0 l 257
 20 0 l 257
 498 689 l 257
 40 689 l 257
426 925 m 257
 252 768 l 257
 248 773 l 257
 418 933 l 257
 426 925 l 257
EndSplineSet
EndChar

StartChar: zacute
Encoding: 378 378 374
Width: 430
VWidth: 0
Flags: HW
LayerCount: 2
Fore
SplineSet
379 450 m 257
 40 450 l 257
 40 460 l 257
 400 460 l 257
 41 10 l 257
 410 10 l 257
 410 0 l 257
 20 0 l 257
 379 450 l 257
366 687 m 257
 192 530 l 257
 188 535 l 257
 358 695 l 257
 366 687 l 257
EndSplineSet
EndChar

StartChar: Zdotaccent
Encoding: 379 379 375
Width: 535
VWidth: 0
Flags: HW
LayerCount: 2
Fore
SplineSet
40 689 m 257
 40 700 l 257
 520 700 l 257
 42 11 l 257
 510 11 l 257
 510 0 l 257
 20 0 l 257
 498 689 l 257
 40 689 l 257
269 779 m 256
 269 786 274 790 280 790 c 256
 286 790 291 786 291 779 c 256
 291 772 286 768 280 768 c 256
 274 768 269 772 269 779 c 256
EndSplineSet
EndChar

StartChar: zdotaccent
Encoding: 380 380 376
Width: 430
VWidth: 0
Flags: HW
LayerCount: 2
Fore
SplineSet
379 450 m 257
 40 450 l 257
 40 460 l 257
 400 460 l 257
 41 10 l 257
 410 10 l 257
 410 0 l 257
 20 0 l 257
 379 450 l 257
209 571 m 256
 209 578 214 582 220 582 c 256
 226 582 231 578 231 571 c 256
 231 564 226 560 220 560 c 256
 214 560 209 564 209 571 c 256
EndSplineSet
EndChar

StartChar: Tcaron
Encoding: 356 356 377
Width: 431
VWidth: 0
Flags: HW
LayerCount: 2
Fore
SplineSet
20 689 m 257
 20 700 l 257
 411 700 l 257
 411 689 l 257
 221 689 l 257
 221 0 l 257
 210 0 l 257
 210 689 l 257
 20 689 l 257
215.5 780 m 257
 367.5 916 l 257
 375.5 908 l 257
 215.5 768 l 257
 55.5 908 l 257
 63.5 916 l 257
 215.5 780 l 257
EndSplineSet
EndChar

StartChar: tcaron
Encoding: 357 357 378
Width: 280
VWidth: 0
Flags: HW
LayerCount: 2
Fore
SplineSet
15 460 m 257
 175 460 l 257
 175 450 l 257
 15 450 l 257
 15 460 l 257
90 620 m 257
 100 620 l 257
 100 0 l 257
 90 0 l 257
 90 620 l 257
274 775 m 257
 285 770 l 257
 175 520 l 257
 169 522 l 257
 274 775 l 257
EndSplineSet
EndChar

StartChar: Uring
Encoding: 366 366 379
Width: 576
VWidth: 0
Flags: HW
LayerCount: 2
Fore
SplineSet
85 700 m 257
 96 700 l 257
 96 220 l 258
 96 84 168 1 288 1 c 256
 408 1 480 84 480 220 c 258
 480 700 l 257
 491 700 l 257
 491 220 l 258
 491 81 423 -10 288 -10 c 256
 153 -10 85 81 85 220 c 258
 85 700 l 257
186 868 m 256
 186 928 236 968 288 968 c 256
 340 968 390 928 390 868 c 256
 390 808 340 768 288 768 c 256
 236 768 186 808 186 868 c 256
196 868 m 256
 196 815 240 778 288 778 c 256
 336 778 380 815 380 868 c 256
 380 921 336 958 288 958 c 256
 240 958 196 921 196 868 c 256
EndSplineSet
EndChar

StartChar: uring
Encoding: 367 367 380
Width: 475
VWidth: 0
Flags: HW
LayerCount: 2
Fore
SplineSet
380 0 m 257
 380 460 l 257
 390 460 l 257
 390 0 l 257
 380 0 l 257
95 150 m 258
 95 59 128 0 218 0 c 256
 309 0 380 85 380 180 c 257
 385 180 l 257
 385 71 313 -10 218 -10 c 256
 123 -10 85 51 85 150 c 258
 85 460 l 257
 95 460 l 257
 95 150 l 258
135.5 630 m 256
 135.5 690 185.5 730 237.5 730 c 256
 289.5 730 339.5 690 339.5 630 c 256
 339.5 570 289.5 530 237.5 530 c 256
 185.5 530 135.5 570 135.5 630 c 256
145.5 630 m 256
 145.5 577 189.5 540 237.5 540 c 256
 285.5 540 329.5 577 329.5 630 c 256
 329.5 683 285.5 720 237.5 720 c 256
 189.5 720 145.5 683 145.5 630 c 256
EndSplineSet
EndChar

StartChar: uni0123
Encoding: 291 291 381
Width: 570
VWidth: 0
Flags: HW
LayerCount: 2
Fore
SplineSet
60 -30 m 257
 70 -30 l 257
 70 -146 145 -220 252 -220 c 256
 359 -220 451 -145 451 10 c 258
 451 460 l 257
 461 460 l 257
 461 10 l 258
 461 -149 367 -230 252 -230 c 256
 137 -230 60 -149 60 -30 c 257
45 230 m 256
 45 377 138 470 258 470 c 256
 381 470 456 349 456 230 c 256
 456 111 381 -10 258 -10 c 256
 138 -10 45 83 45 230 c 256
55 230 m 256
 55 89 145 0 261 0 c 256
 371 0 451 114 451 235 c 256
 451 341 371 460 261 460 c 256
 145 460 55 371 55 230 c 256
257.87109375 565.88671875 m 257
 247.772460938 572.522460938 l 257
 394.979492188 802.587890625 l 257
 400.600585938 799.6875 l 257
 257.87109375 565.88671875 l 257
EndSplineSet
EndChar

StartChar: Hbar
Encoding: 294 294 382
Width: 647
VWidth: 0
Flags: HW
LayerCount: 2
Fore
SplineSet
93 377 m 257
 93 387 l 257
 553 387 l 257
 553 377 l 257
 93 377 l 257
546 700 m 257
 557 700 l 257
 557 0 l 257
 546 0 l 257
 546 700 l 257
90 700 m 257
 101 700 l 257
 101 0 l 257
 90 0 l 257
 90 700 l 257
5 605 m 257
 5 615 l 257
 642 615 l 257
 642 605 l 257
 5 605 l 257
EndSplineSet
EndChar

StartChar: hbar
Encoding: 295 295 383
Width: 525
VWidth: 0
Flags: HW
LayerCount: 2
Fore
SplineSet
95 780 m 257
 95 0 l 257
 85 0 l 257
 85 780 l 257
 95 780 l 257
380 320 m 258
 380 401 347 460 257 460 c 256
 166 460 95 375 95 280 c 257
 90 280 l 257
 90 389 162 470 257 470 c 256
 352 470 390 409 390 320 c 258
 390 0 l 257
 380 0 l 257
 380 320 l 258
5 690 m 257
 5 700 l 257
 317 700 l 257
 317 690 l 257
 5 690 l 257
EndSplineSet
EndChar

StartChar: Utilde
Encoding: 360 360 384
Width: 576
VWidth: 0
Flags: H
LayerCount: 2
Fore
SplineSet
85 700 m 257
 96 700 l 257
 96 220 l 258
 96 84 168 1 288 1 c 256
 408 1 480 84 480 220 c 258
 480 700 l 257
 491 700 l 257
 491 220 l 258
 491 81 423 -10 288 -10 c 256
 153 -10 85 81 85 220 c 258
 85 700 l 257
162.5 769 m 257
 162.5 798 179.5 827 224.5 827 c 256
 279.5 827 294.5 780 348.5 780 c 256
 377.5 780 389.5 796 404.5 828 c 257
 413.5 825 l 257
 397.5 788 377.5 772 347.5 772 c 256
 292.5 772 271.5 819 226.5 819 c 256
 185.5 819 171.5 793 171.5 768 c 257
 162.5 769 l 257
EndSplineSet
EndChar

StartChar: utilde
Encoding: 361 361 385
Width: 475
VWidth: 0
Flags: H
LayerCount: 2
Fore
SplineSet
380 0 m 257
 380 460 l 257
 390 460 l 257
 390 0 l 257
 380 0 l 257
95 150 m 258
 95 59 128 0 218 0 c 256
 309 0 380 85 380 180 c 257
 385 180 l 257
 385 71 313 -10 218 -10 c 256
 123 -10 85 51 85 150 c 258
 85 460 l 257
 95 460 l 257
 95 150 l 258
112 531 m 257
 112 560 129 589 174 589 c 256
 229 589 244 542 298 542 c 256
 327 542 339 558 354 590 c 257
 363 587 l 257
 347 550 327 534 297 534 c 256
 242 534 221 581 176 581 c 256
 135 581 121 555 121 530 c 257
 112 531 l 257
EndSplineSet
EndChar

StartChar: Umacron
Encoding: 362 362 386
Width: 576
VWidth: 0
Flags: H
LayerCount: 2
Fore
SplineSet
85 700 m 257
 96 700 l 257
 96 220 l 258
 96 84 168 1 288 1 c 256
 408 1 480 84 480 220 c 258
 480 700 l 257
 491 700 l 257
 491 220 l 258
 491 81 423 -10 288 -10 c 256
 153 -10 85 81 85 220 c 258
 85 700 l 257
113 768 m 257
 113 778 l 257
 463 778 l 257
 463 768 l 257
 113 768 l 257
EndSplineSet
EndChar

StartChar: umacron
Encoding: 363 363 387
Width: 475
VWidth: 0
Flags: H
LayerCount: 2
Fore
SplineSet
380 0 m 257
 380 460 l 257
 390 460 l 257
 390 0 l 257
 380 0 l 257
95 150 m 258
 95 59 128 0 218 0 c 256
 309 0 380 85 380 180 c 257
 385 180 l 257
 385 71 313 -10 218 -10 c 256
 123 -10 85 51 85 150 c 258
 85 460 l 257
 95 460 l 257
 95 150 l 258
62.5 530 m 257
 62.5 540 l 257
 412.5 540 l 257
 412.5 530 l 257
 62.5 530 l 257
EndSplineSet
EndChar

StartChar: Ubreve
Encoding: 364 364 388
Width: 576
VWidth: 0
Flags: H
LayerCount: 2
Fore
SplineSet
85 700 m 257
 96 700 l 257
 96 220 l 258
 96 84 168 1 288 1 c 256
 408 1 480 84 480 220 c 258
 480 700 l 257
 491 700 l 257
 491 220 l 258
 491 81 423 -10 288 -10 c 256
 153 -10 85 81 85 220 c 258
 85 700 l 257
130 908 m 257
 140 908 l 257
 140 842 196 778 288 778 c 256
 380 778 436 842 436 908 c 257
 446 908 l 257
 446 839 393 768 288 768 c 256
 183 768 130 839 130 908 c 257
EndSplineSet
EndChar

StartChar: ubreve
Encoding: 365 365 389
Width: 475
VWidth: 0
Flags: H
LayerCount: 2
Fore
SplineSet
380 0 m 257
 380 460 l 257
 390 460 l 257
 390 0 l 257
 380 0 l 257
95 150 m 258
 95 59 128 0 218 0 c 256
 309 0 380 85 380 180 c 257
 385 180 l 257
 385 71 313 -10 218 -10 c 256
 123 -10 85 51 85 150 c 258
 85 460 l 257
 95 460 l 257
 95 150 l 258
79.5 670 m 257
 89.5 670 l 257
 89.5 604 145.5 540 237.5 540 c 256
 329.5 540 385.5 604 385.5 670 c 257
 395.5 670 l 257
 395.5 601 342.5 530 237.5 530 c 256
 132.5 530 79.5 601 79.5 670 c 257
EndSplineSet
EndChar

StartChar: Wcircumflex
Encoding: 372 372 390
Width: 950
VWidth: 0
Flags: H
LayerCount: 2
Fore
SplineSet
695 26 m 257
 919 700 l 257
 930 700 l 257
 695 -15 l 257
 475 677 l 257
 255 -15 l 257
 20 700 l 257
 31 700 l 257
 255 26 l 257
 475 715 l 257
 695 26 l 257
475 910 m 257
 322 775 l 257
 315 782 l 257
 475 922 l 257
 635 782 l 257
 628 775 l 257
 475 910 l 257
EndSplineSet
EndChar

StartChar: wcircumflex
Encoding: 373 373 391
Width: 620
VWidth: 0
Flags: H
LayerCount: 2
Fore
SplineSet
15 460 m 257
 25 460 l 257
 162 18 l 257
 305 475 l 257
 458 18 l 257
 595 460 l 257
 605 460 l 257
 458 -15 l 257
 305 441 l 257
 162 -15 l 257
 15 460 l 257
305 670 m 257
 152 535 l 257
 145 542 l 257
 305 682 l 257
 465 542 l 257
 458 535 l 257
 305 670 l 257
EndSplineSet
EndChar

StartChar: Ycircumflex
Encoding: 374 374 392
Width: 507
VWidth: 0
Flags: H
LayerCount: 2
Fore
SplineSet
479 700 m 257
 492 700 l 257
 254 267 l 257
 254 0 l 257
 243 0 l 257
 243 266 l 257
 15 700 l 257
 28 700 l 257
 248 281 l 257
 479 700 l 257
253.5 903 m 257
 100.5 768 l 257
 93.5 775 l 257
 253.5 915 l 257
 413.5 775 l 257
 406.5 768 l 257
 253.5 903 l 257
EndSplineSet
EndChar

StartChar: ycircumflex
Encoding: 375 375 393
Width: 425
VWidth: 0
Flags: H
LayerCount: 2
Fore
SplineSet
415 460 m 257
 115 -220 l 257
 104 -220 l 257
 210 20 l 257
 10 460 l 257
 22 460 l 257
 221 20 l 257
 210 20 l 257
 404 460 l 257
 415 460 l 257
212.5 665 m 257
 59.5 530 l 257
 52.5 537 l 257
 212.5 677 l 257
 372.5 537 l 257
 365.5 530 l 257
 212.5 665 l 257
EndSplineSet
EndChar

StartChar: uni0400
Encoding: 1024 1024 394
Width: 550
VWidth: 0
Flags: HW
LayerCount: 2
Fore
SplineSet
92 0 m 257
 92 10 l 257
 430 10 l 257
 430 0 l 257
 92 0 l 257
92 690 m 257
 92 700 l 257
 430 700 l 257
 430 690 l 257
 92 690 l 257
92 384 m 257
 92 394 l 257
 410 394 l 257
 410 384 l 257
 92 384 l 257
90 700 m 257
 101 700 l 257
 101 0 l 257
 90 0 l 257
 90 700 l 257
125 952 m 257
 133 960 l 257
 303 800 l 257
 298 795 l 257
 125 952 l 257
EndSplineSet
EndChar

StartChar: uni0401
Encoding: 1025 1025 395
Width: 550
VWidth: 0
Flags: HW
LayerCount: 2
Fore
SplineSet
92 0 m 257
 92 10 l 257
 430 10 l 257
 430 0 l 257
 92 0 l 257
92 690 m 257
 92 700 l 257
 430 700 l 257
 430 690 l 257
 92 690 l 257
92 384 m 257
 92 394 l 257
 410 394 l 257
 410 384 l 257
 92 384 l 257
90 700 m 257
 101 700 l 257
 101 0 l 257
 90 0 l 257
 90 700 l 257
345 854 m 256
 345 861 350 865 356 865 c 256
 362 865 367 861 367 854 c 256
 367 847 362 843 356 843 c 256
 350 843 345 847 345 854 c 256
145 854 m 256
 145 861 150 865 156 865 c 256
 162 865 167 861 167 854 c 256
 167 847 162 843 156 843 c 256
 150 843 145 847 145 854 c 256
EndSplineSet
EndChar

StartChar: uni0403
Encoding: 1027 1027 396
Width: 435
VWidth: 0
Flags: HW
LayerCount: 2
Fore
SplineSet
80 700 m 1
 425 700 l 1
 425 690 l 1
 90 690 l 5
 90 0 l 5
 80 0 l 1
 80 700 l 1
385.5 952 m 257
 212.5 795 l 257
 207.5 800 l 257
 377.5 960 l 257
 385.5 952 l 257
EndSplineSet
EndChar

StartChar: uni040C
Encoding: 1036 1036 397
Width: 565
VWidth: 0
Flags: HW
LayerCount: 2
Fore
SplineSet
85 700 m 257
 96 700 l 257
 96 0 l 257
 85 0 l 257
 85 700 l 257
408 700 m 257
 424 700 l 257
 109 372 l 257
 439 0 l 257
 422 0 l 257
 94 372 l 257
 408 700 l 257
445.5 952 m 257
 272.5 795 l 257
 267.5 800 l 257
 437.5 960 l 257
 445.5 952 l 257
EndSplineSet
EndChar

StartChar: uni040D
Encoding: 1037 1037 398
Width: 725
VWidth: 0
Flags: HW
LayerCount: 2
Fore
SplineSet
635 717 m 5
 90 -35 l 5
 90 -17 l 5
 635 735 l 5
 635 717 l 5
100 700 m 5
 100 -13 l 5
 90 -35 l 5
 90 700 l 5
 100 700 l 5
635 735 m 5
 635 0 l 5
 625 0 l 5
 625 715 l 5
 635 735 l 5
190 927 m 257
 198 935 l 257
 368 775 l 257
 363 770 l 257
 190 927 l 257
EndSplineSet
EndChar

StartChar: uni040E
Encoding: 1038 1038 399
Width: 480
VWidth: 0
Flags: HW
LayerCount: 2
Fore
SplineSet
480 700 m 1
 151 0 l 1
 141 0 l 1
 246 224 l 1
 0 700 l 1
 10 700 l 1
 253 230 l 5
 249 230 l 1
 470 700 l 1
 480 700 l 1
82 908 m 257
 92 908 l 257
 92 842 148 778 240 778 c 256
 332 778 388 842 388 908 c 257
 398 908 l 257
 398 839 345 768 240 768 c 256
 135 768 82 839 82 908 c 257
EndSplineSet
EndChar

StartChar: uni0410
Encoding: 1040 1040 400
Width: 660
VWidth: 0
Flags: HW
LayerCount: 2
Fore
SplineSet
129 272 m 257
 129 282 l 257
 472 282 l 257
 472 272 l 257
 129 272 l 257
300 688 m 257
 136 277 l 257
 135 273 l 257
 27 0 l 257
 15 0 l 257
 300 715 l 257
 585 0 l 257
 573 0 l 257
 466 273 l 257
 465 276 l 257
 300 688 l 257
EndSplineSet
EndChar

StartChar: uni0411
Encoding: 1041 1041 401
Width: 508
VWidth: 0
Flags: HW
LayerCount: 2
Fore
SplineSet
87 410 m 5
 87 420 l 5
 230 420 l 6
 365 420 468 339 468 210 c 4
 468 81 365 0 230 0 c 6
 87 0 l 5
 87 10 l 5
 230 10 l 6
 360 10 458 89 458 210 c 4
 458 331 360 410 230 410 c 6
 87 410 l 5
80 700 m 1
 415 700 l 1
 415 690 l 1
 90 690 l 1
 90 0 l 1
 80 0 l 1
 80 700 l 1
EndSplineSet
EndChar

StartChar: uni0412
Encoding: 1042 1042 402
Width: 558
VWidth: 0
Flags: HW
LayerCount: 2
Fore
SplineSet
97 386 m 257
 97 394 l 257
 200 394 l 258
 300 394 387 434 387 540 c 256
 387 634 320 689 200 689 c 258
 100 689 l 257
 100 11 l 257
 210 11 l 258
 340 11 424 69 424 200 c 256
 424 316 310 384 210 384 c 258
 97 384 l 257
 97 392 l 257
 220 392 l 258
 305 392 435 329 435 200 c 256
 435 61 345 0 210 0 c 258
 90 0 l 257
 90 700 l 257
 200 700 l 258
 325 700 398 639 398 540 c 256
 398 431 315 386 210 386 c 258
 97 386 l 257
EndSplineSet
EndChar

StartChar: uni0413
Encoding: 1043 1043 403
Width: 435
VWidth: 0
Flags: HW
LayerCount: 2
Fore
SplineSet
80 700 m 1
 425 700 l 1
 425 690 l 1
 90 690 l 5
 90 0 l 5
 80 0 l 1
 80 700 l 1
EndSplineSet
EndChar

StartChar: uni0414
Encoding: 1044 1044 404
Width: 795
VWidth: 0
Flags: HW
LayerCount: 2
Fore
SplineSet
395 705 m 1
 122 10 l 1
 110 10 l 1
 395 735 l 1
 680 10 l 1
 668 10 l 5
 395 705 l 1
740 0 m 1
 50 0 l 1
 50 -110 l 1
 40 -110 l 1
 40 10 l 1
 750 10 l 1
 750 -110 l 1
 740 -110 l 1
 740 0 l 1
EndSplineSet
EndChar

StartChar: uni0415
Encoding: 1045 1045 405
Width: 550
VWidth: 0
Flags: HW
LayerCount: 2
Fore
SplineSet
92 0 m 257
 92 10 l 257
 430 10 l 257
 430 0 l 257
 92 0 l 257
92 690 m 257
 92 700 l 257
 430 700 l 257
 430 690 l 257
 92 690 l 257
92 384 m 257
 92 394 l 257
 410 394 l 257
 410 384 l 257
 92 384 l 257
90 700 m 257
 101 700 l 257
 101 0 l 257
 90 0 l 257
 90 700 l 257
EndSplineSet
EndChar

StartChar: uni0416
Encoding: 1046 1046 406
Width: 640
VWidth: 0
Flags: HW
LayerCount: 2
Fore
SplineSet
35 700 m 1
 322 370 l 1
 20 0 l 1
 5 0 l 1
 309 370 l 1
 20 700 l 1
 35 700 l 1
320 700 m 1
 330 700 l 1
 330 0 l 1
 320 0 l 1
 320 700 l 1
605 700 m 1
 620 700 l 1
 341 370 l 5
 635 0 l 1
 620 0 l 1
 328 370 l 5
 605 700 l 1
EndSplineSet
EndChar

StartChar: uni0417
Encoding: 1047 1047 407
Width: 606
VWidth: 0
Flags: HW
LayerCount: 2
Fore
SplineSet
283 360 m 1
 283 367 l 1
 425 367 531 428 531 524 c 0
 531 620 447 700 317 700 c 0
 185 700 100 627 100 526 c 1
 90 526 l 1
 90 635 182 710 317 710 c 0
 457 710 541 623 541 524 c 0
 541 425 438 360 283 360 c 1
313 -10 m 4
 148 -10 60 76 60 185 c 1
 70 185 l 1
 70 79 158 0 313 0 c 4
 463 0 551 76 551 185 c 0
 551 320 425 357 283 357 c 1
 283 365 l 1
 438 365 561 324 561 185 c 0
 561 66 468 -10 313 -10 c 4
EndSplineSet
EndChar

StartChar: uni0418
Encoding: 1048 1048 408
Width: 725
VWidth: 0
Flags: HW
LayerCount: 2
Fore
SplineSet
635 717 m 5
 90 -35 l 5
 90 -17 l 5
 635 735 l 5
 635 717 l 5
100 700 m 5
 100 -13 l 5
 90 -35 l 5
 90 700 l 5
 100 700 l 5
635 735 m 5
 635 0 l 5
 625 0 l 5
 625 715 l 5
 635 735 l 5
EndSplineSet
EndChar

StartChar: uni0419
Encoding: 1049 1049 409
Width: 725
VWidth: 0
Flags: HW
LayerCount: 2
Fore
SplineSet
635 717 m 1
 90 -35 l 1
 90 -17 l 1
 635 735 l 1
 635 717 l 1
100 700 m 1
 100 -13 l 1
 90 -35 l 1
 90 700 l 1
 100 700 l 1
635 735 m 1
 635 0 l 1
 625 0 l 1
 625 715 l 1
 635 735 l 1
215 900 m 261
 225 900 l 261
 225 834 281 770 373 770 c 260
 465 770 521 834 521 900 c 261
 531 900 l 261
 531 831 478 760 373 760 c 260
 268 760 215 831 215 900 c 261
EndSplineSet
EndChar

StartChar: uni041A
Encoding: 1050 1050 410
Width: 565
VWidth: 0
Flags: HW
LayerCount: 2
Fore
SplineSet
85 700 m 257
 96 700 l 257
 96 0 l 257
 85 0 l 257
 85 700 l 257
408 700 m 257
 424 700 l 257
 109 372 l 257
 439 0 l 257
 422 0 l 257
 94 372 l 257
 408 700 l 257
EndSplineSet
EndChar

StartChar: uni041B
Encoding: 1051 1051 411
Width: 613
VWidth: 0
Flags: HW
LayerCount: 2
Fore
SplineSet
533 700 m 25
 533 0 l 1
 523 0 l 1
 523 690 l 1
 113 690 l 25
 113 240 l 2
 113 111 74 0 10 0 c 1
 10 10 l 1
 70 10 103 134 103 240 c 6
 103 700 l 25
 533 700 l 25
EndSplineSet
EndChar

StartChar: uni041C
Encoding: 1052 1052 412
Width: 810
VWidth: 0
Flags: HW
LayerCount: 2
Fore
SplineSet
142 675 m 257
 71 0 l 257
 60 0 l 257
 135 715 l 257
 415 131 l 257
 695 715 l 257
 770 0 l 257
 759 0 l 257
 688 675 l 257
 415 105 l 257
 142 675 l 257
EndSplineSet
EndChar

StartChar: uni041D
Encoding: 1053 1053 413
Width: 715
VWidth: 0
Flags: HW
LayerCount: 2
Fore
SplineSet
93 377 m 257
 93 387 l 257
 553 387 l 257
 553 377 l 257
 93 377 l 257
546 700 m 257
 557 700 l 257
 557 0 l 257
 546 0 l 257
 546 700 l 257
90 700 m 257
 101 700 l 257
 101 0 l 257
 90 0 l 257
 90 700 l 257
EndSplineSet
EndChar

StartChar: uni041E
Encoding: 1054 1054 414
Width: 790
VWidth: 0
Flags: HW
LayerCount: 2
Fore
SplineSet
61 350 m 256
 61 149 196 3 387 3 c 256
 578 3 713 149 713 350 c 256
 713 551 578 697 387 697 c 256
 196 697 61 551 61 350 c 256
50 350 m 256
 50 559 193 708 387 708 c 256
 581 708 724 559 724 350 c 256
 724 141 581 -8 387 -8 c 256
 193 -8 50 141 50 350 c 256
EndSplineSet
EndChar

StartChar: uni041F
Encoding: 1055 1055 415
Width: 640
VWidth: 0
Flags: HW
LayerCount: 2
Fore
SplineSet
550 690 m 1
 90 690 l 5
 90 0 l 5
 80 0 l 1
 80 700 l 1
 560 700 l 5
 560 0 l 5
 550 0 l 1
 550 690 l 1
EndSplineSet
EndChar

StartChar: uni0420
Encoding: 1056 1056 416
Width: 548
VWidth: 0
Flags: HW
LayerCount: 2
Fore
SplineSet
90 700 m 257
 101 700 l 257
 101 0 l 257
 90 0 l 257
 90 700 l 257
97 690 m 257
 97 700 l 257
 215 700 l 258
 340 700 430 626 430 497 c 256
 430 368 340 294 215 294 c 258
 97 294 l 257
 97 304 l 257
 215 304 l 258
 335 304 419 374 419 497 c 256
 419 620 335 690 215 690 c 258
 97 690 l 257
EndSplineSet
EndChar

